<mxfile host="Electron" modified="2023-12-03T20:31:34.196Z" agent="Mozilla/5.0 (Windows NT 10.0; Win64; x64) AppleWebKit/537.36 (KHTML, like Gecko) draw.io/22.1.2 Chrome/114.0.5735.289 Electron/25.9.4 Safari/537.36" etag="3Fn365bYcwUU14qVVrPO" version="22.1.2" type="device">
  <diagram name="Page-1" id="ZjhYJpsiUV4TKEpsLyaF">
    <mxGraphModel dx="2126" dy="1714" grid="1" gridSize="10" guides="1" tooltips="1" connect="1" arrows="1" fold="1" page="1" pageScale="1" pageWidth="850" pageHeight="1100" math="0" shadow="0">
      <root>
        <mxCell id="0" />
        <mxCell id="1" parent="0" />
        <mxCell id="pz5CJEBABPtMnbNcCvbR-7" value="View" style="swimlane;whiteSpace=wrap;html=1;startSize=20;" parent="1" vertex="1">
          <mxGeometry x="-440" y="-100" width="610" height="2300" as="geometry" />
        </mxCell>
        <mxCell id="pz5CJEBABPtMnbNcCvbR-144" value="&amp;lt;&amp;lt;boundary&amp;gt;&amp;gt;&lt;br style=&quot;border-color: var(--border-color); font-weight: 400;&quot;&gt;AdminPage" style="swimlane;fontStyle=1;align=center;verticalAlign=top;childLayout=stackLayout;horizontal=1;startSize=40;horizontalStack=0;resizeParent=1;resizeParentMax=0;resizeLast=0;collapsible=1;marginBottom=0;whiteSpace=wrap;html=1;" parent="pz5CJEBABPtMnbNcCvbR-7" vertex="1">
          <mxGeometry x="20" y="40" width="190" height="164" as="geometry" />
        </mxCell>
        <mxCell id="pz5CJEBABPtMnbNcCvbR-145" value="- currentUser: CurrentUserContext" style="text;strokeColor=none;fillColor=none;align=left;verticalAlign=top;spacingLeft=4;spacingRight=4;overflow=hidden;rotatable=0;points=[[0,0.5],[1,0.5]];portConstraint=eastwest;whiteSpace=wrap;html=1;" parent="pz5CJEBABPtMnbNcCvbR-144" vertex="1">
          <mxGeometry y="40" width="190" height="34" as="geometry" />
        </mxCell>
        <mxCell id="pz5CJEBABPtMnbNcCvbR-146" value="" style="line;strokeWidth=1;fillColor=none;align=left;verticalAlign=middle;spacingTop=-1;spacingLeft=3;spacingRight=3;rotatable=0;labelPosition=right;points=[];portConstraint=eastwest;strokeColor=inherit;" parent="pz5CJEBABPtMnbNcCvbR-144" vertex="1">
          <mxGeometry y="74" width="190" height="8" as="geometry" />
        </mxCell>
        <mxCell id="pz5CJEBABPtMnbNcCvbR-147" value="+ viewFlightsClickFunction()&lt;br&gt;+ manageFlightsClickFunction()&lt;br&gt;+ manageCrewClickFunction()&lt;br&gt;+ manageAircraftClickFunction()&lt;br&gt;+ manageUsersClickFunction():&amp;nbsp;" style="text;strokeColor=none;fillColor=none;align=left;verticalAlign=top;spacingLeft=4;spacingRight=4;overflow=hidden;rotatable=0;points=[[0,0.5],[1,0.5]];portConstraint=eastwest;whiteSpace=wrap;html=1;" parent="pz5CJEBABPtMnbNcCvbR-144" vertex="1">
          <mxGeometry y="82" width="190" height="82" as="geometry" />
        </mxCell>
        <mxCell id="pz5CJEBABPtMnbNcCvbR-154" value="&amp;lt;&amp;lt;boundary&amp;gt;&amp;gt;&lt;br style=&quot;border-color: var(--border-color); font-weight: 400;&quot;&gt;FlightsPage" style="swimlane;fontStyle=1;align=center;verticalAlign=top;childLayout=stackLayout;horizontal=1;startSize=40;horizontalStack=0;resizeParent=1;resizeParentMax=0;resizeLast=0;collapsible=1;marginBottom=0;whiteSpace=wrap;html=1;" parent="pz5CJEBABPtMnbNcCvbR-7" vertex="1">
          <mxGeometry x="20" y="230" width="190" height="140" as="geometry" />
        </mxCell>
        <mxCell id="pz5CJEBABPtMnbNcCvbR-155" value="- origin: String&lt;br&gt;- destination: String&lt;br&gt;- date: String&lt;br&gt;- setCheckoutFlightID: any" style="text;strokeColor=none;fillColor=none;align=left;verticalAlign=top;spacingLeft=4;spacingRight=4;overflow=hidden;rotatable=0;points=[[0,0.5],[1,0.5]];portConstraint=eastwest;whiteSpace=wrap;html=1;" parent="pz5CJEBABPtMnbNcCvbR-154" vertex="1">
          <mxGeometry y="40" width="190" height="70" as="geometry" />
        </mxCell>
        <mxCell id="pz5CJEBABPtMnbNcCvbR-156" value="" style="line;strokeWidth=1;fillColor=none;align=left;verticalAlign=middle;spacingTop=-1;spacingLeft=3;spacingRight=3;rotatable=0;labelPosition=right;points=[];portConstraint=eastwest;strokeColor=inherit;" parent="pz5CJEBABPtMnbNcCvbR-154" vertex="1">
          <mxGeometry y="110" width="190" height="8" as="geometry" />
        </mxCell>
        <mxCell id="pz5CJEBABPtMnbNcCvbR-157" value="+ fetchFlights()&lt;br&gt;" style="text;strokeColor=none;fillColor=none;align=left;verticalAlign=top;spacingLeft=4;spacingRight=4;overflow=hidden;rotatable=0;points=[[0,0.5],[1,0.5]];portConstraint=eastwest;whiteSpace=wrap;html=1;" parent="pz5CJEBABPtMnbNcCvbR-154" vertex="1">
          <mxGeometry y="118" width="190" height="22" as="geometry" />
        </mxCell>
        <mxCell id="pz5CJEBABPtMnbNcCvbR-186" value="&amp;lt;&amp;lt;boundary&amp;gt;&amp;gt;&lt;br style=&quot;border-color: var(--border-color); font-weight: 400;&quot;&gt;ManifestPage" style="swimlane;fontStyle=1;align=center;verticalAlign=top;childLayout=stackLayout;horizontal=1;startSize=40;horizontalStack=0;resizeParent=1;resizeParentMax=0;resizeLast=0;collapsible=1;marginBottom=0;whiteSpace=wrap;html=1;" parent="pz5CJEBABPtMnbNcCvbR-7" vertex="1">
          <mxGeometry x="20" y="550" width="190" height="110" as="geometry" />
        </mxCell>
        <mxCell id="pz5CJEBABPtMnbNcCvbR-187" value="- currentUser: CurrentUserContext&lt;br&gt;" style="text;strokeColor=none;fillColor=none;align=left;verticalAlign=top;spacingLeft=4;spacingRight=4;overflow=hidden;rotatable=0;points=[[0,0.5],[1,0.5]];portConstraint=eastwest;whiteSpace=wrap;html=1;" parent="pz5CJEBABPtMnbNcCvbR-186" vertex="1">
          <mxGeometry y="40" width="190" height="40" as="geometry" />
        </mxCell>
        <mxCell id="pz5CJEBABPtMnbNcCvbR-188" value="" style="line;strokeWidth=1;fillColor=none;align=left;verticalAlign=middle;spacingTop=-1;spacingLeft=3;spacingRight=3;rotatable=0;labelPosition=right;points=[];portConstraint=eastwest;strokeColor=inherit;" parent="pz5CJEBABPtMnbNcCvbR-186" vertex="1">
          <mxGeometry y="80" width="190" height="8" as="geometry" />
        </mxCell>
        <mxCell id="pz5CJEBABPtMnbNcCvbR-189" value="+ useEffect()" style="text;strokeColor=none;fillColor=none;align=left;verticalAlign=top;spacingLeft=4;spacingRight=4;overflow=hidden;rotatable=0;points=[[0,0.5],[1,0.5]];portConstraint=eastwest;whiteSpace=wrap;html=1;" parent="pz5CJEBABPtMnbNcCvbR-186" vertex="1">
          <mxGeometry y="88" width="190" height="22" as="geometry" />
        </mxCell>
        <mxCell id="pz5CJEBABPtMnbNcCvbR-209" value="&amp;lt;&amp;lt;boundary&amp;gt;&amp;gt;&lt;br style=&quot;border-color: var(--border-color); font-weight: 400;&quot;&gt;NamesPage" style="swimlane;fontStyle=1;align=center;verticalAlign=top;childLayout=stackLayout;horizontal=1;startSize=40;horizontalStack=0;resizeParent=1;resizeParentMax=0;resizeLast=0;collapsible=1;marginBottom=0;whiteSpace=wrap;html=1;" parent="pz5CJEBABPtMnbNcCvbR-7" vertex="1">
          <mxGeometry x="20" y="680" width="190" height="190" as="geometry" />
        </mxCell>
        <mxCell id="pz5CJEBABPtMnbNcCvbR-210" value="- checkoutSeats: CheckoutSeatModel[]&lt;br&gt;- setCheckoutSeats: Any&lt;br&gt;- useHistory(): userID: Number, roles: Roles" style="text;strokeColor=none;fillColor=none;align=left;verticalAlign=top;spacingLeft=4;spacingRight=4;overflow=hidden;rotatable=0;points=[[0,0.5],[1,0.5]];portConstraint=eastwest;whiteSpace=wrap;html=1;" parent="pz5CJEBABPtMnbNcCvbR-209" vertex="1">
          <mxGeometry y="40" width="190" height="80" as="geometry" />
        </mxCell>
        <mxCell id="pz5CJEBABPtMnbNcCvbR-211" value="" style="line;strokeWidth=1;fillColor=none;align=left;verticalAlign=middle;spacingTop=-1;spacingLeft=3;spacingRight=3;rotatable=0;labelPosition=right;points=[];portConstraint=eastwest;strokeColor=inherit;" parent="pz5CJEBABPtMnbNcCvbR-209" vertex="1">
          <mxGeometry y="120" width="190" height="8" as="geometry" />
        </mxCell>
        <mxCell id="pz5CJEBABPtMnbNcCvbR-212" value="+ nameHandleChange(number: it, name: String)&lt;br&gt;+ checkoutHandleChange()" style="text;strokeColor=none;fillColor=none;align=left;verticalAlign=top;spacingLeft=4;spacingRight=4;overflow=hidden;rotatable=0;points=[[0,0.5],[1,0.5]];portConstraint=eastwest;whiteSpace=wrap;html=1;" parent="pz5CJEBABPtMnbNcCvbR-209" vertex="1">
          <mxGeometry y="128" width="190" height="62" as="geometry" />
        </mxCell>
        <mxCell id="pz5CJEBABPtMnbNcCvbR-215" value="&amp;lt;&amp;lt;boundary&amp;gt;&amp;gt;&lt;br style=&quot;border-color: var(--border-color); font-weight: 400;&quot;&gt;PaymentPage" style="swimlane;fontStyle=1;align=center;verticalAlign=top;childLayout=stackLayout;horizontal=1;startSize=40;horizontalStack=0;resizeParent=1;resizeParentMax=0;resizeLast=0;collapsible=1;marginBottom=0;whiteSpace=wrap;html=1;" parent="pz5CJEBABPtMnbNcCvbR-7" vertex="1">
          <mxGeometry x="20" y="890" width="190" height="220" as="geometry" />
        </mxCell>
        <mxCell id="pz5CJEBABPtMnbNcCvbR-216" value="- checkoutFlightID: int&lt;br&gt;- checkoutSeats: CheckoutSeatsModel[]&lt;br&gt;- checkoutCost: number&lt;br&gt;- checkoutInsurance: boolean&lt;br&gt;- useHistory(): userID: Number, roles: Roles" style="text;strokeColor=none;fillColor=none;align=left;verticalAlign=top;spacingLeft=4;spacingRight=4;overflow=hidden;rotatable=0;points=[[0,0.5],[1,0.5]];portConstraint=eastwest;whiteSpace=wrap;html=1;" parent="pz5CJEBABPtMnbNcCvbR-215" vertex="1">
          <mxGeometry y="40" width="190" height="110" as="geometry" />
        </mxCell>
        <mxCell id="pz5CJEBABPtMnbNcCvbR-217" value="" style="line;strokeWidth=1;fillColor=none;align=left;verticalAlign=middle;spacingTop=-1;spacingLeft=3;spacingRight=3;rotatable=0;labelPosition=right;points=[];portConstraint=eastwest;strokeColor=inherit;" parent="pz5CJEBABPtMnbNcCvbR-215" vertex="1">
          <mxGeometry y="150" width="190" height="8" as="geometry" />
        </mxCell>
        <mxCell id="pz5CJEBABPtMnbNcCvbR-218" value="+ sendPayment()&lt;br&gt;+ sendTicket()&lt;br&gt;+payHandleChange()" style="text;strokeColor=none;fillColor=none;align=left;verticalAlign=top;spacingLeft=4;spacingRight=4;overflow=hidden;rotatable=0;points=[[0,0.5],[1,0.5]];portConstraint=eastwest;whiteSpace=wrap;html=1;" parent="pz5CJEBABPtMnbNcCvbR-215" vertex="1">
          <mxGeometry y="158" width="190" height="62" as="geometry" />
        </mxCell>
        <mxCell id="pz5CJEBABPtMnbNcCvbR-220" value="&amp;lt;&amp;lt;boundary&amp;gt;&amp;gt;&lt;br&gt;ConfirmationPage" style="swimlane;fontStyle=1;align=center;verticalAlign=top;childLayout=stackLayout;horizontal=1;startSize=40;horizontalStack=0;resizeParent=1;resizeParentMax=0;resizeLast=0;collapsible=1;marginBottom=0;whiteSpace=wrap;html=1;" parent="pz5CJEBABPtMnbNcCvbR-7" vertex="1">
          <mxGeometry x="20" y="1130" width="190" height="80" as="geometry" />
        </mxCell>
        <mxCell id="pz5CJEBABPtMnbNcCvbR-222" value="" style="line;strokeWidth=1;fillColor=none;align=left;verticalAlign=middle;spacingTop=-1;spacingLeft=3;spacingRight=3;rotatable=0;labelPosition=right;points=[];portConstraint=eastwest;strokeColor=inherit;" parent="pz5CJEBABPtMnbNcCvbR-220" vertex="1">
          <mxGeometry y="40" width="190" height="8" as="geometry" />
        </mxCell>
        <mxCell id="pz5CJEBABPtMnbNcCvbR-223" value="+ confirmationPage()" style="text;strokeColor=none;fillColor=none;align=left;verticalAlign=top;spacingLeft=4;spacingRight=4;overflow=hidden;rotatable=0;points=[[0,0.5],[1,0.5]];portConstraint=eastwest;whiteSpace=wrap;html=1;" parent="pz5CJEBABPtMnbNcCvbR-220" vertex="1">
          <mxGeometry y="48" width="190" height="32" as="geometry" />
        </mxCell>
        <mxCell id="pz5CJEBABPtMnbNcCvbR-251" value="&amp;lt;&amp;lt;boundary&amp;gt;&amp;gt;&lt;br style=&quot;border-color: var(--border-color); font-weight: 400;&quot;&gt;SeatPage" style="swimlane;fontStyle=1;align=center;verticalAlign=top;childLayout=stackLayout;horizontal=1;startSize=40;horizontalStack=0;resizeParent=1;resizeParentMax=0;resizeLast=0;collapsible=1;marginBottom=0;whiteSpace=wrap;html=1;" parent="pz5CJEBABPtMnbNcCvbR-7" vertex="1">
          <mxGeometry x="20" y="1230" width="190" height="180" as="geometry" />
        </mxCell>
        <mxCell id="pz5CJEBABPtMnbNcCvbR-252" value="- checkoutFlightID: String&lt;br&gt;- numGuests: Number&lt;br&gt;- setCheckoutCosts: any&lt;br&gt;- setCheckoutSeats: any&lt;br&gt;- setCheckoutInsurnace: any" style="text;strokeColor=none;fillColor=none;align=left;verticalAlign=top;spacingLeft=4;spacingRight=4;overflow=hidden;rotatable=0;points=[[0,0.5],[1,0.5]];portConstraint=eastwest;whiteSpace=wrap;html=1;" parent="pz5CJEBABPtMnbNcCvbR-251" vertex="1">
          <mxGeometry y="40" width="190" height="80" as="geometry" />
        </mxCell>
        <mxCell id="pz5CJEBABPtMnbNcCvbR-253" value="" style="line;strokeWidth=1;fillColor=none;align=left;verticalAlign=middle;spacingTop=-1;spacingLeft=3;spacingRight=3;rotatable=0;labelPosition=right;points=[];portConstraint=eastwest;strokeColor=inherit;" parent="pz5CJEBABPtMnbNcCvbR-251" vertex="1">
          <mxGeometry y="120" width="190" height="8" as="geometry" />
        </mxCell>
        <mxCell id="pz5CJEBABPtMnbNcCvbR-254" value="+ seatHandleChange()&lt;br&gt;+ nextButtonHandleChange&lt;br&gt;+ insuranceHandleChange&lt;br&gt;" style="text;strokeColor=none;fillColor=none;align=left;verticalAlign=top;spacingLeft=4;spacingRight=4;overflow=hidden;rotatable=0;points=[[0,0.5],[1,0.5]];portConstraint=eastwest;whiteSpace=wrap;html=1;" parent="pz5CJEBABPtMnbNcCvbR-251" vertex="1">
          <mxGeometry y="128" width="190" height="52" as="geometry" />
        </mxCell>
        <mxCell id="pz5CJEBABPtMnbNcCvbR-261" value="&amp;lt;&amp;lt;boundary&amp;gt;&amp;gt;&lt;br style=&quot;border-color: var(--border-color); font-weight: 400;&quot;&gt;PaymentHistoryPage" style="swimlane;fontStyle=1;align=center;verticalAlign=top;childLayout=stackLayout;horizontal=1;startSize=40;horizontalStack=0;resizeParent=1;resizeParentMax=0;resizeLast=0;collapsible=1;marginBottom=0;whiteSpace=wrap;html=1;" parent="pz5CJEBABPtMnbNcCvbR-7" vertex="1">
          <mxGeometry x="20" y="1430" width="190" height="110" as="geometry" />
        </mxCell>
        <mxCell id="pz5CJEBABPtMnbNcCvbR-262" value="- currentUser: CurrentUserContext" style="text;strokeColor=none;fillColor=none;align=left;verticalAlign=top;spacingLeft=4;spacingRight=4;overflow=hidden;rotatable=0;points=[[0,0.5],[1,0.5]];portConstraint=eastwest;whiteSpace=wrap;html=1;" parent="pz5CJEBABPtMnbNcCvbR-261" vertex="1">
          <mxGeometry y="40" width="190" height="40" as="geometry" />
        </mxCell>
        <mxCell id="pz5CJEBABPtMnbNcCvbR-263" value="" style="line;strokeWidth=1;fillColor=none;align=left;verticalAlign=middle;spacingTop=-1;spacingLeft=3;spacingRight=3;rotatable=0;labelPosition=right;points=[];portConstraint=eastwest;strokeColor=inherit;" parent="pz5CJEBABPtMnbNcCvbR-261" vertex="1">
          <mxGeometry y="80" width="190" height="8" as="geometry" />
        </mxCell>
        <mxCell id="pz5CJEBABPtMnbNcCvbR-264" value="+ useEffect()" style="text;strokeColor=none;fillColor=none;align=left;verticalAlign=top;spacingLeft=4;spacingRight=4;overflow=hidden;rotatable=0;points=[[0,0.5],[1,0.5]];portConstraint=eastwest;whiteSpace=wrap;html=1;" parent="pz5CJEBABPtMnbNcCvbR-261" vertex="1">
          <mxGeometry y="88" width="190" height="22" as="geometry" />
        </mxCell>
        <mxCell id="pz5CJEBABPtMnbNcCvbR-289" value="&amp;lt;&amp;lt;boundary&amp;gt;&amp;gt;&lt;br style=&quot;border-color: var(--border-color); font-weight: 400;&quot;&gt;SearchPage" style="swimlane;fontStyle=1;align=center;verticalAlign=top;childLayout=stackLayout;horizontal=1;startSize=40;horizontalStack=0;resizeParent=1;resizeParentMax=0;resizeLast=0;collapsible=1;marginBottom=0;whiteSpace=wrap;html=1;" parent="pz5CJEBABPtMnbNcCvbR-7" vertex="1">
          <mxGeometry x="20" y="1560" width="190" height="140" as="geometry" />
        </mxCell>
        <mxCell id="pz5CJEBABPtMnbNcCvbR-290" value="- setOrigin: any&lt;br&gt;- setDestination: any&lt;br&gt;- setDate: any&lt;br&gt;- setGuests: any" style="text;strokeColor=none;fillColor=none;align=left;verticalAlign=top;spacingLeft=4;spacingRight=4;overflow=hidden;rotatable=0;points=[[0,0.5],[1,0.5]];portConstraint=eastwest;whiteSpace=wrap;html=1;" parent="pz5CJEBABPtMnbNcCvbR-289" vertex="1">
          <mxGeometry y="40" width="190" height="70" as="geometry" />
        </mxCell>
        <mxCell id="pz5CJEBABPtMnbNcCvbR-291" value="" style="line;strokeWidth=1;fillColor=none;align=left;verticalAlign=middle;spacingTop=-1;spacingLeft=3;spacingRight=3;rotatable=0;labelPosition=right;points=[];portConstraint=eastwest;strokeColor=inherit;" parent="pz5CJEBABPtMnbNcCvbR-289" vertex="1">
          <mxGeometry y="110" width="190" height="8" as="geometry" />
        </mxCell>
        <mxCell id="pz5CJEBABPtMnbNcCvbR-292" value="+ searchHandleChange()" style="text;strokeColor=none;fillColor=none;align=left;verticalAlign=top;spacingLeft=4;spacingRight=4;overflow=hidden;rotatable=0;points=[[0,0.5],[1,0.5]];portConstraint=eastwest;whiteSpace=wrap;html=1;" parent="pz5CJEBABPtMnbNcCvbR-289" vertex="1">
          <mxGeometry y="118" width="190" height="22" as="geometry" />
        </mxCell>
        <mxCell id="pz5CJEBABPtMnbNcCvbR-172" value="&amp;lt;&amp;lt;boundary&amp;gt;&amp;gt;&lt;br style=&quot;border-color: var(--border-color); font-weight: 400;&quot;&gt;LoginPage" style="swimlane;fontStyle=1;align=center;verticalAlign=top;childLayout=stackLayout;horizontal=1;startSize=40;horizontalStack=0;resizeParent=1;resizeParentMax=0;resizeLast=0;collapsible=1;marginBottom=0;whiteSpace=wrap;html=1;" parent="pz5CJEBABPtMnbNcCvbR-7" vertex="1">
          <mxGeometry x="20" y="390" width="190" height="140" as="geometry" />
        </mxCell>
        <mxCell id="pz5CJEBABPtMnbNcCvbR-173" value="- currentUser: CurrentUserContext&lt;br&gt;- useHistory(): userID: Number, roles: Roles" style="text;strokeColor=none;fillColor=none;align=left;verticalAlign=top;spacingLeft=4;spacingRight=4;overflow=hidden;rotatable=0;points=[[0,0.5],[1,0.5]];portConstraint=eastwest;whiteSpace=wrap;html=1;" parent="pz5CJEBABPtMnbNcCvbR-172" vertex="1">
          <mxGeometry y="40" width="190" height="70" as="geometry" />
        </mxCell>
        <mxCell id="pz5CJEBABPtMnbNcCvbR-174" value="" style="line;strokeWidth=1;fillColor=none;align=left;verticalAlign=middle;spacingTop=-1;spacingLeft=3;spacingRight=3;rotatable=0;labelPosition=right;points=[];portConstraint=eastwest;strokeColor=inherit;" parent="pz5CJEBABPtMnbNcCvbR-172" vertex="1">
          <mxGeometry y="110" width="190" height="8" as="geometry" />
        </mxCell>
        <mxCell id="pz5CJEBABPtMnbNcCvbR-175" value="+ attemptLogin()" style="text;strokeColor=none;fillColor=none;align=left;verticalAlign=top;spacingLeft=4;spacingRight=4;overflow=hidden;rotatable=0;points=[[0,0.5],[1,0.5]];portConstraint=eastwest;whiteSpace=wrap;html=1;" parent="pz5CJEBABPtMnbNcCvbR-172" vertex="1">
          <mxGeometry y="118" width="190" height="22" as="geometry" />
        </mxCell>
        <mxCell id="pz5CJEBABPtMnbNcCvbR-233" style="edgeStyle=orthogonalEdgeStyle;rounded=0;orthogonalLoop=1;jettySize=auto;html=1;startArrow=none;startFill=0;endArrow=none;endFill=0;jumpStyle=arc;jumpSize=10;exitX=1.015;exitY=0.194;exitDx=0;exitDy=0;exitPerimeter=0;entryX=0;entryY=0.5;entryDx=0;entryDy=0;" parent="pz5CJEBABPtMnbNcCvbR-7" edge="1">
          <mxGeometry relative="1" as="geometry">
            <Array as="points">
              <mxPoint x="210" y="280" />
              <mxPoint x="817" y="280" />
              <mxPoint x="817" y="900" />
            </Array>
            <mxPoint x="209.99999999999991" y="283.5799999999999" as="sourcePoint" />
            <mxPoint x="914.65" y="900" as="targetPoint" />
          </mxGeometry>
        </mxCell>
        <mxCell id="pz5CJEBABPtMnbNcCvbR-386" value="&amp;lt;&amp;lt;boundary&amp;gt;&amp;gt;&lt;br&gt;CrewView" style="swimlane;fontStyle=1;align=center;verticalAlign=top;childLayout=stackLayout;horizontal=1;startSize=32;horizontalStack=0;resizeParent=1;resizeParentMax=0;resizeLast=0;collapsible=1;marginBottom=0;whiteSpace=wrap;html=1;fontFamily=Helvetica;fontSize=11;fontColor=default;" parent="pz5CJEBABPtMnbNcCvbR-7" vertex="1">
          <mxGeometry x="280" y="116" width="160" height="88" as="geometry" />
        </mxCell>
        <mxCell id="pz5CJEBABPtMnbNcCvbR-387" value="    - userID: int&lt;br&gt;&amp;nbsp;- flightID: int&lt;br&gt;&amp;nbsp;- name: String" style="text;strokeColor=none;fillColor=none;align=left;verticalAlign=top;spacingLeft=4;spacingRight=4;overflow=hidden;rotatable=0;points=[[0,0.5],[1,0.5]];portConstraint=eastwest;whiteSpace=wrap;html=1;fontSize=11;fontFamily=Helvetica;fontColor=default;" parent="pz5CJEBABPtMnbNcCvbR-386" vertex="1">
          <mxGeometry y="32" width="160" height="48" as="geometry" />
        </mxCell>
        <mxCell id="pz5CJEBABPtMnbNcCvbR-388" value="" style="line;strokeWidth=1;fillColor=none;align=left;verticalAlign=middle;spacingTop=-1;spacingLeft=3;spacingRight=3;rotatable=0;labelPosition=right;points=[];portConstraint=eastwest;strokeColor=inherit;fontFamily=Helvetica;fontSize=11;fontColor=default;" parent="pz5CJEBABPtMnbNcCvbR-386" vertex="1">
          <mxGeometry y="80" width="160" height="8" as="geometry" />
        </mxCell>
        <mxCell id="pz5CJEBABPtMnbNcCvbR-394" value="&amp;lt;&amp;lt;boundary&amp;gt;&amp;gt;&lt;br&gt;UserView" style="swimlane;fontStyle=1;align=center;verticalAlign=top;childLayout=stackLayout;horizontal=1;startSize=32;horizontalStack=0;resizeParent=1;resizeParentMax=0;resizeLast=0;collapsible=1;marginBottom=0;whiteSpace=wrap;html=1;fontFamily=Helvetica;fontSize=11;fontColor=default;" parent="pz5CJEBABPtMnbNcCvbR-7" vertex="1">
          <mxGeometry x="270" y="1700" width="160" height="108" as="geometry" />
        </mxCell>
        <mxCell id="pz5CJEBABPtMnbNcCvbR-395" value="    - userID: int&lt;br/&gt;    - username: String&lt;br/&gt;    - Fname: String&lt;br/&gt;    - Lname: String&lt;br/&gt;    - card: boolean" style="text;strokeColor=none;fillColor=none;align=left;verticalAlign=top;spacingLeft=4;spacingRight=4;overflow=hidden;rotatable=0;points=[[0,0.5],[1,0.5]];portConstraint=eastwest;whiteSpace=wrap;html=1;fontSize=11;fontFamily=Helvetica;fontColor=default;" parent="pz5CJEBABPtMnbNcCvbR-394" vertex="1">
          <mxGeometry y="32" width="160" height="68" as="geometry" />
        </mxCell>
        <mxCell id="pz5CJEBABPtMnbNcCvbR-396" value="" style="line;strokeWidth=1;fillColor=none;align=left;verticalAlign=middle;spacingTop=-1;spacingLeft=3;spacingRight=3;rotatable=0;labelPosition=right;points=[];portConstraint=eastwest;strokeColor=inherit;fontFamily=Helvetica;fontSize=11;fontColor=default;" parent="pz5CJEBABPtMnbNcCvbR-394" vertex="1">
          <mxGeometry y="100" width="160" height="8" as="geometry" />
        </mxCell>
        <mxCell id="pz5CJEBABPtMnbNcCvbR-397" value="" style="endArrow=none;html=1;rounded=0;labelBackgroundColor=default;strokeColor=default;align=center;verticalAlign=middle;fontFamily=Helvetica;fontSize=11;fontColor=default;shape=connector;jumpStyle=arc;jumpSize=10;entryX=0.002;entryY=0.319;entryDx=0;entryDy=0;entryPerimeter=0;exitX=0.998;exitY=0.154;exitDx=0;exitDy=0;exitPerimeter=0;" parent="pz5CJEBABPtMnbNcCvbR-7" source="pz5CJEBABPtMnbNcCvbR-452" edge="1">
          <mxGeometry width="50" height="50" relative="1" as="geometry">
            <mxPoint x="210" y="1755.9999999999995" as="sourcePoint" />
            <mxPoint x="270.32000000000016" y="1780.002" as="targetPoint" />
            <Array as="points">
              <mxPoint x="210" y="1780" />
            </Array>
          </mxGeometry>
        </mxCell>
        <mxCell id="pz5CJEBABPtMnbNcCvbR-398" value="" style="endArrow=none;html=1;rounded=0;labelBackgroundColor=default;strokeColor=default;align=center;verticalAlign=middle;fontFamily=Helvetica;fontSize=11;fontColor=default;shape=connector;jumpStyle=arc;jumpSize=10;entryX=0.002;entryY=0.319;entryDx=0;entryDy=0;entryPerimeter=0;exitX=1.003;exitY=0.06;exitDx=0;exitDy=0;exitPerimeter=0;" parent="pz5CJEBABPtMnbNcCvbR-7" source="pz5CJEBABPtMnbNcCvbR-451" edge="1">
          <mxGeometry width="50" height="50" relative="1" as="geometry">
            <mxPoint x="210" y="1730" as="sourcePoint" />
            <mxPoint x="270" y="1730" as="targetPoint" />
          </mxGeometry>
        </mxCell>
        <mxCell id="pz5CJEBABPtMnbNcCvbR-400" value="" style="endArrow=none;html=1;rounded=0;edgeStyle=elbowEdgeStyle;exitX=0.146;exitY=0.159;exitDx=0;exitDy=0;exitPerimeter=0;entryX=-0.01;entryY=0.707;entryDx=0;entryDy=0;entryPerimeter=0;" parent="pz5CJEBABPtMnbNcCvbR-7" edge="1">
          <mxGeometry width="50" height="50" relative="1" as="geometry">
            <mxPoint x="209.3800000000001" y="202.76999999999998" as="sourcePoint" />
            <mxPoint x="270.3" y="1775.916" as="targetPoint" />
            <Array as="points">
              <mxPoint x="241.9" y="235.84" />
            </Array>
          </mxGeometry>
        </mxCell>
        <mxCell id="pz5CJEBABPtMnbNcCvbR-401" value="&amp;lt;&amp;lt;boundary&amp;gt;&amp;gt;&lt;br&gt;SeatView" style="swimlane;fontStyle=1;align=center;verticalAlign=top;childLayout=stackLayout;horizontal=1;startSize=32;horizontalStack=0;resizeParent=1;resizeParentMax=0;resizeLast=0;collapsible=1;marginBottom=0;whiteSpace=wrap;html=1;fontFamily=Helvetica;fontSize=11;fontColor=default;" parent="pz5CJEBABPtMnbNcCvbR-7" vertex="1">
          <mxGeometry x="280" y="1260" width="160" height="108" as="geometry" />
        </mxCell>
        <mxCell id="pz5CJEBABPtMnbNcCvbR-402" value="    - userID: int&lt;br/&gt;    - username: String&lt;br/&gt;    - Fname: String&lt;br/&gt;    - Lname: String&lt;br/&gt;    - card: boolean" style="text;strokeColor=none;fillColor=none;align=left;verticalAlign=top;spacingLeft=4;spacingRight=4;overflow=hidden;rotatable=0;points=[[0,0.5],[1,0.5]];portConstraint=eastwest;whiteSpace=wrap;html=1;fontSize=11;fontFamily=Helvetica;fontColor=default;" parent="pz5CJEBABPtMnbNcCvbR-401" vertex="1">
          <mxGeometry y="32" width="160" height="68" as="geometry" />
        </mxCell>
        <mxCell id="pz5CJEBABPtMnbNcCvbR-403" value="" style="line;strokeWidth=1;fillColor=none;align=left;verticalAlign=middle;spacingTop=-1;spacingLeft=3;spacingRight=3;rotatable=0;labelPosition=right;points=[];portConstraint=eastwest;strokeColor=inherit;fontFamily=Helvetica;fontSize=11;fontColor=default;" parent="pz5CJEBABPtMnbNcCvbR-401" vertex="1">
          <mxGeometry y="100" width="160" height="8" as="geometry" />
        </mxCell>
        <mxCell id="pz5CJEBABPtMnbNcCvbR-405" style="edgeStyle=orthogonalEdgeStyle;rounded=0;orthogonalLoop=1;jettySize=auto;html=1;startArrow=none;startFill=0;endArrow=none;endFill=0;jumpStyle=arc;jumpSize=10;" parent="pz5CJEBABPtMnbNcCvbR-7" edge="1">
          <mxGeometry relative="1" as="geometry">
            <Array as="points">
              <mxPoint x="214" y="1300" />
              <mxPoint x="277" y="1300" />
            </Array>
            <mxPoint x="210" y="1300" as="sourcePoint" />
            <mxPoint x="280" y="1300" as="targetPoint" />
          </mxGeometry>
        </mxCell>
        <mxCell id="pz5CJEBABPtMnbNcCvbR-411" value="&amp;lt;&amp;lt;boundary&amp;gt;&amp;gt;&lt;br&gt;LoginView" style="swimlane;fontStyle=1;align=center;verticalAlign=top;childLayout=stackLayout;horizontal=1;startSize=32;horizontalStack=0;resizeParent=1;resizeParentMax=0;resizeLast=0;collapsible=1;marginBottom=0;whiteSpace=wrap;html=1;fontFamily=Helvetica;fontSize=11;fontColor=default;" parent="pz5CJEBABPtMnbNcCvbR-7" vertex="1">
          <mxGeometry x="270" y="400" width="160" height="78" as="geometry" />
        </mxCell>
        <mxCell id="pz5CJEBABPtMnbNcCvbR-412" value="   - userID: int&lt;br&gt;- roleID: int" style="text;strokeColor=none;fillColor=none;align=left;verticalAlign=top;spacingLeft=4;spacingRight=4;overflow=hidden;rotatable=0;points=[[0,0.5],[1,0.5]];portConstraint=eastwest;whiteSpace=wrap;html=1;fontSize=11;fontFamily=Helvetica;fontColor=default;" parent="pz5CJEBABPtMnbNcCvbR-411" vertex="1">
          <mxGeometry y="32" width="160" height="38" as="geometry" />
        </mxCell>
        <mxCell id="pz5CJEBABPtMnbNcCvbR-413" value="" style="line;strokeWidth=1;fillColor=none;align=left;verticalAlign=middle;spacingTop=-1;spacingLeft=3;spacingRight=3;rotatable=0;labelPosition=right;points=[];portConstraint=eastwest;strokeColor=inherit;fontFamily=Helvetica;fontSize=11;fontColor=default;" parent="pz5CJEBABPtMnbNcCvbR-411" vertex="1">
          <mxGeometry y="70" width="160" height="8" as="geometry" />
        </mxCell>
        <mxCell id="pz5CJEBABPtMnbNcCvbR-414" value="" style="endArrow=none;html=1;rounded=0;labelBackgroundColor=default;strokeColor=default;align=center;verticalAlign=middle;fontFamily=Helvetica;fontSize=11;fontColor=default;shape=connector;jumpStyle=arc;jumpSize=10;exitX=1.004;exitY=0.202;exitDx=0;exitDy=0;exitPerimeter=0;" parent="pz5CJEBABPtMnbNcCvbR-7" source="pz5CJEBABPtMnbNcCvbR-173" edge="1">
          <mxGeometry width="50" height="50" relative="1" as="geometry">
            <mxPoint x="300" y="590" as="sourcePoint" />
            <mxPoint x="270" y="444" as="targetPoint" />
          </mxGeometry>
        </mxCell>
        <mxCell id="pz5CJEBABPtMnbNcCvbR-417" value="&amp;lt;&amp;lt;boundary&amp;gt;&amp;gt;&lt;br&gt;PaymentView" style="swimlane;fontStyle=1;align=center;verticalAlign=top;childLayout=stackLayout;horizontal=1;startSize=32;horizontalStack=0;resizeParent=1;resizeParentMax=0;resizeLast=0;collapsible=1;marginBottom=0;whiteSpace=wrap;html=1;fontFamily=Helvetica;fontSize=11;fontColor=default;" parent="pz5CJEBABPtMnbNcCvbR-7" vertex="1">
          <mxGeometry x="270" y="1441" width="160" height="88" as="geometry" />
        </mxCell>
        <mxCell id="pz5CJEBABPtMnbNcCvbR-418" value="    - userID: int&lt;br&gt;&amp;nbsp;- payDate: String&lt;br&gt;&amp;nbsp;- amount: float" style="text;strokeColor=none;fillColor=none;align=left;verticalAlign=top;spacingLeft=4;spacingRight=4;overflow=hidden;rotatable=0;points=[[0,0.5],[1,0.5]];portConstraint=eastwest;whiteSpace=wrap;html=1;fontSize=11;fontFamily=Helvetica;fontColor=default;" parent="pz5CJEBABPtMnbNcCvbR-417" vertex="1">
          <mxGeometry y="32" width="160" height="48" as="geometry" />
        </mxCell>
        <mxCell id="pz5CJEBABPtMnbNcCvbR-419" value="" style="line;strokeWidth=1;fillColor=none;align=left;verticalAlign=middle;spacingTop=-1;spacingLeft=3;spacingRight=3;rotatable=0;labelPosition=right;points=[];portConstraint=eastwest;strokeColor=inherit;fontFamily=Helvetica;fontSize=11;fontColor=default;" parent="pz5CJEBABPtMnbNcCvbR-417" vertex="1">
          <mxGeometry y="80" width="160" height="8" as="geometry" />
        </mxCell>
        <mxCell id="pz5CJEBABPtMnbNcCvbR-420" value="" style="endArrow=none;html=1;rounded=0;labelBackgroundColor=default;strokeColor=default;align=center;verticalAlign=middle;fontFamily=Helvetica;fontSize=11;fontColor=default;shape=connector;jumpStyle=arc;jumpSize=10;exitX=0.072;exitY=0.899;exitDx=0;exitDy=0;exitPerimeter=0;entryX=-0.014;entryY=0.291;entryDx=0;entryDy=0;entryPerimeter=0;" parent="pz5CJEBABPtMnbNcCvbR-7" target="pz5CJEBABPtMnbNcCvbR-418" edge="1">
          <mxGeometry width="50" height="50" relative="1" as="geometry">
            <mxPoint x="212.15999999999985" y="1486.9700000000003" as="sourcePoint" />
            <mxPoint x="330" y="1380" as="targetPoint" />
          </mxGeometry>
        </mxCell>
        <mxCell id="pz5CJEBABPtMnbNcCvbR-425" value="&amp;lt;&amp;lt;boundary&amp;gt;&amp;gt;&lt;br style=&quot;border-color: var(--border-color); font-weight: 400;&quot;&gt;RegisterView" style="swimlane;fontStyle=1;align=center;verticalAlign=top;childLayout=stackLayout;horizontal=1;startSize=40;horizontalStack=0;resizeParent=1;resizeParentMax=0;resizeLast=0;collapsible=1;marginBottom=0;whiteSpace=wrap;html=1;" parent="pz5CJEBABPtMnbNcCvbR-7" vertex="1">
          <mxGeometry x="255" y="1840" width="190" height="148" as="geometry" />
        </mxCell>
        <mxCell id="pz5CJEBABPtMnbNcCvbR-426" value="    - username: string&amp;nbsp;&lt;br&gt;- password: string&lt;br&gt;- fname: string&lt;br&gt;- lname: string&lt;br&gt;- address: string&lt;br&gt;- card: boolean" style="text;strokeColor=none;fillColor=none;align=left;verticalAlign=top;spacingLeft=4;spacingRight=4;overflow=hidden;rotatable=0;points=[[0,0.5],[1,0.5]];portConstraint=eastwest;whiteSpace=wrap;html=1;" parent="pz5CJEBABPtMnbNcCvbR-425" vertex="1">
          <mxGeometry y="40" width="190" height="100" as="geometry" />
        </mxCell>
        <mxCell id="pz5CJEBABPtMnbNcCvbR-427" value="" style="line;strokeWidth=1;fillColor=none;align=left;verticalAlign=middle;spacingTop=-1;spacingLeft=3;spacingRight=3;rotatable=0;labelPosition=right;points=[];portConstraint=eastwest;strokeColor=inherit;" parent="pz5CJEBABPtMnbNcCvbR-425" vertex="1">
          <mxGeometry y="140" width="190" height="8" as="geometry" />
        </mxCell>
        <mxCell id="pz5CJEBABPtMnbNcCvbR-437" value="" style="endArrow=none;html=1;rounded=0;labelBackgroundColor=default;strokeColor=default;align=center;verticalAlign=middle;fontFamily=Helvetica;fontSize=11;fontColor=default;shape=connector;jumpStyle=arc;jumpSize=10;exitX=0.986;exitY=0.208;exitDx=0;exitDy=0;exitPerimeter=0;entryX=0;entryY=0.25;entryDx=0;entryDy=0;" parent="pz5CJEBABPtMnbNcCvbR-7" source="pz5CJEBABPtMnbNcCvbR-147" target="pz5CJEBABPtMnbNcCvbR-386" edge="1">
          <mxGeometry width="50" height="50" relative="1" as="geometry">
            <mxPoint x="220" y="190" as="sourcePoint" />
            <mxPoint x="270" y="140" as="targetPoint" />
          </mxGeometry>
        </mxCell>
        <mxCell id="pz5CJEBABPtMnbNcCvbR-438" value="&amp;lt;&amp;lt;boundary&amp;gt;&amp;gt;&lt;br&gt;AircraftView" style="swimlane;fontStyle=1;align=center;verticalAlign=top;childLayout=stackLayout;horizontal=1;startSize=32;horizontalStack=0;resizeParent=1;resizeParentMax=0;resizeLast=0;collapsible=1;marginBottom=0;whiteSpace=wrap;html=1;fontFamily=Helvetica;fontSize=11;fontColor=default;" parent="pz5CJEBABPtMnbNcCvbR-7" vertex="1">
          <mxGeometry x="460" y="170" width="130" height="108" as="geometry" />
        </mxCell>
        <mxCell id="pz5CJEBABPtMnbNcCvbR-439" value="   - aircraftID: number&lt;br/&gt;    - model: string&lt;br/&gt;    - numCols: number&lt;br/&gt;    - numRows: number" style="text;strokeColor=none;fillColor=none;align=left;verticalAlign=top;spacingLeft=4;spacingRight=4;overflow=hidden;rotatable=0;points=[[0,0.5],[1,0.5]];portConstraint=eastwest;whiteSpace=wrap;html=1;fontSize=11;fontFamily=Helvetica;fontColor=default;" parent="pz5CJEBABPtMnbNcCvbR-438" vertex="1">
          <mxGeometry y="32" width="130" height="68" as="geometry" />
        </mxCell>
        <mxCell id="pz5CJEBABPtMnbNcCvbR-440" value="" style="line;strokeWidth=1;fillColor=none;align=left;verticalAlign=middle;spacingTop=-1;spacingLeft=3;spacingRight=3;rotatable=0;labelPosition=right;points=[];portConstraint=eastwest;strokeColor=inherit;fontFamily=Helvetica;fontSize=11;fontColor=default;" parent="pz5CJEBABPtMnbNcCvbR-438" vertex="1">
          <mxGeometry y="100" width="130" height="8" as="geometry" />
        </mxCell>
        <mxCell id="pz5CJEBABPtMnbNcCvbR-442" value="" style="endArrow=none;html=1;rounded=0;edgeStyle=elbowEdgeStyle;exitX=0.982;exitY=0.598;exitDx=0;exitDy=0;exitPerimeter=0;entryX=0.033;entryY=0.214;entryDx=0;entryDy=0;entryPerimeter=0;" parent="pz5CJEBABPtMnbNcCvbR-7" source="pz5CJEBABPtMnbNcCvbR-147" target="pz5CJEBABPtMnbNcCvbR-439" edge="1">
          <mxGeometry width="50" height="50" relative="1" as="geometry">
            <mxPoint x="250" y="220" as="sourcePoint" />
            <mxPoint x="430" y="240" as="targetPoint" />
            <Array as="points">
              <mxPoint x="260" y="230" />
            </Array>
          </mxGeometry>
        </mxCell>
        <mxCell id="pz5CJEBABPtMnbNcCvbR-443" value="&amp;lt;&amp;lt;boundary&amp;gt;&amp;gt;&lt;br style=&quot;border-color: var(--border-color); font-weight: 400;&quot;&gt;BookingPage" style="swimlane;fontStyle=1;align=center;verticalAlign=top;childLayout=stackLayout;horizontal=1;startSize=40;horizontalStack=0;resizeParent=1;resizeParentMax=0;resizeLast=0;collapsible=1;marginBottom=0;whiteSpace=wrap;html=1;" parent="pz5CJEBABPtMnbNcCvbR-7" vertex="1">
          <mxGeometry x="15" y="2080" width="190" height="48" as="geometry" />
        </mxCell>
        <mxCell id="pz5CJEBABPtMnbNcCvbR-444" value="" style="line;strokeWidth=1;fillColor=none;align=left;verticalAlign=middle;spacingTop=-1;spacingLeft=3;spacingRight=3;rotatable=0;labelPosition=right;points=[];portConstraint=eastwest;strokeColor=inherit;" parent="pz5CJEBABPtMnbNcCvbR-443" vertex="1">
          <mxGeometry y="40" width="190" height="8" as="geometry" />
        </mxCell>
        <mxCell id="pz5CJEBABPtMnbNcCvbR-447" value="&amp;lt;&amp;lt;boundary&amp;gt;&amp;gt;&lt;br style=&quot;border-color: var(--border-color); font-weight: 400;&quot;&gt;BookingView" style="swimlane;fontStyle=1;align=center;verticalAlign=top;childLayout=stackLayout;horizontal=1;startSize=40;horizontalStack=0;resizeParent=1;resizeParentMax=0;resizeLast=0;collapsible=1;marginBottom=0;whiteSpace=wrap;html=1;" parent="pz5CJEBABPtMnbNcCvbR-7" vertex="1">
          <mxGeometry x="240" y="2020" width="190" height="158" as="geometry" />
        </mxCell>
        <mxCell id="pz5CJEBABPtMnbNcCvbR-448" value="    - ticketId: number&lt;br/&gt;    - code: string&lt;br/&gt;    - origin: string&lt;br/&gt;    - destination: string&lt;br/&gt;    - date: string&lt;br/&gt;    - seatNumber: string&lt;br/&gt;    - name: string&lt;br/&gt;    - insurance: boolean" style="text;strokeColor=none;fillColor=none;align=left;verticalAlign=top;spacingLeft=4;spacingRight=4;overflow=hidden;rotatable=0;points=[[0,0.5],[1,0.5]];portConstraint=eastwest;whiteSpace=wrap;html=1;" parent="pz5CJEBABPtMnbNcCvbR-447" vertex="1">
          <mxGeometry y="40" width="190" height="110" as="geometry" />
        </mxCell>
        <mxCell id="pz5CJEBABPtMnbNcCvbR-449" value="" style="line;strokeWidth=1;fillColor=none;align=left;verticalAlign=middle;spacingTop=-1;spacingLeft=3;spacingRight=3;rotatable=0;labelPosition=right;points=[];portConstraint=eastwest;strokeColor=inherit;" parent="pz5CJEBABPtMnbNcCvbR-447" vertex="1">
          <mxGeometry y="150" width="190" height="8" as="geometry" />
        </mxCell>
        <mxCell id="pz5CJEBABPtMnbNcCvbR-446" value="" style="edgeStyle=orthogonalEdgeStyle;shape=connector;rounded=0;jumpStyle=arc;jumpSize=10;orthogonalLoop=1;jettySize=auto;html=1;labelBackgroundColor=default;strokeColor=default;align=center;verticalAlign=middle;fontFamily=Helvetica;fontSize=11;fontColor=default;startArrow=none;startFill=0;endArrow=none;endFill=0;entryX=0.5;entryY=1;entryDx=0;entryDy=0;exitX=-0.007;exitY=0.573;exitDx=0;exitDy=0;exitPerimeter=0;" parent="pz5CJEBABPtMnbNcCvbR-7" source="pz5CJEBABPtMnbNcCvbR-448" target="pz5CJEBABPtMnbNcCvbR-443" edge="1">
          <mxGeometry relative="1" as="geometry">
            <mxPoint x="115" y="1960" as="sourcePoint" />
            <mxPoint x="220" y="1824" as="targetPoint" />
            <Array as="points">
              <mxPoint x="220" y="2123" />
              <mxPoint x="220" y="2140" />
              <mxPoint x="110" y="2140" />
            </Array>
          </mxGeometry>
        </mxCell>
        <mxCell id="pz5CJEBABPtMnbNcCvbR-451" value="&amp;lt;&amp;lt;boundary&amp;gt;&amp;gt;&lt;br style=&quot;border-color: var(--border-color); font-weight: 400;&quot;&gt;UserPage" style="swimlane;fontStyle=1;align=center;verticalAlign=top;childLayout=stackLayout;horizontal=1;startSize=40;horizontalStack=0;resizeParent=1;resizeParentMax=0;resizeLast=0;collapsible=1;marginBottom=0;whiteSpace=wrap;html=1;" parent="pz5CJEBABPtMnbNcCvbR-7" vertex="1">
          <mxGeometry x="15" y="1720" width="190" height="178" as="geometry" />
        </mxCell>
        <mxCell id="pz5CJEBABPtMnbNcCvbR-452" value="    - userID: number&lt;br/&gt;    - username: string&lt;br/&gt;    - password: string&lt;br/&gt;    - roleID: number&lt;br/&gt;    - card: boolean&lt;br/&gt;    - fname: string&lt;br/&gt;    - lname: string&lt;br/&gt;    - address: string" style="text;strokeColor=none;fillColor=none;align=left;verticalAlign=top;spacingLeft=4;spacingRight=4;overflow=hidden;rotatable=0;points=[[0,0.5],[1,0.5]];portConstraint=eastwest;whiteSpace=wrap;html=1;" parent="pz5CJEBABPtMnbNcCvbR-451" vertex="1">
          <mxGeometry y="40" width="190" height="130" as="geometry" />
        </mxCell>
        <mxCell id="pz5CJEBABPtMnbNcCvbR-453" value="" style="line;strokeWidth=1;fillColor=none;align=left;verticalAlign=middle;spacingTop=-1;spacingLeft=3;spacingRight=3;rotatable=0;labelPosition=right;points=[];portConstraint=eastwest;strokeColor=inherit;" parent="pz5CJEBABPtMnbNcCvbR-451" vertex="1">
          <mxGeometry y="170" width="190" height="8" as="geometry" />
        </mxCell>
        <mxCell id="pz5CJEBABPtMnbNcCvbR-457" value="&amp;lt;&amp;lt;boundary&amp;gt;&amp;gt;&lt;br&gt;PassengerView" style="swimlane;fontStyle=1;align=center;verticalAlign=top;childLayout=stackLayout;horizontal=1;startSize=32;horizontalStack=0;resizeParent=1;resizeParentMax=0;resizeLast=0;collapsible=1;marginBottom=0;whiteSpace=wrap;html=1;fontFamily=Helvetica;fontSize=11;fontColor=default;" parent="pz5CJEBABPtMnbNcCvbR-7" vertex="1">
          <mxGeometry x="280" y="1160" width="160" height="78" as="geometry" />
        </mxCell>
        <mxCell id="pz5CJEBABPtMnbNcCvbR-458" value="- name: String&lt;br&gt;- seatNumber: String" style="text;strokeColor=none;fillColor=none;align=left;verticalAlign=top;spacingLeft=4;spacingRight=4;overflow=hidden;rotatable=0;points=[[0,0.5],[1,0.5]];portConstraint=eastwest;whiteSpace=wrap;html=1;fontSize=11;fontFamily=Helvetica;fontColor=default;" parent="pz5CJEBABPtMnbNcCvbR-457" vertex="1">
          <mxGeometry y="32" width="160" height="38" as="geometry" />
        </mxCell>
        <mxCell id="pz5CJEBABPtMnbNcCvbR-459" value="" style="line;strokeWidth=1;fillColor=none;align=left;verticalAlign=middle;spacingTop=-1;spacingLeft=3;spacingRight=3;rotatable=0;labelPosition=right;points=[];portConstraint=eastwest;strokeColor=inherit;fontFamily=Helvetica;fontSize=11;fontColor=default;" parent="pz5CJEBABPtMnbNcCvbR-457" vertex="1">
          <mxGeometry y="70" width="160" height="8" as="geometry" />
        </mxCell>
        <mxCell id="pz5CJEBABPtMnbNcCvbR-461" style="edgeStyle=orthogonalEdgeStyle;rounded=0;orthogonalLoop=1;jettySize=auto;html=1;startArrow=none;startFill=0;endArrow=none;endFill=0;jumpStyle=arc;jumpSize=10;entryX=0;entryY=0.5;entryDx=0;entryDy=0;exitX=1;exitY=-0.021;exitDx=0;exitDy=0;exitPerimeter=0;" parent="pz5CJEBABPtMnbNcCvbR-7" source="pz5CJEBABPtMnbNcCvbR-252" target="pz5CJEBABPtMnbNcCvbR-457" edge="1">
          <mxGeometry relative="1" as="geometry">
            <Array as="points">
              <mxPoint x="210" y="1270" />
              <mxPoint x="260" y="1270" />
              <mxPoint x="260" y="1200" />
              <mxPoint x="280" y="1200" />
            </Array>
            <mxPoint x="230" y="1270" as="sourcePoint" />
            <mxPoint x="300" y="1200" as="targetPoint" />
          </mxGeometry>
        </mxCell>
        <mxCell id="pz5CJEBABPtMnbNcCvbR-214" style="edgeStyle=orthogonalEdgeStyle;rounded=0;orthogonalLoop=1;jettySize=auto;html=1;startArrow=none;startFill=0;endArrow=none;endFill=0;jumpStyle=arc;jumpSize=10;exitX=1;exitY=0.5;exitDx=0;exitDy=0;entryX=0;entryY=0.75;entryDx=0;entryDy=0;" parent="pz5CJEBABPtMnbNcCvbR-7" source="pz5CJEBABPtMnbNcCvbR-210" target="pz5CJEBABPtMnbNcCvbR-401" edge="1">
          <mxGeometry relative="1" as="geometry">
            <Array as="points">
              <mxPoint x="210" y="770" />
              <mxPoint x="230" y="770" />
              <mxPoint x="230" y="1341" />
            </Array>
            <mxPoint x="630" y="990" as="sourcePoint" />
            <mxPoint x="230" y="1340" as="targetPoint" />
          </mxGeometry>
        </mxCell>
        <mxCell id="pz5CJEBABPtMnbNcCvbR-463" value="&amp;lt;&amp;lt;boundary&amp;gt;&amp;gt;&lt;br&gt;TicketView" style="swimlane;fontStyle=1;align=center;verticalAlign=top;childLayout=stackLayout;horizontal=1;startSize=32;horizontalStack=0;resizeParent=1;resizeParentMax=0;resizeLast=0;collapsible=1;marginBottom=0;whiteSpace=wrap;html=1;fontFamily=Helvetica;fontSize=11;fontColor=default;" parent="pz5CJEBABPtMnbNcCvbR-7" vertex="1">
          <mxGeometry x="310" y="750" width="160" height="138" as="geometry" />
        </mxCell>
        <mxCell id="pz5CJEBABPtMnbNcCvbR-464" value="    - flightID: int&lt;br/&gt;    - userID: int&lt;br/&gt;    - seatID: int&lt;br/&gt;    - name: string&lt;br/&gt;    - email: string&lt;br/&gt;    - price: float&lt;br/&gt;    - insurance: boolean" style="text;strokeColor=none;fillColor=none;align=left;verticalAlign=top;spacingLeft=4;spacingRight=4;overflow=hidden;rotatable=0;points=[[0,0.5],[1,0.5]];portConstraint=eastwest;whiteSpace=wrap;html=1;fontSize=11;fontFamily=Helvetica;fontColor=default;" parent="pz5CJEBABPtMnbNcCvbR-463" vertex="1">
          <mxGeometry y="32" width="160" height="98" as="geometry" />
        </mxCell>
        <mxCell id="pz5CJEBABPtMnbNcCvbR-465" value="" style="line;strokeWidth=1;fillColor=none;align=left;verticalAlign=middle;spacingTop=-1;spacingLeft=3;spacingRight=3;rotatable=0;labelPosition=right;points=[];portConstraint=eastwest;strokeColor=inherit;fontFamily=Helvetica;fontSize=11;fontColor=default;" parent="pz5CJEBABPtMnbNcCvbR-463" vertex="1">
          <mxGeometry y="130" width="160" height="8" as="geometry" />
        </mxCell>
        <mxCell id="pz5CJEBABPtMnbNcCvbR-467" value="" style="endArrow=none;html=1;rounded=0;labelBackgroundColor=default;strokeColor=default;align=center;verticalAlign=middle;fontFamily=Helvetica;fontSize=11;fontColor=default;shape=connector;jumpStyle=arc;jumpSize=10;exitX=1;exitY=0.5;exitDx=0;exitDy=0;entryX=-0.006;entryY=0.067;entryDx=0;entryDy=0;entryPerimeter=0;" parent="pz5CJEBABPtMnbNcCvbR-7" source="pz5CJEBABPtMnbNcCvbR-210" target="pz5CJEBABPtMnbNcCvbR-463" edge="1">
          <mxGeometry width="50" height="50" relative="1" as="geometry">
            <mxPoint x="300" y="720" as="sourcePoint" />
            <mxPoint x="350" y="670" as="targetPoint" />
          </mxGeometry>
        </mxCell>
        <mxCell id="2lmXXK3-9pXa7GUDy6YS-2" value="" style="endArrow=none;html=1;rounded=0;labelBackgroundColor=default;strokeColor=default;align=center;verticalAlign=middle;fontFamily=Helvetica;fontSize=11;fontColor=default;shape=connector;jumpStyle=arc;jumpSize=10;entryX=0;entryY=0.25;entryDx=0;entryDy=0;" parent="pz5CJEBABPtMnbNcCvbR-7" target="pz5CJEBABPtMnbNcCvbR-411" edge="1">
          <mxGeometry width="50" height="50" relative="1" as="geometry">
            <mxPoint x="210" y="420" as="sourcePoint" />
            <mxPoint x="264" y="420" as="targetPoint" />
          </mxGeometry>
        </mxCell>
        <mxCell id="pz5CJEBABPtMnbNcCvbR-13" value="Controller" style="swimlane;whiteSpace=wrap;html=1;" parent="1" vertex="1">
          <mxGeometry x="330" y="-40" width="450" height="2240" as="geometry" />
        </mxCell>
        <mxCell id="pz5CJEBABPtMnbNcCvbR-140" value="&amp;lt;&amp;lt;control&amp;gt;&amp;gt;&lt;br&gt;AdminController" style="swimlane;fontStyle=1;align=center;verticalAlign=top;childLayout=stackLayout;horizontal=1;startSize=40;horizontalStack=0;resizeParent=1;resizeParentMax=0;resizeLast=0;collapsible=1;marginBottom=0;whiteSpace=wrap;html=1;" parent="pz5CJEBABPtMnbNcCvbR-13" vertex="1">
          <mxGeometry x="137.5" y="40" width="175" height="294" as="geometry" />
        </mxCell>
        <mxCell id="pz5CJEBABPtMnbNcCvbR-141" value="- adminService: AdminService&lt;br&gt;- emailService: EmailService" style="text;strokeColor=none;fillColor=none;align=left;verticalAlign=top;spacingLeft=4;spacingRight=4;overflow=hidden;rotatable=0;points=[[0,0.5],[1,0.5]];portConstraint=eastwest;whiteSpace=wrap;html=1;" parent="pz5CJEBABPtMnbNcCvbR-140" vertex="1">
          <mxGeometry y="40" width="175" height="34" as="geometry" />
        </mxCell>
        <mxCell id="pz5CJEBABPtMnbNcCvbR-142" value="" style="line;strokeWidth=1;fillColor=none;align=left;verticalAlign=middle;spacingTop=-1;spacingLeft=3;spacingRight=3;rotatable=0;labelPosition=right;points=[];portConstraint=eastwest;strokeColor=inherit;" parent="pz5CJEBABPtMnbNcCvbR-140" vertex="1">
          <mxGeometry y="74" width="175" height="8" as="geometry" />
        </mxCell>
        <mxCell id="pz5CJEBABPtMnbNcCvbR-143" value="+ addAircraft(aircraft: Aircraft: Aircraft&lt;br&gt;+ deleteAircraft(aircraftID: int) void&lt;br&gt;+ addCrewFlights(CrewView: crewFlights): void&lt;br&gt;+ deleteCrewFlights(userID: int, flightID: int): void&lt;br&gt;+ addFlight(flight: Flight): Flight&lt;br&gt;+ updateFlight(flight: Flight): void&lt;br&gt;+ deleteFlight(flightID: int): void" style="text;strokeColor=none;fillColor=none;align=left;verticalAlign=top;spacingLeft=4;spacingRight=4;overflow=hidden;rotatable=0;points=[[0,0.5],[1,0.5]];portConstraint=eastwest;whiteSpace=wrap;html=1;" parent="pz5CJEBABPtMnbNcCvbR-140" vertex="1">
          <mxGeometry y="82" width="175" height="212" as="geometry" />
        </mxCell>
        <mxCell id="pz5CJEBABPtMnbNcCvbR-165" value="&amp;lt;&amp;lt;control&amp;gt;&amp;gt;&lt;br&gt;FlightController" style="swimlane;fontStyle=1;align=center;verticalAlign=top;childLayout=stackLayout;horizontal=1;startSize=40;horizontalStack=0;resizeParent=1;resizeParentMax=0;resizeLast=0;collapsible=1;marginBottom=0;whiteSpace=wrap;html=1;" parent="pz5CJEBABPtMnbNcCvbR-13" vertex="1">
          <mxGeometry x="140" y="343" width="175" height="180" as="geometry" />
        </mxCell>
        <mxCell id="pz5CJEBABPtMnbNcCvbR-166" value="- flightService: FlightService" style="text;strokeColor=none;fillColor=none;align=left;verticalAlign=top;spacingLeft=4;spacingRight=4;overflow=hidden;rotatable=0;points=[[0,0.5],[1,0.5]];portConstraint=eastwest;whiteSpace=wrap;html=1;" parent="pz5CJEBABPtMnbNcCvbR-165" vertex="1">
          <mxGeometry y="40" width="175" height="20" as="geometry" />
        </mxCell>
        <mxCell id="pz5CJEBABPtMnbNcCvbR-167" value="" style="line;strokeWidth=1;fillColor=none;align=left;verticalAlign=middle;spacingTop=-1;spacingLeft=3;spacingRight=3;rotatable=0;labelPosition=right;points=[];portConstraint=eastwest;strokeColor=inherit;" parent="pz5CJEBABPtMnbNcCvbR-165" vertex="1">
          <mxGeometry y="60" width="175" height="8" as="geometry" />
        </mxCell>
        <mxCell id="pz5CJEBABPtMnbNcCvbR-168" value="+ getFlightsbyDateandDestination(date: String, origin: String, destination: String): List&lt;br&gt;+ getOriginandDestination (origin: String, destination: String): List&lt;br&gt;+ getAllFlights(): List" style="text;strokeColor=none;fillColor=none;align=left;verticalAlign=top;spacingLeft=4;spacingRight=4;overflow=hidden;rotatable=0;points=[[0,0.5],[1,0.5]];portConstraint=eastwest;whiteSpace=wrap;html=1;" parent="pz5CJEBABPtMnbNcCvbR-165" vertex="1">
          <mxGeometry y="68" width="175" height="112" as="geometry" />
        </mxCell>
        <mxCell id="pz5CJEBABPtMnbNcCvbR-176" value="&amp;lt;&amp;lt;control&amp;gt;&amp;gt;&lt;br&gt;LoginController" style="swimlane;fontStyle=1;align=center;verticalAlign=top;childLayout=stackLayout;horizontal=1;startSize=40;horizontalStack=0;resizeParent=1;resizeParentMax=0;resizeLast=0;collapsible=1;marginBottom=0;whiteSpace=wrap;html=1;" parent="pz5CJEBABPtMnbNcCvbR-13" vertex="1">
          <mxGeometry x="140" y="540" width="175" height="120" as="geometry" />
        </mxCell>
        <mxCell id="pz5CJEBABPtMnbNcCvbR-177" value="- loginService: LoginService" style="text;strokeColor=none;fillColor=none;align=left;verticalAlign=top;spacingLeft=4;spacingRight=4;overflow=hidden;rotatable=0;points=[[0,0.5],[1,0.5]];portConstraint=eastwest;whiteSpace=wrap;html=1;" parent="pz5CJEBABPtMnbNcCvbR-176" vertex="1">
          <mxGeometry y="40" width="175" height="20" as="geometry" />
        </mxCell>
        <mxCell id="pz5CJEBABPtMnbNcCvbR-178" value="" style="line;strokeWidth=1;fillColor=none;align=left;verticalAlign=middle;spacingTop=-1;spacingLeft=3;spacingRight=3;rotatable=0;labelPosition=right;points=[];portConstraint=eastwest;strokeColor=inherit;" parent="pz5CJEBABPtMnbNcCvbR-176" vertex="1">
          <mxGeometry y="60" width="175" height="8" as="geometry" />
        </mxCell>
        <mxCell id="pz5CJEBABPtMnbNcCvbR-179" value="+ authenticateUser(username: String, password: String): LoginView" style="text;strokeColor=none;fillColor=none;align=left;verticalAlign=top;spacingLeft=4;spacingRight=4;overflow=hidden;rotatable=0;points=[[0,0.5],[1,0.5]];portConstraint=eastwest;whiteSpace=wrap;html=1;" parent="pz5CJEBABPtMnbNcCvbR-176" vertex="1">
          <mxGeometry y="68" width="175" height="52" as="geometry" />
        </mxCell>
        <mxCell id="pz5CJEBABPtMnbNcCvbR-190" value="&amp;lt;&amp;lt;control&amp;gt;&amp;gt;&lt;br&gt;ManifestController" style="swimlane;fontStyle=1;align=center;verticalAlign=top;childLayout=stackLayout;horizontal=1;startSize=40;horizontalStack=0;resizeParent=1;resizeParentMax=0;resizeLast=0;collapsible=1;marginBottom=0;whiteSpace=wrap;html=1;" parent="pz5CJEBABPtMnbNcCvbR-13" vertex="1">
          <mxGeometry x="137.5" y="680" width="175" height="130" as="geometry" />
        </mxCell>
        <mxCell id="pz5CJEBABPtMnbNcCvbR-191" value="- manifestService: ManifestService" style="text;strokeColor=none;fillColor=none;align=left;verticalAlign=top;spacingLeft=4;spacingRight=4;overflow=hidden;rotatable=0;points=[[0,0.5],[1,0.5]];portConstraint=eastwest;whiteSpace=wrap;html=1;" parent="pz5CJEBABPtMnbNcCvbR-190" vertex="1">
          <mxGeometry y="40" width="175" height="40" as="geometry" />
        </mxCell>
        <mxCell id="pz5CJEBABPtMnbNcCvbR-192" value="" style="line;strokeWidth=1;fillColor=none;align=left;verticalAlign=middle;spacingTop=-1;spacingLeft=3;spacingRight=3;rotatable=0;labelPosition=right;points=[];portConstraint=eastwest;strokeColor=inherit;" parent="pz5CJEBABPtMnbNcCvbR-190" vertex="1">
          <mxGeometry y="80" width="175" height="10" as="geometry" />
        </mxCell>
        <mxCell id="pz5CJEBABPtMnbNcCvbR-193" value="+ getPassengerManifest(code: String, date: String): List" style="text;strokeColor=none;fillColor=none;align=left;verticalAlign=top;spacingLeft=4;spacingRight=4;overflow=hidden;rotatable=0;points=[[0,0.5],[1,0.5]];portConstraint=eastwest;whiteSpace=wrap;html=1;" parent="pz5CJEBABPtMnbNcCvbR-190" vertex="1">
          <mxGeometry y="90" width="175" height="40" as="geometry" />
        </mxCell>
        <mxCell id="pz5CJEBABPtMnbNcCvbR-228" value="&amp;lt;&amp;lt;control&amp;gt;&amp;gt;&lt;br&gt;AircraftController" style="swimlane;fontStyle=1;align=center;verticalAlign=top;childLayout=stackLayout;horizontal=1;startSize=40;horizontalStack=0;resizeParent=1;resizeParentMax=0;resizeLast=0;collapsible=1;marginBottom=0;whiteSpace=wrap;html=1;" parent="pz5CJEBABPtMnbNcCvbR-13" vertex="1">
          <mxGeometry x="137.5" y="840" width="175" height="120" as="geometry" />
        </mxCell>
        <mxCell id="pz5CJEBABPtMnbNcCvbR-229" value="- aircraftRespository: AircraftRepository" style="text;strokeColor=none;fillColor=none;align=left;verticalAlign=top;spacingLeft=4;spacingRight=4;overflow=hidden;rotatable=0;points=[[0,0.5],[1,0.5]];portConstraint=eastwest;whiteSpace=wrap;html=1;" parent="pz5CJEBABPtMnbNcCvbR-228" vertex="1">
          <mxGeometry y="40" width="175" height="40" as="geometry" />
        </mxCell>
        <mxCell id="pz5CJEBABPtMnbNcCvbR-230" value="" style="line;strokeWidth=1;fillColor=none;align=left;verticalAlign=middle;spacingTop=-1;spacingLeft=3;spacingRight=3;rotatable=0;labelPosition=right;points=[];portConstraint=eastwest;strokeColor=inherit;" parent="pz5CJEBABPtMnbNcCvbR-228" vertex="1">
          <mxGeometry y="80" width="175" height="10" as="geometry" />
        </mxCell>
        <mxCell id="pz5CJEBABPtMnbNcCvbR-231" value="+ getAircraftByID: Aircraft&amp;nbsp;" style="text;strokeColor=none;fillColor=none;align=left;verticalAlign=top;spacingLeft=4;spacingRight=4;overflow=hidden;rotatable=0;points=[[0,0.5],[1,0.5]];portConstraint=eastwest;whiteSpace=wrap;html=1;" parent="pz5CJEBABPtMnbNcCvbR-228" vertex="1">
          <mxGeometry y="90" width="175" height="30" as="geometry" />
        </mxCell>
        <mxCell id="pz5CJEBABPtMnbNcCvbR-235" value="&amp;lt;&amp;lt;control&amp;gt;&amp;gt;&lt;br&gt;CrewflightController" style="swimlane;fontStyle=1;align=center;verticalAlign=top;childLayout=stackLayout;horizontal=1;startSize=40;horizontalStack=0;resizeParent=1;resizeParentMax=0;resizeLast=0;collapsible=1;marginBottom=0;whiteSpace=wrap;html=1;" parent="pz5CJEBABPtMnbNcCvbR-13" vertex="1">
          <mxGeometry x="140" y="990" width="175" height="170" as="geometry" />
        </mxCell>
        <mxCell id="pz5CJEBABPtMnbNcCvbR-236" value="- crewflightsService: CrewflightsService" style="text;strokeColor=none;fillColor=none;align=left;verticalAlign=top;spacingLeft=4;spacingRight=4;overflow=hidden;rotatable=0;points=[[0,0.5],[1,0.5]];portConstraint=eastwest;whiteSpace=wrap;html=1;" parent="pz5CJEBABPtMnbNcCvbR-235" vertex="1">
          <mxGeometry y="40" width="175" height="40" as="geometry" />
        </mxCell>
        <mxCell id="pz5CJEBABPtMnbNcCvbR-237" value="" style="line;strokeWidth=1;fillColor=none;align=left;verticalAlign=middle;spacingTop=-1;spacingLeft=3;spacingRight=3;rotatable=0;labelPosition=right;points=[];portConstraint=eastwest;strokeColor=inherit;" parent="pz5CJEBABPtMnbNcCvbR-235" vertex="1">
          <mxGeometry y="80" width="175" height="10" as="geometry" />
        </mxCell>
        <mxCell id="pz5CJEBABPtMnbNcCvbR-238" value="+ getCrewFlightsByCrewID(id: int)&lt;br style=&quot;border-color: var(--border-color);&quot;&gt;+ getCrewflightsByFlightID (id: int)&lt;br style=&quot;border-color: var(--border-color);&quot;&gt;+ getAllCrewFlights(): List" style="text;strokeColor=none;fillColor=none;align=left;verticalAlign=top;spacingLeft=4;spacingRight=4;overflow=hidden;rotatable=0;points=[[0,0.5],[1,0.5]];portConstraint=eastwest;whiteSpace=wrap;html=1;" parent="pz5CJEBABPtMnbNcCvbR-235" vertex="1">
          <mxGeometry y="90" width="175" height="80" as="geometry" />
        </mxCell>
        <mxCell id="pz5CJEBABPtMnbNcCvbR-240" value="&amp;lt;&amp;lt;control&amp;gt;&amp;gt;&lt;br&gt;PaymentController" style="swimlane;fontStyle=1;align=center;verticalAlign=top;childLayout=stackLayout;horizontal=1;startSize=40;horizontalStack=0;resizeParent=1;resizeParentMax=0;resizeLast=0;collapsible=1;marginBottom=0;whiteSpace=wrap;html=1;" parent="pz5CJEBABPtMnbNcCvbR-13" vertex="1">
          <mxGeometry x="140" y="1190" width="175" height="180" as="geometry" />
        </mxCell>
        <mxCell id="pz5CJEBABPtMnbNcCvbR-241" value="- paymentService: PaymentService" style="text;strokeColor=none;fillColor=none;align=left;verticalAlign=top;spacingLeft=4;spacingRight=4;overflow=hidden;rotatable=0;points=[[0,0.5],[1,0.5]];portConstraint=eastwest;whiteSpace=wrap;html=1;" parent="pz5CJEBABPtMnbNcCvbR-240" vertex="1">
          <mxGeometry y="40" width="175" height="40" as="geometry" />
        </mxCell>
        <mxCell id="pz5CJEBABPtMnbNcCvbR-242" value="" style="line;strokeWidth=1;fillColor=none;align=left;verticalAlign=middle;spacingTop=-1;spacingLeft=3;spacingRight=3;rotatable=0;labelPosition=right;points=[];portConstraint=eastwest;strokeColor=inherit;" parent="pz5CJEBABPtMnbNcCvbR-240" vertex="1">
          <mxGeometry y="80" width="175" height="10" as="geometry" />
        </mxCell>
        <mxCell id="pz5CJEBABPtMnbNcCvbR-243" value="+ getPaymentByID(id: int): Optional&lt;br style=&quot;border-color: var(--border-color);&quot;&gt;+getPaymentByUserID(userid: int): List&lt;br style=&quot;border-color: var(--border-color);&quot;&gt;+ addPayment(): List&lt;br&gt;" style="text;strokeColor=none;fillColor=none;align=left;verticalAlign=top;spacingLeft=4;spacingRight=4;overflow=hidden;rotatable=0;points=[[0,0.5],[1,0.5]];portConstraint=eastwest;whiteSpace=wrap;html=1;" parent="pz5CJEBABPtMnbNcCvbR-240" vertex="1">
          <mxGeometry y="90" width="175" height="90" as="geometry" />
        </mxCell>
        <mxCell id="pz5CJEBABPtMnbNcCvbR-255" value="&amp;lt;&amp;lt;control&amp;gt;&amp;gt;&lt;br&gt;SeatController" style="swimlane;fontStyle=1;align=center;verticalAlign=top;childLayout=stackLayout;horizontal=1;startSize=40;horizontalStack=0;resizeParent=1;resizeParentMax=0;resizeLast=0;collapsible=1;marginBottom=0;whiteSpace=wrap;html=1;" parent="pz5CJEBABPtMnbNcCvbR-13" vertex="1">
          <mxGeometry x="140" y="1400" width="175" height="170" as="geometry" />
        </mxCell>
        <mxCell id="pz5CJEBABPtMnbNcCvbR-256" value="- crewflightsService: CrewflightsService" style="text;strokeColor=none;fillColor=none;align=left;verticalAlign=top;spacingLeft=4;spacingRight=4;overflow=hidden;rotatable=0;points=[[0,0.5],[1,0.5]];portConstraint=eastwest;whiteSpace=wrap;html=1;" parent="pz5CJEBABPtMnbNcCvbR-255" vertex="1">
          <mxGeometry y="40" width="175" height="40" as="geometry" />
        </mxCell>
        <mxCell id="pz5CJEBABPtMnbNcCvbR-257" value="" style="line;strokeWidth=1;fillColor=none;align=left;verticalAlign=middle;spacingTop=-1;spacingLeft=3;spacingRight=3;rotatable=0;labelPosition=right;points=[];portConstraint=eastwest;strokeColor=inherit;" parent="pz5CJEBABPtMnbNcCvbR-255" vertex="1">
          <mxGeometry y="80" width="175" height="10" as="geometry" />
        </mxCell>
        <mxCell id="pz5CJEBABPtMnbNcCvbR-258" value="+ getCrewFlightsByCrewID(id: int)&lt;br style=&quot;border-color: var(--border-color);&quot;&gt;+ getSeatsByID (id: int): Seat&lt;br&gt;+ getSeatsByAircraftID (id: int)&lt;br style=&quot;border-color: var(--border-color);&quot;&gt;+ getAllSeats(): List" style="text;strokeColor=none;fillColor=none;align=left;verticalAlign=top;spacingLeft=4;spacingRight=4;overflow=hidden;rotatable=0;points=[[0,0.5],[1,0.5]];portConstraint=eastwest;whiteSpace=wrap;html=1;" parent="pz5CJEBABPtMnbNcCvbR-255" vertex="1">
          <mxGeometry y="90" width="175" height="80" as="geometry" />
        </mxCell>
        <mxCell id="pz5CJEBABPtMnbNcCvbR-300" value="&amp;lt;&amp;lt;control&amp;gt;&amp;gt;&lt;br&gt;NewsletterController" style="swimlane;fontStyle=1;align=center;verticalAlign=top;childLayout=stackLayout;horizontal=1;startSize=40;horizontalStack=0;resizeParent=1;resizeParentMax=0;resizeLast=0;collapsible=1;marginBottom=0;whiteSpace=wrap;html=1;" parent="pz5CJEBABPtMnbNcCvbR-13" vertex="1">
          <mxGeometry x="137.5" y="1600" width="175" height="130" as="geometry" />
        </mxCell>
        <mxCell id="pz5CJEBABPtMnbNcCvbR-301" value="- newsletterService: NewsletterService" style="text;strokeColor=none;fillColor=none;align=left;verticalAlign=top;spacingLeft=4;spacingRight=4;overflow=hidden;rotatable=0;points=[[0,0.5],[1,0.5]];portConstraint=eastwest;whiteSpace=wrap;html=1;" parent="pz5CJEBABPtMnbNcCvbR-300" vertex="1">
          <mxGeometry y="40" width="175" height="30" as="geometry" />
        </mxCell>
        <mxCell id="pz5CJEBABPtMnbNcCvbR-302" value="" style="line;strokeWidth=1;fillColor=none;align=left;verticalAlign=middle;spacingTop=-1;spacingLeft=3;spacingRight=3;rotatable=0;labelPosition=right;points=[];portConstraint=eastwest;strokeColor=inherit;" parent="pz5CJEBABPtMnbNcCvbR-300" vertex="1">
          <mxGeometry y="70" width="175" height="10" as="geometry" />
        </mxCell>
        <mxCell id="pz5CJEBABPtMnbNcCvbR-303" value="+ SendNewsletter(): String&lt;br&gt;+ SendMonthlyNewsletter(): String" style="text;strokeColor=none;fillColor=none;align=left;verticalAlign=top;spacingLeft=4;spacingRight=4;overflow=hidden;rotatable=0;points=[[0,0.5],[1,0.5]];portConstraint=eastwest;whiteSpace=wrap;html=1;" parent="pz5CJEBABPtMnbNcCvbR-300" vertex="1">
          <mxGeometry y="80" width="175" height="50" as="geometry" />
        </mxCell>
        <mxCell id="pz5CJEBABPtMnbNcCvbR-312" value="&amp;lt;&amp;lt;control&amp;gt;&amp;gt;&lt;br&gt;TicketController" style="swimlane;fontStyle=1;align=center;verticalAlign=top;childLayout=stackLayout;horizontal=1;startSize=40;horizontalStack=0;resizeParent=1;resizeParentMax=0;resizeLast=0;collapsible=1;marginBottom=0;whiteSpace=wrap;html=1;" parent="pz5CJEBABPtMnbNcCvbR-13" vertex="1">
          <mxGeometry x="122.5" y="1740" width="210" height="280" as="geometry" />
        </mxCell>
        <mxCell id="pz5CJEBABPtMnbNcCvbR-313" value="- ticketService: TicketService&lt;br style=&quot;border-color: var(--border-color);&quot;&gt;- emailService: EmailService&lt;br&gt;- paymentService: PaymentService" style="text;strokeColor=none;fillColor=none;align=left;verticalAlign=top;spacingLeft=4;spacingRight=4;overflow=hidden;rotatable=0;points=[[0,0.5],[1,0.5]];portConstraint=eastwest;whiteSpace=wrap;html=1;" parent="pz5CJEBABPtMnbNcCvbR-312" vertex="1">
          <mxGeometry y="40" width="210" height="60" as="geometry" />
        </mxCell>
        <mxCell id="pz5CJEBABPtMnbNcCvbR-314" value="" style="line;strokeWidth=1;fillColor=none;align=left;verticalAlign=middle;spacingTop=-1;spacingLeft=3;spacingRight=3;rotatable=0;labelPosition=right;points=[];portConstraint=eastwest;strokeColor=inherit;" parent="pz5CJEBABPtMnbNcCvbR-312" vertex="1">
          <mxGeometry y="100" width="210" height="10" as="geometry" />
        </mxCell>
        <mxCell id="pz5CJEBABPtMnbNcCvbR-315" value="+ addTicket(tickets: List&amp;lt;TicketView&amp;gt;: void&lt;br style=&quot;border-color: var(--border-color);&quot;&gt;+ deleteTicket(ticketID: int): void&lt;br style=&quot;border-color: var(--border-color);&quot;&gt;+ getAllTickets(): List&amp;lt;Ticket&amp;gt;&lt;br&gt;+ getTicketByFlightID(id: int): List&amp;lt;Ticket&amp;gt;&lt;br&gt;+ getTicketByUserID(id: int):List&amp;lt;BookingView&amp;gt;&lt;br&gt;+ getTicketByTicketIDandName(TicketId: int, name: String):List&amp;lt;BookingView&amp;gt;&lt;br style=&quot;border-color: var(--border-color);&quot;&gt;" style="text;strokeColor=none;fillColor=none;align=left;verticalAlign=top;spacingLeft=4;spacingRight=4;overflow=hidden;rotatable=0;points=[[0,0.5],[1,0.5]];portConstraint=eastwest;whiteSpace=wrap;html=1;" parent="pz5CJEBABPtMnbNcCvbR-312" vertex="1">
          <mxGeometry y="110" width="210" height="170" as="geometry" />
        </mxCell>
        <mxCell id="pz5CJEBABPtMnbNcCvbR-328" value="&amp;lt;&amp;lt;control&amp;gt;&amp;gt;&lt;br&gt;UserController" style="swimlane;fontStyle=1;align=center;verticalAlign=top;childLayout=stackLayout;horizontal=1;startSize=40;horizontalStack=0;resizeParent=1;resizeParentMax=0;resizeLast=0;collapsible=1;marginBottom=0;whiteSpace=wrap;html=1;" parent="pz5CJEBABPtMnbNcCvbR-13" vertex="1">
          <mxGeometry x="140" y="2050" width="175" height="150" as="geometry" />
        </mxCell>
        <mxCell id="pz5CJEBABPtMnbNcCvbR-329" value="- userService: UserService" style="text;strokeColor=none;fillColor=none;align=left;verticalAlign=top;spacingLeft=4;spacingRight=4;overflow=hidden;rotatable=0;points=[[0,0.5],[1,0.5]];portConstraint=eastwest;whiteSpace=wrap;html=1;" parent="pz5CJEBABPtMnbNcCvbR-328" vertex="1">
          <mxGeometry y="40" width="175" height="30" as="geometry" />
        </mxCell>
        <mxCell id="pz5CJEBABPtMnbNcCvbR-330" value="" style="line;strokeWidth=1;fillColor=none;align=left;verticalAlign=middle;spacingTop=-1;spacingLeft=3;spacingRight=3;rotatable=0;labelPosition=right;points=[];portConstraint=eastwest;strokeColor=inherit;" parent="pz5CJEBABPtMnbNcCvbR-328" vertex="1">
          <mxGeometry y="70" width="175" height="10" as="geometry" />
        </mxCell>
        <mxCell id="pz5CJEBABPtMnbNcCvbR-331" value="+ getUserByID(id: int): getUserByID&amp;nbsp;&lt;br&gt;+ newUser( registerview: RegisterView)" style="text;strokeColor=none;fillColor=none;align=left;verticalAlign=top;spacingLeft=4;spacingRight=4;overflow=hidden;rotatable=0;points=[[0,0.5],[1,0.5]];portConstraint=eastwest;whiteSpace=wrap;html=1;" parent="pz5CJEBABPtMnbNcCvbR-328" vertex="1">
          <mxGeometry y="80" width="175" height="70" as="geometry" />
        </mxCell>
        <mxCell id="pz5CJEBABPtMnbNcCvbR-269" value="1" style="text;html=1;align=center;verticalAlign=middle;resizable=0;points=[];autosize=1;strokeColor=none;fillColor=none;" parent="pz5CJEBABPtMnbNcCvbR-13" vertex="1">
          <mxGeometry x="107.5" y="1040" width="30" height="30" as="geometry" />
        </mxCell>
        <mxCell id="pz5CJEBABPtMnbNcCvbR-270" value="1" style="text;html=1;align=center;verticalAlign=middle;resizable=0;points=[];autosize=1;strokeColor=none;fillColor=none;" parent="pz5CJEBABPtMnbNcCvbR-13" vertex="1">
          <mxGeometry x="107.5" y="880" width="30" height="30" as="geometry" />
        </mxCell>
        <mxCell id="pz5CJEBABPtMnbNcCvbR-334" value="1" style="text;html=1;align=center;verticalAlign=middle;resizable=0;points=[];autosize=1;strokeColor=none;fillColor=none;" parent="pz5CJEBABPtMnbNcCvbR-13" vertex="1">
          <mxGeometry x="110" y="2090" width="30" height="30" as="geometry" />
        </mxCell>
        <mxCell id="pz5CJEBABPtMnbNcCvbR-27" value="Model" style="swimlane;whiteSpace=wrap;html=1;" parent="1" vertex="1">
          <mxGeometry x="1320" y="-40" width="730" height="980" as="geometry" />
        </mxCell>
        <mxCell id="pz5CJEBABPtMnbNcCvbR-36" value="&amp;lt;&amp;lt;domain&amp;gt;&amp;gt;&lt;br&gt;Aircraft" style="rounded=0;whiteSpace=wrap;html=1;" parent="pz5CJEBABPtMnbNcCvbR-27" vertex="1">
          <mxGeometry x="176.25" y="400" width="100" height="40" as="geometry" />
        </mxCell>
        <mxCell id="pz5CJEBABPtMnbNcCvbR-35" value="&amp;lt;&amp;lt;domain&amp;gt;&amp;gt;&lt;br style=&quot;border-color: var(--border-color);&quot;&gt;Crewflights" style="rounded=0;whiteSpace=wrap;html=1;" parent="pz5CJEBABPtMnbNcCvbR-27" vertex="1">
          <mxGeometry x="176.25" y="230" width="100" height="40" as="geometry" />
        </mxCell>
        <mxCell id="pz5CJEBABPtMnbNcCvbR-38" value="&amp;lt;&amp;lt;domain&amp;gt;&amp;gt;&lt;br style=&quot;border-color: var(--border-color);&quot;&gt;Flight" style="rounded=0;whiteSpace=wrap;html=1;" parent="pz5CJEBABPtMnbNcCvbR-27" vertex="1">
          <mxGeometry x="176.25" y="310" width="100" height="40" as="geometry" />
        </mxCell>
        <mxCell id="pz5CJEBABPtMnbNcCvbR-41" value="&amp;lt;&amp;lt;domain&amp;gt;&amp;gt;&lt;br style=&quot;border-color: var(--border-color);&quot;&gt;Seat" style="rounded=0;whiteSpace=wrap;html=1;" parent="pz5CJEBABPtMnbNcCvbR-27" vertex="1">
          <mxGeometry x="177.5" y="490" width="100" height="40" as="geometry" />
        </mxCell>
        <mxCell id="pz5CJEBABPtMnbNcCvbR-40" value="&amp;lt;&amp;lt;domain&amp;gt;&amp;gt;&lt;br style=&quot;border-color: var(--border-color);&quot;&gt;User" style="rounded=0;whiteSpace=wrap;html=1;" parent="pz5CJEBABPtMnbNcCvbR-27" vertex="1">
          <mxGeometry x="178.75" y="570" width="97.5" height="40" as="geometry" />
        </mxCell>
        <mxCell id="pz5CJEBABPtMnbNcCvbR-49" value="&amp;lt;&amp;lt;domain&amp;gt;&amp;gt;&lt;br&gt;Airline" style="rounded=0;whiteSpace=wrap;html=1;" parent="pz5CJEBABPtMnbNcCvbR-27" vertex="1">
          <mxGeometry x="177.5" y="170" width="100" height="40" as="geometry" />
        </mxCell>
        <mxCell id="pz5CJEBABPtMnbNcCvbR-56" style="edgeStyle=orthogonalEdgeStyle;rounded=0;orthogonalLoop=1;jettySize=auto;html=1;exitX=0;exitY=0.5;exitDx=0;exitDy=0;startArrow=none;startFill=0;endArrow=diamondThin;endFill=0;entryX=0;entryY=0.5;entryDx=0;entryDy=0;" parent="pz5CJEBABPtMnbNcCvbR-27" source="pz5CJEBABPtMnbNcCvbR-38" target="pz5CJEBABPtMnbNcCvbR-49" edge="1">
          <mxGeometry relative="1" as="geometry">
            <mxPoint x="238.5" y="270" as="sourcePoint" />
            <mxPoint x="122.5" y="90" as="targetPoint" />
            <Array as="points">
              <mxPoint x="122.5" y="330" />
              <mxPoint x="122.5" y="190" />
            </Array>
          </mxGeometry>
        </mxCell>
        <mxCell id="pz5CJEBABPtMnbNcCvbR-57" value="" style="endArrow=none;html=1;rounded=0;exitX=0.5;exitY=0;exitDx=0;exitDy=0;entryX=0.5;entryY=1;entryDx=0;entryDy=0;" parent="pz5CJEBABPtMnbNcCvbR-27" source="pz5CJEBABPtMnbNcCvbR-38" target="pz5CJEBABPtMnbNcCvbR-35" edge="1">
          <mxGeometry width="50" height="50" relative="1" as="geometry">
            <mxPoint x="302.5" y="250" as="sourcePoint" />
            <mxPoint x="352.5" y="200" as="targetPoint" />
          </mxGeometry>
        </mxCell>
        <mxCell id="pz5CJEBABPtMnbNcCvbR-58" value="&amp;lt;&amp;lt;domain&amp;gt;&amp;gt;&lt;br&gt;Ticket" style="rounded=0;whiteSpace=wrap;html=1;" parent="pz5CJEBABPtMnbNcCvbR-27" vertex="1">
          <mxGeometry x="176.25" y="110" width="100" height="40" as="geometry" />
        </mxCell>
        <mxCell id="pz5CJEBABPtMnbNcCvbR-55" style="edgeStyle=orthogonalEdgeStyle;rounded=0;orthogonalLoop=1;jettySize=auto;html=1;exitX=0.5;exitY=0;exitDx=0;exitDy=0;startArrow=none;startFill=0;endArrow=diamondThin;endFill=0;entryX=0.5;entryY=1;entryDx=0;entryDy=0;" parent="pz5CJEBABPtMnbNcCvbR-27" source="pz5CJEBABPtMnbNcCvbR-36" target="pz5CJEBABPtMnbNcCvbR-38" edge="1">
          <mxGeometry relative="1" as="geometry">
            <mxPoint x="248.5" y="290" as="sourcePoint" />
            <mxPoint x="236.5" y="320" as="targetPoint" />
            <Array as="points" />
          </mxGeometry>
        </mxCell>
        <mxCell id="pz5CJEBABPtMnbNcCvbR-59" style="edgeStyle=orthogonalEdgeStyle;rounded=0;orthogonalLoop=1;jettySize=auto;html=1;startArrow=none;startFill=0;endArrow=diamondThin;endFill=0;entryX=1;entryY=0.5;entryDx=0;entryDy=0;exitX=1;exitY=0.5;exitDx=0;exitDy=0;" parent="pz5CJEBABPtMnbNcCvbR-27" source="pz5CJEBABPtMnbNcCvbR-38" target="pz5CJEBABPtMnbNcCvbR-58" edge="1">
          <mxGeometry relative="1" as="geometry">
            <mxPoint x="312.5" y="330" as="sourcePoint" />
            <mxPoint x="343.5" y="120" as="targetPoint" />
            <Array as="points">
              <mxPoint x="312.5" y="330" />
              <mxPoint x="312.5" y="130" />
            </Array>
          </mxGeometry>
        </mxCell>
        <mxCell id="pz5CJEBABPtMnbNcCvbR-61" value="" style="endArrow=none;html=1;rounded=0;exitX=0.5;exitY=0;exitDx=0;exitDy=0;entryX=0.5;entryY=1;entryDx=0;entryDy=0;" parent="pz5CJEBABPtMnbNcCvbR-27" source="pz5CJEBABPtMnbNcCvbR-41" target="pz5CJEBABPtMnbNcCvbR-36" edge="1">
          <mxGeometry width="50" height="50" relative="1" as="geometry">
            <mxPoint x="292.5" y="490" as="sourcePoint" />
            <mxPoint x="342.5" y="440" as="targetPoint" />
          </mxGeometry>
        </mxCell>
        <mxCell id="pz5CJEBABPtMnbNcCvbR-62" value="&amp;lt;&amp;lt;interface&amp;gt;&amp;gt;&lt;br&gt;Manage" style="rounded=0;whiteSpace=wrap;html=1;" parent="pz5CJEBABPtMnbNcCvbR-27" vertex="1">
          <mxGeometry x="176.25" y="40" width="100" height="40" as="geometry" />
        </mxCell>
        <mxCell id="pz5CJEBABPtMnbNcCvbR-66" value="" style="endArrow=block;dashed=1;endFill=0;endSize=12;html=1;rounded=0;exitX=1;exitY=0.75;exitDx=0;exitDy=0;edgeStyle=elbowEdgeStyle;elbow=vertical;entryX=1;entryY=0.5;entryDx=0;entryDy=0;" parent="pz5CJEBABPtMnbNcCvbR-27" source="pz5CJEBABPtMnbNcCvbR-38" target="pz5CJEBABPtMnbNcCvbR-62" edge="1">
          <mxGeometry width="160" relative="1" as="geometry">
            <mxPoint x="362.5" y="300" as="sourcePoint" />
            <mxPoint x="362.5" y="340" as="targetPoint" />
            <Array as="points">
              <mxPoint x="342.5" y="190" />
            </Array>
          </mxGeometry>
        </mxCell>
        <mxCell id="pz5CJEBABPtMnbNcCvbR-68" value="" style="endArrow=block;dashed=1;endFill=0;endSize=12;html=1;rounded=0;exitX=0;exitY=0.5;exitDx=0;exitDy=0;edgeStyle=elbowEdgeStyle;elbow=vertical;entryX=0;entryY=0.5;entryDx=0;entryDy=0;" parent="pz5CJEBABPtMnbNcCvbR-27" source="pz5CJEBABPtMnbNcCvbR-36" target="pz5CJEBABPtMnbNcCvbR-62" edge="1">
          <mxGeometry width="160" relative="1" as="geometry">
            <mxPoint x="42.5" y="400" as="sourcePoint" />
            <mxPoint x="72.5" y="420" as="targetPoint" />
            <Array as="points">
              <mxPoint x="102.5" y="250" />
            </Array>
          </mxGeometry>
        </mxCell>
        <mxCell id="pz5CJEBABPtMnbNcCvbR-69" value="" style="endArrow=block;dashed=1;endFill=0;endSize=12;html=1;rounded=0;exitX=1;exitY=0.5;exitDx=0;exitDy=0;edgeStyle=elbowEdgeStyle;elbow=vertical;entryX=1;entryY=0.75;entryDx=0;entryDy=0;" parent="pz5CJEBABPtMnbNcCvbR-27" source="pz5CJEBABPtMnbNcCvbR-35" target="pz5CJEBABPtMnbNcCvbR-62" edge="1">
          <mxGeometry width="160" relative="1" as="geometry">
            <mxPoint x="542.5" y="290" as="sourcePoint" />
            <mxPoint x="292.5" y="80" as="targetPoint" />
            <Array as="points">
              <mxPoint x="322.5" y="250" />
            </Array>
          </mxGeometry>
        </mxCell>
        <mxCell id="pz5CJEBABPtMnbNcCvbR-77" style="edgeStyle=orthogonalEdgeStyle;rounded=0;orthogonalLoop=1;jettySize=auto;html=1;exitX=0;exitY=0.5;exitDx=0;exitDy=0;startArrow=none;startFill=0;endArrow=diamondThin;endFill=0;entryX=0;entryY=0.5;entryDx=0;entryDy=0;" parent="pz5CJEBABPtMnbNcCvbR-27" source="pz5CJEBABPtMnbNcCvbR-40" target="pz5CJEBABPtMnbNcCvbR-58" edge="1">
          <mxGeometry relative="1" as="geometry">
            <mxPoint x="122.5" y="540" as="sourcePoint" />
            <mxPoint x="122.5" y="490" as="targetPoint" />
            <Array as="points">
              <mxPoint x="72.5" y="590" />
              <mxPoint x="72.5" y="130" />
            </Array>
          </mxGeometry>
        </mxCell>
        <mxCell id="pz5CJEBABPtMnbNcCvbR-78" value="buys" style="text;html=1;align=center;verticalAlign=middle;resizable=0;points=[];autosize=1;strokeColor=none;fillColor=none;" parent="pz5CJEBABPtMnbNcCvbR-27" vertex="1">
          <mxGeometry x="92.5" y="558" width="50" height="30" as="geometry" />
        </mxCell>
        <mxCell id="pz5CJEBABPtMnbNcCvbR-79" value="&amp;lt;&amp;lt;domain&amp;gt;&amp;gt;&lt;br style=&quot;border-color: var(--border-color);&quot;&gt;Payment" style="rounded=0;whiteSpace=wrap;html=1;" parent="pz5CJEBABPtMnbNcCvbR-27" vertex="1">
          <mxGeometry x="178.75" y="650" width="97.5" height="40" as="geometry" />
        </mxCell>
        <mxCell id="pz5CJEBABPtMnbNcCvbR-81" value="&amp;lt;&amp;lt;domain&amp;gt;&amp;gt;&lt;br style=&quot;border-color: var(--border-color);&quot;&gt;Email" style="rounded=0;whiteSpace=wrap;html=1;" parent="pz5CJEBABPtMnbNcCvbR-27" vertex="1">
          <mxGeometry x="178.75" y="730" width="97.5" height="40" as="geometry" />
        </mxCell>
        <mxCell id="pz5CJEBABPtMnbNcCvbR-82" style="edgeStyle=orthogonalEdgeStyle;rounded=0;orthogonalLoop=1;jettySize=auto;html=1;exitX=0.5;exitY=1;exitDx=0;exitDy=0;startArrow=none;startFill=0;endArrow=diamondThin;endFill=0;entryX=0.5;entryY=0;entryDx=0;entryDy=0;" parent="pz5CJEBABPtMnbNcCvbR-27" source="pz5CJEBABPtMnbNcCvbR-40" target="pz5CJEBABPtMnbNcCvbR-79" edge="1">
          <mxGeometry relative="1" as="geometry">
            <mxPoint x="2.5" y="710" as="sourcePoint" />
            <mxPoint x="2.5" y="660" as="targetPoint" />
            <Array as="points" />
          </mxGeometry>
        </mxCell>
        <mxCell id="pz5CJEBABPtMnbNcCvbR-83" value="" style="endArrow=none;html=1;rounded=0;exitX=1;exitY=0.5;exitDx=0;exitDy=0;edgeStyle=elbowEdgeStyle;elbow=vertical;entryX=1;entryY=0.5;entryDx=0;entryDy=0;" parent="pz5CJEBABPtMnbNcCvbR-27" source="pz5CJEBABPtMnbNcCvbR-40" target="pz5CJEBABPtMnbNcCvbR-81" edge="1">
          <mxGeometry width="50" height="50" relative="1" as="geometry">
            <mxPoint x="322.5" y="610" as="sourcePoint" />
            <mxPoint x="362.5" y="590" as="targetPoint" />
            <Array as="points">
              <mxPoint x="322.5" y="660" />
            </Array>
          </mxGeometry>
        </mxCell>
        <mxCell id="pz5CJEBABPtMnbNcCvbR-84" value="" style="endArrow=none;html=1;rounded=0;entryX=0.5;entryY=1;entryDx=0;entryDy=0;exitX=0.5;exitY=0;exitDx=0;exitDy=0;" parent="pz5CJEBABPtMnbNcCvbR-27" source="pz5CJEBABPtMnbNcCvbR-81" target="pz5CJEBABPtMnbNcCvbR-79" edge="1">
          <mxGeometry width="50" height="50" relative="1" as="geometry">
            <mxPoint x="102.5" y="770" as="sourcePoint" />
            <mxPoint x="152.5" y="720" as="targetPoint" />
          </mxGeometry>
        </mxCell>
        <mxCell id="pz5CJEBABPtMnbNcCvbR-85" value="&amp;lt;&amp;lt;interface&amp;gt;&amp;gt;&lt;br style=&quot;border-color: var(--border-color);&quot;&gt;EmailStrategy" style="rounded=0;whiteSpace=wrap;html=1;" parent="pz5CJEBABPtMnbNcCvbR-27" vertex="1">
          <mxGeometry x="178.75" y="810" width="97.5" height="40" as="geometry" />
        </mxCell>
        <mxCell id="pz5CJEBABPtMnbNcCvbR-86" value="&amp;lt;&amp;lt;domain&amp;gt;&amp;gt;&lt;br style=&quot;border-color: var(--border-color);&quot;&gt;EmailCancel" style="rounded=0;whiteSpace=wrap;html=1;" parent="pz5CJEBABPtMnbNcCvbR-27" vertex="1">
          <mxGeometry x="81.25" y="900" width="97.5" height="40" as="geometry" />
        </mxCell>
        <mxCell id="pz5CJEBABPtMnbNcCvbR-88" value="&amp;lt;&amp;lt;domain&amp;gt;&amp;gt;&lt;br style=&quot;border-color: var(--border-color);&quot;&gt;EmailTicket" style="rounded=0;whiteSpace=wrap;html=1;" parent="pz5CJEBABPtMnbNcCvbR-27" vertex="1">
          <mxGeometry x="272.5" y="900" width="97.5" height="40" as="geometry" />
        </mxCell>
        <mxCell id="pz5CJEBABPtMnbNcCvbR-89" value="" style="endArrow=block;dashed=1;endFill=0;endSize=12;html=1;rounded=0;exitX=0.5;exitY=0;exitDx=0;exitDy=0;edgeStyle=elbowEdgeStyle;elbow=vertical;entryX=0;entryY=0.5;entryDx=0;entryDy=0;" parent="pz5CJEBABPtMnbNcCvbR-27" source="pz5CJEBABPtMnbNcCvbR-86" target="pz5CJEBABPtMnbNcCvbR-85" edge="1">
          <mxGeometry width="160" relative="1" as="geometry">
            <mxPoint x="-67.5" y="840" as="sourcePoint" />
            <mxPoint x="101.5" y="830" as="targetPoint" />
            <Array as="points">
              <mxPoint x="122.5" y="830" />
            </Array>
          </mxGeometry>
        </mxCell>
        <mxCell id="pz5CJEBABPtMnbNcCvbR-92" value="" style="endArrow=block;dashed=1;endFill=0;endSize=12;html=1;rounded=0;exitX=0.5;exitY=0;exitDx=0;exitDy=0;edgeStyle=elbowEdgeStyle;elbow=vertical;entryX=1;entryY=0.5;entryDx=0;entryDy=0;" parent="pz5CJEBABPtMnbNcCvbR-27" source="pz5CJEBABPtMnbNcCvbR-88" target="pz5CJEBABPtMnbNcCvbR-85" edge="1">
          <mxGeometry width="160" relative="1" as="geometry">
            <mxPoint x="372.5" y="850" as="sourcePoint" />
            <mxPoint x="351.5" y="830" as="targetPoint" />
            <Array as="points">
              <mxPoint x="351.5" y="830" />
            </Array>
          </mxGeometry>
        </mxCell>
        <mxCell id="pz5CJEBABPtMnbNcCvbR-93" value="&amp;lt;&amp;lt;domain&amp;gt;&amp;gt;&lt;br style=&quot;border-color: var(--border-color);&quot;&gt;MonthlyNewsletterPublisher" style="rounded=0;whiteSpace=wrap;html=1;" parent="pz5CJEBABPtMnbNcCvbR-27" vertex="1">
          <mxGeometry x="451.56" y="438" width="153.13" height="40" as="geometry" />
        </mxCell>
        <mxCell id="pz5CJEBABPtMnbNcCvbR-97" value="" style="edgeStyle=orthogonalEdgeStyle;rounded=0;orthogonalLoop=1;jettySize=auto;html=1;" parent="pz5CJEBABPtMnbNcCvbR-27" source="pz5CJEBABPtMnbNcCvbR-93" target="pz5CJEBABPtMnbNcCvbR-94" edge="1">
          <mxGeometry relative="1" as="geometry" />
        </mxCell>
        <mxCell id="pz5CJEBABPtMnbNcCvbR-94" value="&amp;lt;&amp;lt;interface&amp;gt;&amp;gt;&lt;br style=&quot;border-color: var(--border-color);&quot;&gt;Observer" style="rounded=0;whiteSpace=wrap;html=1;" parent="pz5CJEBABPtMnbNcCvbR-27" vertex="1">
          <mxGeometry x="466.25" y="530" width="123.75" height="40" as="geometry" />
        </mxCell>
        <mxCell id="pz5CJEBABPtMnbNcCvbR-95" value="&amp;lt;&amp;lt;interface&amp;gt;&amp;gt;&lt;br style=&quot;border-color: var(--border-color);&quot;&gt;Subject" style="rounded=0;whiteSpace=wrap;html=1;" parent="pz5CJEBABPtMnbNcCvbR-27" vertex="1">
          <mxGeometry x="632.5" y="438" width="97.5" height="40" as="geometry" />
        </mxCell>
        <mxCell id="pz5CJEBABPtMnbNcCvbR-98" value="" style="endArrow=block;dashed=1;endFill=0;endSize=12;html=1;rounded=0;exitX=1;exitY=0.5;exitDx=0;exitDy=0;entryX=0;entryY=0.5;entryDx=0;entryDy=0;" parent="pz5CJEBABPtMnbNcCvbR-27" source="pz5CJEBABPtMnbNcCvbR-93" target="pz5CJEBABPtMnbNcCvbR-95" edge="1">
          <mxGeometry width="160" relative="1" as="geometry">
            <mxPoint x="652.5" y="610" as="sourcePoint" />
            <mxPoint x="812.5" y="610" as="targetPoint" />
          </mxGeometry>
        </mxCell>
        <mxCell id="pz5CJEBABPtMnbNcCvbR-102" value="1" style="text;html=1;align=center;verticalAlign=middle;resizable=0;points=[];autosize=1;strokeColor=none;fillColor=none;" parent="pz5CJEBABPtMnbNcCvbR-27" vertex="1">
          <mxGeometry x="242.5" y="288" width="30" height="30" as="geometry" />
        </mxCell>
        <mxCell id="pz5CJEBABPtMnbNcCvbR-103" value="1" style="text;html=1;align=center;verticalAlign=middle;resizable=0;points=[];autosize=1;strokeColor=none;fillColor=none;" parent="pz5CJEBABPtMnbNcCvbR-27" vertex="1">
          <mxGeometry x="242.5" y="268" width="30" height="30" as="geometry" />
        </mxCell>
        <mxCell id="pz5CJEBABPtMnbNcCvbR-107" value="crews" style="text;html=1;align=center;verticalAlign=middle;resizable=0;points=[];autosize=1;strokeColor=none;fillColor=none;" parent="pz5CJEBABPtMnbNcCvbR-27" vertex="1">
          <mxGeometry x="178.75" y="278" width="50" height="30" as="geometry" />
        </mxCell>
        <mxCell id="pz5CJEBABPtMnbNcCvbR-117" value="carries" style="text;html=1;align=center;verticalAlign=middle;resizable=0;points=[];autosize=1;strokeColor=none;fillColor=none;" parent="pz5CJEBABPtMnbNcCvbR-27" vertex="1">
          <mxGeometry x="227.5" y="450" width="60" height="30" as="geometry" />
        </mxCell>
        <mxCell id="pz5CJEBABPtMnbNcCvbR-120" style="edgeStyle=orthogonalEdgeStyle;rounded=0;orthogonalLoop=1;jettySize=auto;html=1;exitX=1;exitY=0.5;exitDx=0;exitDy=0;startArrow=none;startFill=0;endArrow=diamondThin;endFill=0;entryX=0.575;entryY=0.085;entryDx=0;entryDy=0;entryPerimeter=0;" parent="pz5CJEBABPtMnbNcCvbR-27" source="pz5CJEBABPtMnbNcCvbR-41" target="pz5CJEBABPtMnbNcCvbR-58" edge="1">
          <mxGeometry relative="1" as="geometry">
            <mxPoint x="352.5" y="440" as="sourcePoint" />
            <mxPoint x="232.5" y="100" as="targetPoint" />
            <Array as="points">
              <mxPoint x="382.5" y="510" />
              <mxPoint x="382.5" y="100" />
              <mxPoint x="233.5" y="100" />
            </Array>
          </mxGeometry>
        </mxCell>
        <mxCell id="pz5CJEBABPtMnbNcCvbR-123" value="reserves" style="text;html=1;align=center;verticalAlign=middle;resizable=0;points=[];autosize=1;strokeColor=none;fillColor=none;" parent="pz5CJEBABPtMnbNcCvbR-27" vertex="1">
          <mxGeometry x="307.5" y="475" width="70" height="30" as="geometry" />
        </mxCell>
        <mxCell id="pz5CJEBABPtMnbNcCvbR-125" value="" style="endArrow=none;html=1;rounded=0;entryX=0.25;entryY=0;entryDx=0;entryDy=0;edgeStyle=elbowEdgeStyle;elbow=vertical;exitX=0;exitY=0.5;exitDx=0;exitDy=0;" parent="pz5CJEBABPtMnbNcCvbR-27" source="pz5CJEBABPtMnbNcCvbR-81" target="pz5CJEBABPtMnbNcCvbR-58" edge="1">
          <mxGeometry width="50" height="50" relative="1" as="geometry">
            <mxPoint x="52.5" y="760" as="sourcePoint" />
            <mxPoint x="522.5" y="110" as="targetPoint" />
            <Array as="points">
              <mxPoint x="52.5" y="420" />
            </Array>
          </mxGeometry>
        </mxCell>
        <mxCell id="pz5CJEBABPtMnbNcCvbR-128" value="generates" style="text;html=1;align=center;verticalAlign=middle;resizable=0;points=[];autosize=1;strokeColor=none;fillColor=none;" parent="pz5CJEBABPtMnbNcCvbR-27" vertex="1">
          <mxGeometry x="52.5" y="718" width="80" height="30" as="geometry" />
        </mxCell>
        <mxCell id="pz5CJEBABPtMnbNcCvbR-130" value="0..*" style="text;html=1;align=center;verticalAlign=middle;resizable=0;points=[];autosize=1;strokeColor=none;fillColor=none;" parent="pz5CJEBABPtMnbNcCvbR-27" vertex="1">
          <mxGeometry x="188.75" y="630" width="40" height="30" as="geometry" />
        </mxCell>
        <mxCell id="pz5CJEBABPtMnbNcCvbR-133" value="1" style="text;html=1;align=center;verticalAlign=middle;resizable=0;points=[];autosize=1;strokeColor=none;fillColor=none;" parent="pz5CJEBABPtMnbNcCvbR-27" vertex="1">
          <mxGeometry x="188.75" y="710" width="30" height="30" as="geometry" />
        </mxCell>
        <mxCell id="pz5CJEBABPtMnbNcCvbR-134" value="1" style="text;html=1;align=center;verticalAlign=middle;resizable=0;points=[];autosize=1;strokeColor=none;fillColor=none;" parent="pz5CJEBABPtMnbNcCvbR-27" vertex="1">
          <mxGeometry x="188.75" y="688" width="30" height="30" as="geometry" />
        </mxCell>
        <mxCell id="pz5CJEBABPtMnbNcCvbR-136" value="generates" style="text;html=1;align=center;verticalAlign=middle;resizable=0;points=[];autosize=1;strokeColor=none;fillColor=none;" parent="pz5CJEBABPtMnbNcCvbR-27" vertex="1">
          <mxGeometry x="222.5" y="698" width="80" height="30" as="geometry" />
        </mxCell>
        <mxCell id="pz5CJEBABPtMnbNcCvbR-137" value="" style="endArrow=none;html=1;rounded=0;exitX=0.5;exitY=0;exitDx=0;exitDy=0;entryX=0.5;entryY=1;entryDx=0;entryDy=0;" parent="pz5CJEBABPtMnbNcCvbR-27" source="pz5CJEBABPtMnbNcCvbR-85" target="pz5CJEBABPtMnbNcCvbR-81" edge="1">
          <mxGeometry width="50" height="50" relative="1" as="geometry">
            <mxPoint x="322.5" y="800" as="sourcePoint" />
            <mxPoint x="372.5" y="750" as="targetPoint" />
          </mxGeometry>
        </mxCell>
        <mxCell id="pz5CJEBABPtMnbNcCvbR-138" value="uses" style="text;html=1;align=center;verticalAlign=middle;resizable=0;points=[];autosize=1;strokeColor=none;fillColor=none;" parent="pz5CJEBABPtMnbNcCvbR-27" vertex="1">
          <mxGeometry x="462.5" y="500" width="50" height="30" as="geometry" />
        </mxCell>
        <mxCell id="pz5CJEBABPtMnbNcCvbR-99" value="1..*" style="text;html=1;align=center;verticalAlign=middle;resizable=0;points=[];autosize=1;strokeColor=none;fillColor=none;" parent="pz5CJEBABPtMnbNcCvbR-27" vertex="1">
          <mxGeometry x="132.5" y="298" width="40" height="30" as="geometry" />
        </mxCell>
        <mxCell id="pz5CJEBABPtMnbNcCvbR-100" value="1" style="text;html=1;align=center;verticalAlign=middle;resizable=0;points=[];autosize=1;strokeColor=none;fillColor=none;" parent="pz5CJEBABPtMnbNcCvbR-27" vertex="1">
          <mxGeometry x="137.5" y="188" width="30" height="30" as="geometry" />
        </mxCell>
        <mxCell id="pz5CJEBABPtMnbNcCvbR-101" value="&amp;nbsp; &amp;nbsp; &amp;nbsp;hosts" style="text;html=1;align=center;verticalAlign=middle;resizable=0;points=[];autosize=1;strokeColor=none;fillColor=none;" parent="pz5CJEBABPtMnbNcCvbR-27" vertex="1">
          <mxGeometry x="97.5" y="238" width="70" height="30" as="geometry" />
        </mxCell>
        <mxCell id="pz5CJEBABPtMnbNcCvbR-108" value="1" style="text;html=1;align=center;verticalAlign=middle;resizable=0;points=[];autosize=1;strokeColor=none;fillColor=none;" parent="pz5CJEBABPtMnbNcCvbR-27" vertex="1">
          <mxGeometry x="277.5" y="298" width="30" height="30" as="geometry" />
        </mxCell>
        <mxCell id="pz5CJEBABPtMnbNcCvbR-109" value="0..*" style="text;html=1;align=center;verticalAlign=middle;resizable=0;points=[];autosize=1;strokeColor=none;fillColor=none;" parent="pz5CJEBABPtMnbNcCvbR-27" vertex="1">
          <mxGeometry x="272.5" y="138" width="40" height="30" as="geometry" />
        </mxCell>
        <mxCell id="pz5CJEBABPtMnbNcCvbR-110" value="has" style="text;html=1;align=center;verticalAlign=middle;resizable=0;points=[];autosize=1;strokeColor=none;fillColor=none;" parent="pz5CJEBABPtMnbNcCvbR-27" vertex="1">
          <mxGeometry x="272.5" y="208" width="40" height="30" as="geometry" />
        </mxCell>
        <mxCell id="pz5CJEBABPtMnbNcCvbR-111" value="1" style="text;html=1;align=center;verticalAlign=middle;resizable=0;points=[];autosize=1;strokeColor=none;fillColor=none;" parent="pz5CJEBABPtMnbNcCvbR-27" vertex="1">
          <mxGeometry x="227.5" y="368" width="30" height="30" as="geometry" />
        </mxCell>
        <mxCell id="pz5CJEBABPtMnbNcCvbR-112" value="1..*" style="text;html=1;align=center;verticalAlign=middle;resizable=0;points=[];autosize=1;strokeColor=none;fillColor=none;" parent="pz5CJEBABPtMnbNcCvbR-27" vertex="1">
          <mxGeometry x="228.75" y="350" width="40" height="30" as="geometry" />
        </mxCell>
        <mxCell id="pz5CJEBABPtMnbNcCvbR-114" value="flies on" style="text;html=1;align=center;verticalAlign=middle;resizable=0;points=[];autosize=1;strokeColor=none;fillColor=none;" parent="pz5CJEBABPtMnbNcCvbR-27" vertex="1">
          <mxGeometry x="162.5" y="358" width="60" height="30" as="geometry" />
        </mxCell>
        <mxCell id="pz5CJEBABPtMnbNcCvbR-115" value="1" style="text;html=1;align=center;verticalAlign=middle;resizable=0;points=[];autosize=1;strokeColor=none;fillColor=none;" parent="pz5CJEBABPtMnbNcCvbR-27" vertex="1">
          <mxGeometry x="187.5" y="438" width="30" height="30" as="geometry" />
        </mxCell>
        <mxCell id="pz5CJEBABPtMnbNcCvbR-116" value="n" style="text;html=1;align=center;verticalAlign=middle;resizable=0;points=[];autosize=1;strokeColor=none;fillColor=none;" parent="pz5CJEBABPtMnbNcCvbR-27" vertex="1">
          <mxGeometry x="187.5" y="468" width="30" height="30" as="geometry" />
        </mxCell>
        <mxCell id="pz5CJEBABPtMnbNcCvbR-121" value="1" style="text;html=1;align=center;verticalAlign=middle;resizable=0;points=[];autosize=1;strokeColor=none;fillColor=none;" parent="pz5CJEBABPtMnbNcCvbR-27" vertex="1">
          <mxGeometry x="277.5" y="478" width="30" height="30" as="geometry" />
        </mxCell>
        <mxCell id="pz5CJEBABPtMnbNcCvbR-122" value="1" style="text;html=1;align=center;verticalAlign=middle;resizable=0;points=[];autosize=1;strokeColor=none;fillColor=none;" parent="pz5CJEBABPtMnbNcCvbR-27" vertex="1">
          <mxGeometry x="207.5" y="88" width="30" height="30" as="geometry" />
        </mxCell>
        <mxCell id="pz5CJEBABPtMnbNcCvbR-124" value="1" style="text;html=1;align=center;verticalAlign=middle;resizable=0;points=[];autosize=1;strokeColor=none;fillColor=none;" parent="pz5CJEBABPtMnbNcCvbR-27" vertex="1">
          <mxGeometry x="147.5" y="558" width="30" height="30" as="geometry" />
        </mxCell>
        <mxCell id="pz5CJEBABPtMnbNcCvbR-126" value="1" style="text;html=1;align=center;verticalAlign=middle;resizable=0;points=[];autosize=1;strokeColor=none;fillColor=none;" parent="pz5CJEBABPtMnbNcCvbR-27" vertex="1">
          <mxGeometry x="157.5" y="88" width="30" height="30" as="geometry" />
        </mxCell>
        <mxCell id="pz5CJEBABPtMnbNcCvbR-127" value="1" style="text;html=1;align=center;verticalAlign=middle;resizable=0;points=[];autosize=1;strokeColor=none;fillColor=none;" parent="pz5CJEBABPtMnbNcCvbR-27" vertex="1">
          <mxGeometry x="147.5" y="728" width="30" height="30" as="geometry" />
        </mxCell>
        <mxCell id="pz5CJEBABPtMnbNcCvbR-129" value="1" style="text;html=1;align=center;verticalAlign=middle;resizable=0;points=[];autosize=1;strokeColor=none;fillColor=none;" parent="pz5CJEBABPtMnbNcCvbR-27" vertex="1">
          <mxGeometry x="187.5" y="608" width="30" height="30" as="geometry" />
        </mxCell>
        <mxCell id="pz5CJEBABPtMnbNcCvbR-132" value="pays" style="text;html=1;align=center;verticalAlign=middle;resizable=0;points=[];autosize=1;strokeColor=none;fillColor=none;" parent="pz5CJEBABPtMnbNcCvbR-27" vertex="1">
          <mxGeometry x="227.5" y="618" width="50" height="30" as="geometry" />
        </mxCell>
        <mxCell id="pz5CJEBABPtMnbNcCvbR-183" value="uses" style="text;html=1;align=center;verticalAlign=middle;resizable=0;points=[];autosize=1;strokeColor=none;fillColor=none;" parent="pz5CJEBABPtMnbNcCvbR-27" vertex="1">
          <mxGeometry x="276.25" y="655" width="50" height="30" as="geometry" />
        </mxCell>
        <mxCell id="pz5CJEBABPtMnbNcCvbR-185" value="1" style="text;html=1;align=center;verticalAlign=middle;resizable=0;points=[];autosize=1;strokeColor=none;fillColor=none;" parent="pz5CJEBABPtMnbNcCvbR-27" vertex="1">
          <mxGeometry x="222.5" y="788" width="30" height="30" as="geometry" />
        </mxCell>
        <mxCell id="pz5CJEBABPtMnbNcCvbR-335" value="1" style="text;html=1;align=center;verticalAlign=middle;resizable=0;points=[];autosize=1;strokeColor=none;fillColor=none;" parent="pz5CJEBABPtMnbNcCvbR-27" vertex="1">
          <mxGeometry x="222.5" y="758" width="30" height="30" as="geometry" />
        </mxCell>
        <mxCell id="pz5CJEBABPtMnbNcCvbR-337" value="&amp;lt;&amp;lt;domain&amp;gt;&amp;gt;&lt;br style=&quot;border-color: var(--border-color);&quot;&gt;NewsletterSubscriber" style="rounded=0;whiteSpace=wrap;html=1;" parent="pz5CJEBABPtMnbNcCvbR-27" vertex="1">
          <mxGeometry x="466.25" y="608" width="130" height="40" as="geometry" />
        </mxCell>
        <mxCell id="pz5CJEBABPtMnbNcCvbR-338" value="" style="endArrow=block;dashed=1;endFill=0;endSize=12;html=1;rounded=0;entryX=0.5;entryY=1;entryDx=0;entryDy=0;" parent="pz5CJEBABPtMnbNcCvbR-27" source="pz5CJEBABPtMnbNcCvbR-337" target="pz5CJEBABPtMnbNcCvbR-94" edge="1">
          <mxGeometry width="160" relative="1" as="geometry">
            <mxPoint x="667" y="810" as="sourcePoint" />
            <mxPoint x="630" y="810" as="targetPoint" />
          </mxGeometry>
        </mxCell>
        <mxCell id="pz5CJEBABPtMnbNcCvbR-573" value="" style="edgeStyle=orthogonalEdgeStyle;rounded=0;orthogonalLoop=1;jettySize=auto;html=1;exitX=0;exitY=0.5;exitDx=0;exitDy=0;entryX=1.038;entryY=0;entryDx=0;entryDy=0;entryPerimeter=0;" parent="pz5CJEBABPtMnbNcCvbR-27" source="pz5CJEBABPtMnbNcCvbR-93" target="pz5CJEBABPtMnbNcCvbR-40" edge="1">
          <mxGeometry relative="1" as="geometry">
            <mxPoint x="430" y="460" as="sourcePoint" />
            <mxPoint x="300" y="570" as="targetPoint" />
            <Array as="points">
              <mxPoint x="420" y="458" />
              <mxPoint x="420" y="550" />
              <mxPoint x="301" y="550" />
              <mxPoint x="301" y="570" />
            </Array>
          </mxGeometry>
        </mxCell>
        <mxCell id="pz5CJEBABPtMnbNcCvbR-151" style="edgeStyle=orthogonalEdgeStyle;rounded=0;orthogonalLoop=1;jettySize=auto;html=1;startArrow=none;startFill=0;endArrow=none;endFill=0;jumpStyle=arc;jumpSize=10;entryX=-0.01;entryY=0.716;entryDx=0;entryDy=0;entryPerimeter=0;" parent="1" target="pz5CJEBABPtMnbNcCvbR-521" edge="1">
          <mxGeometry relative="1" as="geometry">
            <Array as="points">
              <mxPoint x="762" y="30" />
              <mxPoint x="762" y="370" />
              <mxPoint x="907" y="370" />
            </Array>
            <mxPoint x="642" y="30" as="sourcePoint" />
            <mxPoint x="1026.25" y="368.5" as="targetPoint" />
          </mxGeometry>
        </mxCell>
        <mxCell id="pz5CJEBABPtMnbNcCvbR-152" style="edgeStyle=orthogonalEdgeStyle;rounded=0;orthogonalLoop=1;jettySize=auto;html=1;startArrow=none;startFill=0;endArrow=none;endFill=0;jumpStyle=arc;jumpSize=10;exitX=0.997;exitY=0.045;exitDx=0;exitDy=0;exitPerimeter=0;entryX=0.005;entryY=0.163;entryDx=0;entryDy=0;entryPerimeter=0;" parent="1" source="pz5CJEBABPtMnbNcCvbR-140" target="pz5CJEBABPtMnbNcCvbR-560" edge="1">
          <mxGeometry relative="1" as="geometry">
            <Array as="points">
              <mxPoint x="720" y="13" />
              <mxPoint x="720" y="2298" />
            </Array>
            <mxPoint x="740" y="10" as="sourcePoint" />
            <mxPoint x="800" y="2300" as="targetPoint" />
          </mxGeometry>
        </mxCell>
        <mxCell id="pz5CJEBABPtMnbNcCvbR-153" style="edgeStyle=orthogonalEdgeStyle;rounded=0;orthogonalLoop=1;jettySize=auto;html=1;startArrow=none;startFill=0;endArrow=none;endFill=0;jumpStyle=arc;jumpSize=10;exitX=1.011;exitY=-0.182;exitDx=0;exitDy=0;exitPerimeter=0;entryX=0.007;entryY=0.472;entryDx=0;entryDy=0;entryPerimeter=0;" parent="1" source="pz5CJEBABPtMnbNcCvbR-141" target="pz5CJEBABPtMnbNcCvbR-521" edge="1">
          <mxGeometry relative="1" as="geometry">
            <Array as="points">
              <mxPoint x="644" y="20" />
              <mxPoint x="810" y="20" />
              <mxPoint x="810" y="300" />
              <mxPoint x="912" y="300" />
            </Array>
            <mxPoint x="652" y="23" as="sourcePoint" />
            <mxPoint x="1010" y="300" as="targetPoint" />
          </mxGeometry>
        </mxCell>
        <mxCell id="pz5CJEBABPtMnbNcCvbR-163" value="" style="endArrow=none;html=1;rounded=0;edgeStyle=elbowEdgeStyle;exitX=1;exitY=0.5;exitDx=0;exitDy=0;entryX=0;entryY=0.5;entryDx=0;entryDy=0;" parent="1" source="pz5CJEBABPtMnbNcCvbR-155" target="pz5CJEBABPtMnbNcCvbR-166" edge="1">
          <mxGeometry width="50" height="50" relative="1" as="geometry">
            <mxPoint x="200" y="320" as="sourcePoint" />
            <mxPoint x="469.25" y="360.6120000000001" as="targetPoint" />
          </mxGeometry>
        </mxCell>
        <mxCell id="pz5CJEBABPtMnbNcCvbR-171" style="edgeStyle=orthogonalEdgeStyle;rounded=0;orthogonalLoop=1;jettySize=auto;html=1;startArrow=none;startFill=0;endArrow=none;endFill=0;jumpStyle=arc;jumpSize=10;exitX=1.004;exitY=0.102;exitDx=0;exitDy=0;exitPerimeter=0;entryX=0;entryY=0.5;entryDx=0;entryDy=0;" parent="1" source="pz5CJEBABPtMnbNcCvbR-168" target="pz5CJEBABPtMnbNcCvbR-563" edge="1">
          <mxGeometry relative="1" as="geometry">
            <Array as="points">
              <mxPoint x="646" y="380" />
              <mxPoint x="670" y="380" />
              <mxPoint x="670" y="2470" />
              <mxPoint x="890" y="2470" />
            </Array>
            <mxPoint x="660" y="939.9999999999998" as="sourcePoint" />
            <mxPoint x="690" y="2470" as="targetPoint" />
          </mxGeometry>
        </mxCell>
        <mxCell id="pz5CJEBABPtMnbNcCvbR-180" value="" style="endArrow=none;html=1;rounded=0;edgeStyle=elbowEdgeStyle;exitX=1.004;exitY=0.254;exitDx=0;exitDy=0;exitPerimeter=0;" parent="1" source="pz5CJEBABPtMnbNcCvbR-412" edge="1">
          <mxGeometry width="50" height="50" relative="1" as="geometry">
            <mxPoint x="100" y="490" as="sourcePoint" />
            <mxPoint x="470" y="570" as="targetPoint" />
            <Array as="points">
              <mxPoint x="100" y="460" />
            </Array>
          </mxGeometry>
        </mxCell>
        <mxCell id="pz5CJEBABPtMnbNcCvbR-194" value="" style="endArrow=none;html=1;rounded=0;edgeStyle=elbowEdgeStyle;exitX=1.015;exitY=0.847;exitDx=0;exitDy=0;exitPerimeter=0;entryX=0;entryY=0.5;entryDx=0;entryDy=0;" parent="1" source="pz5CJEBABPtMnbNcCvbR-187" target="pz5CJEBABPtMnbNcCvbR-191" edge="1">
          <mxGeometry width="50" height="50" relative="1" as="geometry">
            <mxPoint x="180" y="740" as="sourcePoint" />
            <mxPoint x="635" y="907" as="targetPoint" />
            <Array as="points">
              <mxPoint x="240" y="720" />
            </Array>
          </mxGeometry>
        </mxCell>
        <mxCell id="pz5CJEBABPtMnbNcCvbR-195" style="edgeStyle=orthogonalEdgeStyle;rounded=0;orthogonalLoop=1;jettySize=auto;html=1;startArrow=none;startFill=0;endArrow=none;endFill=0;jumpStyle=arc;jumpSize=10;exitX=1;exitY=0.5;exitDx=0;exitDy=0;entryX=-0.007;entryY=1.245;entryDx=0;entryDy=0;entryPerimeter=0;" parent="1" source="pz5CJEBABPtMnbNcCvbR-191" target="pz5CJEBABPtMnbNcCvbR-549" edge="1">
          <mxGeometry relative="1" as="geometry">
            <Array as="points">
              <mxPoint x="810" y="700" />
              <mxPoint x="810" y="1100" />
              <mxPoint x="908" y="1100" />
            </Array>
            <mxPoint x="720" y="800" as="sourcePoint" />
            <mxPoint x="810" y="400" as="targetPoint" />
          </mxGeometry>
        </mxCell>
        <mxCell id="pz5CJEBABPtMnbNcCvbR-196" style="edgeStyle=orthogonalEdgeStyle;rounded=0;orthogonalLoop=1;jettySize=auto;html=1;entryX=0;entryY=0.5;entryDx=0;entryDy=0;dashed=1;exitX=1;exitY=0.5;exitDx=0;exitDy=0;" parent="1" source="pz5CJEBABPtMnbNcCvbR-200" target="pz5CJEBABPtMnbNcCvbR-198" edge="1">
          <mxGeometry relative="1" as="geometry">
            <mxPoint x="2320" y="100" as="sourcePoint" />
          </mxGeometry>
        </mxCell>
        <mxCell id="pz5CJEBABPtMnbNcCvbR-197" value="Uses" style="edgeLabel;html=1;align=center;verticalAlign=middle;resizable=0;points=[];" parent="pz5CJEBABPtMnbNcCvbR-196" connectable="0" vertex="1">
          <mxGeometry x="-0.0245" y="-5" relative="1" as="geometry">
            <mxPoint y="-20" as="offset" />
          </mxGeometry>
        </mxCell>
        <mxCell id="pz5CJEBABPtMnbNcCvbR-198" value="Database" style="swimlane;whiteSpace=wrap;html=1;" parent="1" vertex="1">
          <mxGeometry x="2780" y="595" width="200" height="200" as="geometry" />
        </mxCell>
        <mxCell id="pz5CJEBABPtMnbNcCvbR-199" value="Flight&lt;br&gt;Database" style="shape=cylinder3;whiteSpace=wrap;html=1;boundedLbl=1;backgroundOutline=1;size=15;" parent="pz5CJEBABPtMnbNcCvbR-198" vertex="1">
          <mxGeometry x="70" y="70" width="60" height="80" as="geometry" />
        </mxCell>
        <mxCell id="pz5CJEBABPtMnbNcCvbR-200" value="Repository" style="swimlane;whiteSpace=wrap;html=1;" parent="1" vertex="1">
          <mxGeometry x="2110" y="-40" width="550" height="1470" as="geometry" />
        </mxCell>
        <mxCell id="pz5CJEBABPtMnbNcCvbR-339" value="&amp;lt;&amp;lt;boundary&amp;gt;.&lt;br&gt;&lt;i&gt;AircraftRepository&lt;/i&gt;" style="swimlane;fontStyle=1;align=center;verticalAlign=top;childLayout=stackLayout;horizontal=1;startSize=41;horizontalStack=0;resizeParent=1;resizeParentMax=0;resizeLast=0;collapsible=1;marginBottom=0;whiteSpace=wrap;html=1;" parent="pz5CJEBABPtMnbNcCvbR-200" vertex="1">
          <mxGeometry x="170" y="47" width="205" height="180" as="geometry" />
        </mxCell>
        <mxCell id="pz5CJEBABPtMnbNcCvbR-341" value="" style="line;strokeWidth=1;fillColor=none;align=left;verticalAlign=middle;spacingTop=-1;spacingLeft=3;spacingRight=3;rotatable=0;labelPosition=right;points=[];portConstraint=eastwest;strokeColor=inherit;" parent="pz5CJEBABPtMnbNcCvbR-339" vertex="1">
          <mxGeometry y="41" width="205" height="8" as="geometry" />
        </mxCell>
        <mxCell id="pz5CJEBABPtMnbNcCvbR-342" value="+ findByAircraftID(aircraftID: int): Aircraft&lt;br&gt;+ save: Aircraft(aircraft: Aircraft): Aircraft&lt;br&gt;+ findByModel(model: String):List&amp;lt;Aircraft&amp;gt;&lt;br&gt;+ seleteByAircraftID(aircraftID: int): void" style="text;strokeColor=none;fillColor=none;align=left;verticalAlign=top;spacingLeft=4;spacingRight=4;overflow=hidden;rotatable=0;points=[[0,0.5],[1,0.5]];portConstraint=eastwest;whiteSpace=wrap;html=1;" parent="pz5CJEBABPtMnbNcCvbR-339" vertex="1">
          <mxGeometry y="49" width="205" height="131" as="geometry" />
        </mxCell>
        <mxCell id="pz5CJEBABPtMnbNcCvbR-344" value="&amp;lt;&amp;lt;boundary&amp;gt;.&lt;br&gt;&lt;i&gt;CrewflightsRepository&lt;/i&gt;" style="swimlane;fontStyle=1;align=center;verticalAlign=top;childLayout=stackLayout;horizontal=1;startSize=41;horizontalStack=0;resizeParent=1;resizeParentMax=0;resizeLast=0;collapsible=1;marginBottom=0;whiteSpace=wrap;html=1;" parent="pz5CJEBABPtMnbNcCvbR-200" vertex="1">
          <mxGeometry x="170" y="250" width="205" height="190" as="geometry" />
        </mxCell>
        <mxCell id="pz5CJEBABPtMnbNcCvbR-345" value="" style="line;strokeWidth=1;fillColor=none;align=left;verticalAlign=middle;spacingTop=-1;spacingLeft=3;spacingRight=3;rotatable=0;labelPosition=right;points=[];portConstraint=eastwest;strokeColor=inherit;" parent="pz5CJEBABPtMnbNcCvbR-344" vertex="1">
          <mxGeometry y="41" width="205" height="8" as="geometry" />
        </mxCell>
        <mxCell id="pz5CJEBABPtMnbNcCvbR-346" value="+ findByCrewID(crewID: int): Optional&amp;lt;Crewflights&amp;gt;&lt;br&gt;+ save: Crewflights(crewflights: Crewflights): Crewflights&lt;br&gt;+ findByFlightID(flightID: int): List&amp;lt;Crewflights&amp;gt;&lt;br&gt;+ deleteByUserIdAndFlightID(userID: int, flightID: int): void" style="text;strokeColor=none;fillColor=none;align=left;verticalAlign=top;spacingLeft=4;spacingRight=4;overflow=hidden;rotatable=0;points=[[0,0.5],[1,0.5]];portConstraint=eastwest;whiteSpace=wrap;html=1;" parent="pz5CJEBABPtMnbNcCvbR-344" vertex="1">
          <mxGeometry y="49" width="205" height="141" as="geometry" />
        </mxCell>
        <mxCell id="pz5CJEBABPtMnbNcCvbR-348" value="&amp;lt;&amp;lt;boundary&amp;gt;.&lt;br&gt;&lt;i&gt;FlightRepository&lt;/i&gt;" style="swimlane;fontStyle=1;align=center;verticalAlign=top;childLayout=stackLayout;horizontal=1;startSize=41;horizontalStack=0;resizeParent=1;resizeParentMax=0;resizeLast=0;collapsible=1;marginBottom=0;whiteSpace=wrap;html=1;" parent="pz5CJEBABPtMnbNcCvbR-200" vertex="1">
          <mxGeometry x="150" y="470" width="250" height="220" as="geometry" />
        </mxCell>
        <mxCell id="pz5CJEBABPtMnbNcCvbR-349" value="" style="line;strokeWidth=1;fillColor=none;align=left;verticalAlign=middle;spacingTop=-1;spacingLeft=3;spacingRight=3;rotatable=0;labelPosition=right;points=[];portConstraint=eastwest;strokeColor=inherit;" parent="pz5CJEBABPtMnbNcCvbR-348" vertex="1">
          <mxGeometry y="41" width="250" height="8" as="geometry" />
        </mxCell>
        <mxCell id="pz5CJEBABPtMnbNcCvbR-350" value="+ findByFlightID(flightID: int): Flight&lt;br&gt;+ findByCode(code: String): Optional&amp;lt;Flight&amp;gt;&lt;br&gt;+ findByDate(date: String): List&amp;lt;Flight&amp;gt;&lt;br&gt;+findByDateAndOriginAndDestination(origin: String, date: String, destination: String) List&amp;lt;Flight&amp;gt;&lt;br&gt;+findByOriginAndDestination(origin: String, destination: String) List&amp;lt;Flight&amp;gt;&lt;br&gt;+ findByCodeAndDate(code: String, date: String): Optional&amp;lt;Flight&amp;gt;&lt;br&gt;+ deleteByFlightID(flightID: int): void" style="text;strokeColor=none;fillColor=none;align=left;verticalAlign=top;spacingLeft=4;spacingRight=4;overflow=hidden;rotatable=0;points=[[0,0.5],[1,0.5]];portConstraint=eastwest;whiteSpace=wrap;html=1;" parent="pz5CJEBABPtMnbNcCvbR-348" vertex="1">
          <mxGeometry y="49" width="250" height="171" as="geometry" />
        </mxCell>
        <mxCell id="pz5CJEBABPtMnbNcCvbR-353" value="&amp;lt;&amp;lt;boundary&amp;gt;.&lt;br&gt;&lt;i&gt;PaymentRepository&lt;/i&gt;" style="swimlane;fontStyle=1;align=center;verticalAlign=top;childLayout=stackLayout;horizontal=1;startSize=41;horizontalStack=0;resizeParent=1;resizeParentMax=0;resizeLast=0;collapsible=1;marginBottom=0;whiteSpace=wrap;html=1;" parent="pz5CJEBABPtMnbNcCvbR-200" vertex="1">
          <mxGeometry x="145" y="720" width="250" height="130" as="geometry" />
        </mxCell>
        <mxCell id="pz5CJEBABPtMnbNcCvbR-354" value="" style="line;strokeWidth=1;fillColor=none;align=left;verticalAlign=middle;spacingTop=-1;spacingLeft=3;spacingRight=3;rotatable=0;labelPosition=right;points=[];portConstraint=eastwest;strokeColor=inherit;" parent="pz5CJEBABPtMnbNcCvbR-353" vertex="1">
          <mxGeometry y="41" width="250" height="8" as="geometry" />
        </mxCell>
        <mxCell id="pz5CJEBABPtMnbNcCvbR-355" value="+ findByPaymentID(paymentID: int): Optional&amp;lt;Payment&amp;gt;&lt;br&gt;+ findByUserID(userD: int): List&amp;lt;Payment&amp;gt;&lt;br&gt;+ save(payment: Payment): Payment&lt;br&gt;+ deleteByPaymentID(PaymentID: int): void" style="text;strokeColor=none;fillColor=none;align=left;verticalAlign=top;spacingLeft=4;spacingRight=4;overflow=hidden;rotatable=0;points=[[0,0.5],[1,0.5]];portConstraint=eastwest;whiteSpace=wrap;html=1;" parent="pz5CJEBABPtMnbNcCvbR-353" vertex="1">
          <mxGeometry y="49" width="250" height="81" as="geometry" />
        </mxCell>
        <mxCell id="pz5CJEBABPtMnbNcCvbR-360" value="&amp;lt;&amp;lt;boundary&amp;gt;.&lt;br&gt;&lt;i&gt;SeatRepository&lt;/i&gt;" style="swimlane;fontStyle=1;align=center;verticalAlign=top;childLayout=stackLayout;horizontal=1;startSize=41;horizontalStack=0;resizeParent=1;resizeParentMax=0;resizeLast=0;collapsible=1;marginBottom=0;whiteSpace=wrap;html=1;" parent="pz5CJEBABPtMnbNcCvbR-200" vertex="1">
          <mxGeometry x="140" y="880" width="250" height="130" as="geometry" />
        </mxCell>
        <mxCell id="pz5CJEBABPtMnbNcCvbR-361" value="" style="line;strokeWidth=1;fillColor=none;align=left;verticalAlign=middle;spacingTop=-1;spacingLeft=3;spacingRight=3;rotatable=0;labelPosition=right;points=[];portConstraint=eastwest;strokeColor=inherit;" parent="pz5CJEBABPtMnbNcCvbR-360" vertex="1">
          <mxGeometry y="41" width="250" height="8" as="geometry" />
        </mxCell>
        <mxCell id="pz5CJEBABPtMnbNcCvbR-362" value="+ findBySeatD(seatID: int): Seat&lt;br&gt;+ findByAircraftID(aircraftID: int): List&amp;lt;Seat&amp;gt;&lt;br&gt;+ findByFlightID(flightID: int): List&amp;lt;Seat&amp;gt;&lt;br style=&quot;border-color: var(--border-color);&quot;&gt;+ findBookedSeats(flightID: int): List&amp;lt;Seat&amp;gt;" style="text;strokeColor=none;fillColor=none;align=left;verticalAlign=top;spacingLeft=4;spacingRight=4;overflow=hidden;rotatable=0;points=[[0,0.5],[1,0.5]];portConstraint=eastwest;whiteSpace=wrap;html=1;" parent="pz5CJEBABPtMnbNcCvbR-360" vertex="1">
          <mxGeometry y="49" width="250" height="81" as="geometry" />
        </mxCell>
        <mxCell id="pz5CJEBABPtMnbNcCvbR-364" value="&amp;lt;&amp;lt;boundary&amp;gt;.&lt;br&gt;&lt;i&gt;TicketRepository&lt;/i&gt;" style="swimlane;fontStyle=1;align=center;verticalAlign=top;childLayout=stackLayout;horizontal=1;startSize=41;horizontalStack=0;resizeParent=1;resizeParentMax=0;resizeLast=0;collapsible=1;marginBottom=0;whiteSpace=wrap;html=1;" parent="pz5CJEBABPtMnbNcCvbR-200" vertex="1">
          <mxGeometry x="140" y="1040" width="250" height="220" as="geometry" />
        </mxCell>
        <mxCell id="pz5CJEBABPtMnbNcCvbR-365" value="" style="line;strokeWidth=1;fillColor=none;align=left;verticalAlign=middle;spacingTop=-1;spacingLeft=3;spacingRight=3;rotatable=0;labelPosition=right;points=[];portConstraint=eastwest;strokeColor=inherit;" parent="pz5CJEBABPtMnbNcCvbR-364" vertex="1">
          <mxGeometry y="41" width="250" height="8" as="geometry" />
        </mxCell>
        <mxCell id="pz5CJEBABPtMnbNcCvbR-366" value="&lt;div&gt;&lt;span style=&quot;background-color: initial;&quot;&gt;+findByTicketID(ticketID: int): &lt;/span&gt;&lt;span style=&quot;background-color: initial;&quot;&gt;+findByTicketIDAndUserID(ticketID: int, userID: int): Ticket&lt;/span&gt;&lt;/div&gt;&lt;div&gt;+findByUserID(userID: int): List&amp;lt;Ticket&amp;gt;&lt;/div&gt;&lt;div&gt;+findByFlightID(flightID: int): List&amp;lt;Ticket&amp;gt;&lt;/div&gt;&lt;div&gt;+findByFlightIDAndUserID(flightID: int, userID: int): List&amp;lt;Ticket&amp;gt;&lt;/div&gt;&lt;div&gt;+findByTicketIDAndName(ticketID: int, name: String): List&amp;lt;Ticket&amp;gt;&lt;/div&gt;&lt;div&gt;+save(ticket: Ticket): Ticket&lt;/div&gt;&lt;div&gt;+deleteByTicketID(ticketID: int): void&lt;/div&gt;&lt;div&gt;&lt;br&gt;&lt;/div&gt;&lt;div&gt;&lt;br&gt;&lt;/div&gt;" style="text;strokeColor=none;fillColor=none;align=left;verticalAlign=top;spacingLeft=4;spacingRight=4;overflow=hidden;rotatable=0;points=[[0,0.5],[1,0.5]];portConstraint=eastwest;whiteSpace=wrap;html=1;" parent="pz5CJEBABPtMnbNcCvbR-364" vertex="1">
          <mxGeometry y="49" width="250" height="171" as="geometry" />
        </mxCell>
        <mxCell id="pz5CJEBABPtMnbNcCvbR-368" value="&amp;lt;&amp;lt;boundary&amp;gt;.&lt;br&gt;&lt;i&gt;UserRepository&lt;/i&gt;" style="swimlane;fontStyle=1;align=center;verticalAlign=top;childLayout=stackLayout;horizontal=1;startSize=41;horizontalStack=0;resizeParent=1;resizeParentMax=0;resizeLast=0;collapsible=1;marginBottom=0;whiteSpace=wrap;html=1;" parent="pz5CJEBABPtMnbNcCvbR-200" vertex="1">
          <mxGeometry x="145" y="1280" width="250" height="160" as="geometry" />
        </mxCell>
        <mxCell id="pz5CJEBABPtMnbNcCvbR-369" value="" style="line;strokeWidth=1;fillColor=none;align=left;verticalAlign=middle;spacingTop=-1;spacingLeft=3;spacingRight=3;rotatable=0;labelPosition=right;points=[];portConstraint=eastwest;strokeColor=inherit;" parent="pz5CJEBABPtMnbNcCvbR-368" vertex="1">
          <mxGeometry y="41" width="250" height="8" as="geometry" />
        </mxCell>
        <mxCell id="pz5CJEBABPtMnbNcCvbR-370" value="&lt;div&gt;&lt;div&gt;&lt;span style=&quot;background-color: initial;&quot;&gt;+findByUserID(userID: int): User&lt;/span&gt;&lt;br&gt;&lt;/div&gt;&lt;div&gt;+findByUsername(username: String): User&lt;/div&gt;&lt;div&gt;+findByRoleID(roleID: int): List&amp;lt;User&amp;gt;&lt;/div&gt;&lt;div&gt;+findByCard(hasCard: boolean): List&amp;lt;User&amp;gt;&lt;/div&gt;&lt;div&gt;+findByUsernameAndPassword(username: String, password: String): Optional&amp;lt;User&amp;gt;&lt;/div&gt;&lt;div&gt;+save(user: User): User&lt;/div&gt;&lt;div&gt;&lt;br&gt;&lt;/div&gt;&lt;/div&gt;&lt;div&gt;&lt;br&gt;&lt;/div&gt;" style="text;strokeColor=none;fillColor=none;align=left;verticalAlign=top;spacingLeft=4;spacingRight=4;overflow=hidden;rotatable=0;points=[[0,0.5],[1,0.5]];portConstraint=eastwest;whiteSpace=wrap;html=1;" parent="pz5CJEBABPtMnbNcCvbR-368" vertex="1">
          <mxGeometry y="49" width="250" height="111" as="geometry" />
        </mxCell>
        <mxCell id="pz5CJEBABPtMnbNcCvbR-234" style="edgeStyle=orthogonalEdgeStyle;rounded=0;orthogonalLoop=1;jettySize=auto;html=1;startArrow=none;startFill=0;endArrow=none;endFill=0;jumpStyle=arc;jumpSize=10;exitX=1;exitY=0.5;exitDx=0;exitDy=0;entryX=-0.003;entryY=0.776;entryDx=0;entryDy=0;entryPerimeter=0;" parent="1" source="pz5CJEBABPtMnbNcCvbR-229" target="pz5CJEBABPtMnbNcCvbR-521" edge="1">
          <mxGeometry relative="1" as="geometry">
            <Array as="points">
              <mxPoint x="720" y="860" />
              <mxPoint x="720" y="390" />
            </Array>
            <mxPoint x="720" y="810" as="sourcePoint" />
            <mxPoint x="1173" y="493" as="targetPoint" />
          </mxGeometry>
        </mxCell>
        <mxCell id="pz5CJEBABPtMnbNcCvbR-244" style="edgeStyle=orthogonalEdgeStyle;rounded=0;orthogonalLoop=1;jettySize=auto;html=1;startArrow=none;startFill=0;endArrow=none;endFill=0;jumpStyle=arc;jumpSize=10;exitX=1;exitY=0.5;exitDx=0;exitDy=0;" parent="1" source="pz5CJEBABPtMnbNcCvbR-216" edge="1">
          <mxGeometry relative="1" as="geometry">
            <Array as="points">
              <mxPoint x="110" y="945" />
              <mxPoint x="110" y="1240" />
            </Array>
            <mxPoint x="200" y="1190" as="sourcePoint" />
            <mxPoint x="470" y="1240" as="targetPoint" />
          </mxGeometry>
        </mxCell>
        <mxCell id="pz5CJEBABPtMnbNcCvbR-245" style="edgeStyle=orthogonalEdgeStyle;rounded=0;orthogonalLoop=1;jettySize=auto;html=1;startArrow=none;startFill=0;endArrow=none;endFill=0;jumpStyle=arc;jumpSize=10;exitX=1.009;exitY=0.014;exitDx=0;exitDy=0;exitPerimeter=0;entryX=-0.004;entryY=0.379;entryDx=0;entryDy=0;entryPerimeter=0;" parent="1" source="pz5CJEBABPtMnbNcCvbR-243" target="pz5CJEBABPtMnbNcCvbR-546" edge="1">
          <mxGeometry relative="1" as="geometry">
            <Array as="points">
              <mxPoint x="870" y="1240" />
              <mxPoint x="870" y="890" />
              <mxPoint x="909" y="890" />
            </Array>
            <mxPoint x="740" y="1140" as="sourcePoint" />
            <mxPoint x="1030" y="1285" as="targetPoint" />
          </mxGeometry>
        </mxCell>
        <mxCell id="pz5CJEBABPtMnbNcCvbR-246" style="edgeStyle=orthogonalEdgeStyle;rounded=0;orthogonalLoop=1;jettySize=auto;html=1;startArrow=none;startFill=0;endArrow=none;endFill=0;jumpStyle=arc;jumpSize=10;exitX=0.993;exitY=-0.073;exitDx=0;exitDy=0;exitPerimeter=0;entryX=0;entryY=0.192;entryDx=0;entryDy=0;entryPerimeter=0;" parent="1" source="pz5CJEBABPtMnbNcCvbR-238" target="pz5CJEBABPtMnbNcCvbR-521" edge="1">
          <mxGeometry relative="1" as="geometry">
            <Array as="points">
              <mxPoint x="820" y="1034" />
              <mxPoint x="820" y="221" />
              <mxPoint x="905" y="221" />
            </Array>
            <mxPoint x="1070" y="1120" as="sourcePoint" />
            <mxPoint x="1442" y="509" as="targetPoint" />
          </mxGeometry>
        </mxCell>
        <mxCell id="pz5CJEBABPtMnbNcCvbR-247" style="edgeStyle=orthogonalEdgeStyle;rounded=0;orthogonalLoop=1;jettySize=auto;html=1;startArrow=none;startFill=0;endArrow=none;endFill=0;jumpStyle=arc;jumpSize=10;exitX=1;exitY=0.25;exitDx=0;exitDy=0;" parent="1" source="pz5CJEBABPtMnbNcCvbR-220" edge="1">
          <mxGeometry relative="1" as="geometry">
            <Array as="points">
              <mxPoint x="15" y="1130" />
              <mxPoint x="275" y="1130" />
              <mxPoint x="275" y="1261" />
              <mxPoint x="470" y="1261" />
            </Array>
            <mxPoint x="180" y="1160" as="sourcePoint" />
            <mxPoint x="470" y="1260" as="targetPoint" />
          </mxGeometry>
        </mxCell>
        <mxCell id="pz5CJEBABPtMnbNcCvbR-259" style="edgeStyle=orthogonalEdgeStyle;rounded=0;orthogonalLoop=1;jettySize=auto;html=1;startArrow=none;startFill=0;endArrow=none;endFill=0;jumpStyle=arc;jumpSize=10;exitX=0.989;exitY=0.108;exitDx=0;exitDy=0;exitPerimeter=0;" parent="1" source="pz5CJEBABPtMnbNcCvbR-402" edge="1">
          <mxGeometry relative="1" as="geometry">
            <Array as="points">
              <mxPoint x="40" y="1199" />
              <mxPoint x="40" y="1320" />
              <mxPoint x="110" y="1320" />
              <mxPoint x="110" y="1380" />
            </Array>
            <mxPoint y="1360" as="sourcePoint" />
            <mxPoint x="471" y="1380" as="targetPoint" />
          </mxGeometry>
        </mxCell>
        <mxCell id="pz5CJEBABPtMnbNcCvbR-260" style="edgeStyle=orthogonalEdgeStyle;rounded=0;orthogonalLoop=1;jettySize=auto;html=1;startArrow=none;startFill=0;endArrow=none;endFill=0;jumpStyle=arc;jumpSize=10;exitX=1.009;exitY=0.182;exitDx=0;exitDy=0;exitPerimeter=0;entryX=-0.001;entryY=0.287;entryDx=0;entryDy=0;entryPerimeter=0;" parent="1" source="pz5CJEBABPtMnbNcCvbR-255" target="pz5CJEBABPtMnbNcCvbR-532" edge="1">
          <mxGeometry relative="1" as="geometry">
            <Array as="points">
              <mxPoint x="850" y="1391" />
              <mxPoint x="850" y="670" />
            </Array>
            <mxPoint x="960" y="1440" as="sourcePoint" />
            <mxPoint x="1412" y="829" as="targetPoint" />
          </mxGeometry>
        </mxCell>
        <mxCell id="pz5CJEBABPtMnbNcCvbR-265" style="edgeStyle=orthogonalEdgeStyle;rounded=0;orthogonalLoop=1;jettySize=auto;html=1;startArrow=none;startFill=0;endArrow=none;endFill=0;jumpStyle=arc;jumpSize=10;exitX=0.995;exitY=0.337;exitDx=0;exitDy=0;entryX=-0.007;entryY=0.39;entryDx=0;entryDy=0;entryPerimeter=0;exitPerimeter=0;" parent="1" source="pz5CJEBABPtMnbNcCvbR-418" target="pz5CJEBABPtMnbNcCvbR-243" edge="1">
          <mxGeometry relative="1" as="geometry">
            <Array as="points">
              <mxPoint x="20" y="1389" />
              <mxPoint x="20" y="1470" />
              <mxPoint x="230" y="1470" />
              <mxPoint x="230" y="1275" />
            </Array>
            <mxPoint x="150" y="1470" as="sourcePoint" />
            <mxPoint x="230" y="1310" as="targetPoint" />
          </mxGeometry>
        </mxCell>
        <mxCell id="pz5CJEBABPtMnbNcCvbR-275" value="1" style="text;html=1;align=center;verticalAlign=middle;resizable=0;points=[];autosize=1;strokeColor=none;fillColor=none;" parent="1" vertex="1">
          <mxGeometry x="445" y="568" width="30" height="30" as="geometry" />
        </mxCell>
        <mxCell id="pz5CJEBABPtMnbNcCvbR-278" value="1" style="text;html=1;align=center;verticalAlign=middle;resizable=0;points=[];autosize=1;strokeColor=none;fillColor=none;" parent="1" vertex="1">
          <mxGeometry x="445" y="668" width="30" height="30" as="geometry" />
        </mxCell>
        <mxCell id="pz5CJEBABPtMnbNcCvbR-281" value="1" style="text;html=1;align=center;verticalAlign=middle;resizable=0;points=[];autosize=1;strokeColor=none;fillColor=none;" parent="1" vertex="1">
          <mxGeometry x="200" y="908" width="30" height="30" as="geometry" />
        </mxCell>
        <mxCell id="pz5CJEBABPtMnbNcCvbR-293" style="edgeStyle=orthogonalEdgeStyle;rounded=0;orthogonalLoop=1;jettySize=auto;html=1;startArrow=none;startFill=0;endArrow=none;endFill=0;jumpStyle=arc;jumpSize=10;exitX=1;exitY=0.5;exitDx=0;exitDy=0;entryX=0;entryY=0.5;entryDx=0;entryDy=0;" parent="1" source="pz5CJEBABPtMnbNcCvbR-290" target="pz5CJEBABPtMnbNcCvbR-168" edge="1">
          <mxGeometry relative="1" as="geometry">
            <Array as="points">
              <mxPoint x="200" y="1595" />
              <mxPoint x="200" y="427" />
            </Array>
            <mxPoint x="150" y="1700" as="sourcePoint" />
            <mxPoint x="604" y="1525" as="targetPoint" />
          </mxGeometry>
        </mxCell>
        <mxCell id="pz5CJEBABPtMnbNcCvbR-295" value="1" style="text;html=1;align=center;verticalAlign=middle;resizable=0;points=[];autosize=1;strokeColor=none;fillColor=none;" parent="1" vertex="1">
          <mxGeometry x="435" y="428" width="30" height="30" as="geometry" />
        </mxCell>
        <mxCell id="pz5CJEBABPtMnbNcCvbR-304" style="edgeStyle=orthogonalEdgeStyle;rounded=0;orthogonalLoop=1;jettySize=auto;html=1;startArrow=none;startFill=0;endArrow=none;endFill=0;jumpStyle=arc;jumpSize=10;exitX=0.981;exitY=0.823;exitDx=0;exitDy=0;exitPerimeter=0;entryX=0.013;entryY=0.998;entryDx=0;entryDy=0;entryPerimeter=0;" parent="1" source="pz5CJEBABPtMnbNcCvbR-216" target="pz5CJEBABPtMnbNcCvbR-301" edge="1">
          <mxGeometry relative="1" as="geometry">
            <Array as="points">
              <mxPoint x="-170" y="921" />
              <mxPoint x="-170" y="981" />
              <mxPoint x="90" y="981" />
              <mxPoint x="90" y="1630" />
            </Array>
            <mxPoint x="80" y="1010" as="sourcePoint" />
            <mxPoint x="420" y="1630" as="targetPoint" />
          </mxGeometry>
        </mxCell>
        <mxCell id="pz5CJEBABPtMnbNcCvbR-307" style="edgeStyle=orthogonalEdgeStyle;rounded=0;orthogonalLoop=1;jettySize=auto;html=1;startArrow=none;startFill=0;endArrow=none;endFill=0;jumpStyle=arc;jumpSize=10;exitX=0.995;exitY=0.744;exitDx=0;exitDy=0;exitPerimeter=0;" parent="1" source="pz5CJEBABPtMnbNcCvbR-395" edge="1">
          <mxGeometry relative="1" as="geometry">
            <Array as="points">
              <mxPoint x="-9" y="1683" />
              <mxPoint x="-9" y="1680" />
              <mxPoint x="250" y="1680" />
              <mxPoint x="250" y="550" />
            </Array>
            <mxPoint x="10" y="1780" as="sourcePoint" />
            <mxPoint x="470" y="550" as="targetPoint" />
          </mxGeometry>
        </mxCell>
        <mxCell id="pz5CJEBABPtMnbNcCvbR-308" value="1" style="text;html=1;align=center;verticalAlign=middle;resizable=0;points=[];autosize=1;strokeColor=none;fillColor=none;" parent="1" vertex="1">
          <mxGeometry x="435" y="518" width="30" height="30" as="geometry" />
        </mxCell>
        <mxCell id="pz5CJEBABPtMnbNcCvbR-311" style="edgeStyle=orthogonalEdgeStyle;rounded=0;orthogonalLoop=1;jettySize=auto;html=1;startArrow=none;startFill=0;endArrow=none;endFill=0;jumpStyle=arc;jumpSize=10;exitX=0.997;exitY=0.412;exitDx=0;exitDy=0;exitPerimeter=0;" parent="1" source="pz5CJEBABPtMnbNcCvbR-546" edge="1">
          <mxGeometry relative="1" as="geometry">
            <Array as="points">
              <mxPoint x="1300" y="898" />
              <mxPoint x="1300" y="620" />
            </Array>
            <mxPoint x="880" y="1590" as="sourcePoint" />
            <mxPoint x="1500" y="620" as="targetPoint" />
          </mxGeometry>
        </mxCell>
        <mxCell id="pz5CJEBABPtMnbNcCvbR-316" style="edgeStyle=orthogonalEdgeStyle;rounded=0;orthogonalLoop=1;jettySize=auto;html=1;startArrow=none;startFill=0;endArrow=none;endFill=0;jumpStyle=arc;jumpSize=10;exitX=1.015;exitY=0.224;exitDx=0;exitDy=0;exitPerimeter=0;entryX=-0.003;entryY=0.738;entryDx=0;entryDy=0;entryPerimeter=0;" parent="1" source="pz5CJEBABPtMnbNcCvbR-216" target="pz5CJEBABPtMnbNcCvbR-313" edge="1">
          <mxGeometry relative="1" as="geometry">
            <Array as="points">
              <mxPoint x="-227" y="850" />
              <mxPoint x="185" y="850" />
              <mxPoint x="185" y="1784" />
            </Array>
            <mxPoint x="90" y="890" as="sourcePoint" />
            <mxPoint x="545" y="1185" as="targetPoint" />
          </mxGeometry>
        </mxCell>
        <mxCell id="pz5CJEBABPtMnbNcCvbR-327" style="edgeStyle=orthogonalEdgeStyle;rounded=0;orthogonalLoop=1;jettySize=auto;html=1;startArrow=none;startFill=0;endArrow=none;endFill=0;jumpStyle=arc;jumpSize=10;exitX=1.007;exitY=0.023;exitDx=0;exitDy=0;entryX=0.553;entryY=1.034;entryDx=0;entryDy=0;entryPerimeter=0;exitPerimeter=0;" parent="1" source="pz5CJEBABPtMnbNcCvbR-542" target="pz5CJEBABPtMnbNcCvbR-126" edge="1">
          <mxGeometry relative="1" as="geometry">
            <Array as="points">
              <mxPoint x="1192" y="1772" />
              <mxPoint x="1335" y="1772" />
              <mxPoint x="1335" y="80" />
              <mxPoint x="1494" y="80" />
            </Array>
            <mxPoint x="679.9999999999999" y="1771.6599999999999" as="sourcePoint" />
            <mxPoint x="1490" y="80" as="targetPoint" />
          </mxGeometry>
        </mxCell>
        <mxCell id="pz5CJEBABPtMnbNcCvbR-336" style="edgeStyle=orthogonalEdgeStyle;rounded=0;orthogonalLoop=1;jettySize=auto;html=1;startArrow=none;startFill=0;endArrow=none;endFill=0;jumpStyle=arc;jumpSize=10;exitX=1;exitY=-1.25;exitDx=0;exitDy=0;entryX=0;entryY=0.25;entryDx=0;entryDy=0;exitPerimeter=0;" parent="1" source="pz5CJEBABPtMnbNcCvbR-536" target="pz5CJEBABPtMnbNcCvbR-40" edge="1">
          <mxGeometry relative="1" as="geometry">
            <Array as="points">
              <mxPoint x="1370" y="2080" />
              <mxPoint x="1370" y="540" />
            </Array>
            <mxPoint x="1080" y="2090" as="sourcePoint" />
            <mxPoint x="1613" y="400" as="targetPoint" />
          </mxGeometry>
        </mxCell>
        <mxCell id="pz5CJEBABPtMnbNcCvbR-343" style="edgeStyle=orthogonalEdgeStyle;rounded=0;orthogonalLoop=1;jettySize=auto;html=1;startArrow=none;startFill=0;endArrow=none;endFill=0;jumpStyle=arc;jumpSize=10;entryX=0.009;entryY=0.406;entryDx=0;entryDy=0;entryPerimeter=0;" parent="1" target="pz5CJEBABPtMnbNcCvbR-342" edge="1">
          <mxGeometry relative="1" as="geometry">
            <Array as="points">
              <mxPoint x="1420" y="380" />
              <mxPoint x="1420" y="109" />
            </Array>
            <mxPoint x="1500" y="380" as="sourcePoint" />
            <mxPoint x="2271" y="-1355" as="targetPoint" />
          </mxGeometry>
        </mxCell>
        <mxCell id="pz5CJEBABPtMnbNcCvbR-347" style="edgeStyle=orthogonalEdgeStyle;rounded=0;orthogonalLoop=1;jettySize=auto;html=1;startArrow=none;startFill=0;endArrow=none;endFill=0;jumpStyle=arc;jumpSize=10;exitX=1;exitY=0.75;exitDx=0;exitDy=0;entryX=0;entryY=0.345;entryDx=0;entryDy=0;entryPerimeter=0;" parent="1" source="pz5CJEBABPtMnbNcCvbR-35" target="pz5CJEBABPtMnbNcCvbR-346" edge="1">
          <mxGeometry relative="1" as="geometry">
            <Array as="points">
              <mxPoint x="1820" y="220" />
              <mxPoint x="1820" y="308" />
            </Array>
            <mxPoint x="1500" y="230" as="sourcePoint" />
            <mxPoint x="1820" y="350" as="targetPoint" />
          </mxGeometry>
        </mxCell>
        <mxCell id="pz5CJEBABPtMnbNcCvbR-351" style="edgeStyle=orthogonalEdgeStyle;rounded=0;orthogonalLoop=1;jettySize=auto;html=1;startArrow=none;startFill=0;endArrow=none;endFill=0;jumpStyle=arc;jumpSize=10;exitX=1;exitY=-0.018;exitDx=0;exitDy=0;exitPerimeter=0;entryX=0.003;entryY=0.886;entryDx=0;entryDy=0;entryPerimeter=0;" parent="1" source="pz5CJEBABPtMnbNcCvbR-112" target="pz5CJEBABPtMnbNcCvbR-350" edge="1">
          <mxGeometry relative="1" as="geometry">
            <Array as="points">
              <mxPoint x="1650" y="310" />
              <mxPoint x="1650" y="570" />
              <mxPoint x="1670" y="570" />
              <mxPoint x="1670" y="630" />
            </Array>
            <mxPoint x="1540" y="310" as="sourcePoint" />
            <mxPoint x="1670" y="630" as="targetPoint" />
          </mxGeometry>
        </mxCell>
        <mxCell id="pz5CJEBABPtMnbNcCvbR-356" style="edgeStyle=orthogonalEdgeStyle;rounded=0;orthogonalLoop=1;jettySize=auto;html=1;startArrow=none;startFill=0;endArrow=none;endFill=0;jumpStyle=arc;jumpSize=10;entryX=0.007;entryY=0.317;entryDx=0;entryDy=0;entryPerimeter=0;" parent="1" target="pz5CJEBABPtMnbNcCvbR-355" edge="1">
          <mxGeometry relative="1" as="geometry">
            <Array as="points">
              <mxPoint x="1460" y="630" />
              <mxPoint x="1460" y="755" />
            </Array>
            <mxPoint x="1500" y="630" as="sourcePoint" />
            <mxPoint x="2391" y="946" as="targetPoint" />
          </mxGeometry>
        </mxCell>
        <mxCell id="pz5CJEBABPtMnbNcCvbR-363" style="edgeStyle=orthogonalEdgeStyle;rounded=0;orthogonalLoop=1;jettySize=auto;html=1;startArrow=none;startFill=0;endArrow=none;endFill=0;jumpStyle=arc;jumpSize=10;entryX=0;entryY=0.5;entryDx=0;entryDy=0;exitX=1;exitY=1;exitDx=0;exitDy=0;" parent="1" source="pz5CJEBABPtMnbNcCvbR-41" target="pz5CJEBABPtMnbNcCvbR-360" edge="1">
          <mxGeometry relative="1" as="geometry">
            <Array as="points">
              <mxPoint x="1300" y="490" />
              <mxPoint x="1300" y="690" />
              <mxPoint x="1700" y="690" />
              <mxPoint x="1700" y="900" />
              <mxPoint x="1870" y="900" />
            </Array>
            <mxPoint x="1520" y="730" as="sourcePoint" />
            <mxPoint x="2201" y="985" as="targetPoint" />
          </mxGeometry>
        </mxCell>
        <mxCell id="pz5CJEBABPtMnbNcCvbR-367" style="edgeStyle=orthogonalEdgeStyle;rounded=0;orthogonalLoop=1;jettySize=auto;html=1;startArrow=none;startFill=0;endArrow=none;endFill=0;jumpStyle=arc;jumpSize=10;entryX=0.001;entryY=0.343;entryDx=0;entryDy=0;entryPerimeter=0;exitX=1;exitY=0;exitDx=0;exitDy=0;" parent="1" source="pz5CJEBABPtMnbNcCvbR-58" target="pz5CJEBABPtMnbNcCvbR-366" edge="1">
          <mxGeometry relative="1" as="geometry">
            <Array as="points">
              <mxPoint x="1390" y="70" />
              <mxPoint x="1390" y="1108" />
            </Array>
            <mxPoint x="1200" y="70" as="sourcePoint" />
            <mxPoint x="2222" y="1475" as="targetPoint" />
          </mxGeometry>
        </mxCell>
        <mxCell id="pz5CJEBABPtMnbNcCvbR-371" style="edgeStyle=orthogonalEdgeStyle;rounded=0;orthogonalLoop=1;jettySize=auto;html=1;startArrow=none;startFill=0;endArrow=none;endFill=0;jumpStyle=arc;jumpSize=10;exitX=0;exitY=0.5;exitDx=0;exitDy=0;entryX=-0.004;entryY=0.191;entryDx=0;entryDy=0;entryPerimeter=0;" parent="1" source="pz5CJEBABPtMnbNcCvbR-40" target="pz5CJEBABPtMnbNcCvbR-370" edge="1">
          <mxGeometry relative="1" as="geometry">
            <Array as="points">
              <mxPoint x="1350" y="550" />
              <mxPoint x="1350" y="1310" />
              <mxPoint x="1870" y="1310" />
              <mxPoint x="1870" y="1312" />
              <mxPoint x="2250" y="1312" />
              <mxPoint x="2250" y="1310" />
            </Array>
            <mxPoint x="1490" y="780" as="sourcePoint" />
            <mxPoint x="1870" y="1310" as="targetPoint" />
          </mxGeometry>
        </mxCell>
        <mxCell id="pz5CJEBABPtMnbNcCvbR-391" style="edgeStyle=orthogonalEdgeStyle;rounded=0;orthogonalLoop=1;jettySize=auto;html=1;startArrow=none;startFill=0;endArrow=none;endFill=0;jumpStyle=arc;jumpSize=10;entryX=0.009;entryY=-0.08;entryDx=0;entryDy=0;entryPerimeter=0;" parent="1" target="pz5CJEBABPtMnbNcCvbR-238" edge="1">
          <mxGeometry relative="1" as="geometry">
            <Array as="points">
              <mxPoint y="40" />
              <mxPoint x="320" y="40" />
              <mxPoint x="320" y="1030" />
              <mxPoint x="472" y="1030" />
            </Array>
            <mxPoint y="90" as="sourcePoint" />
            <mxPoint x="520" y="2153" as="targetPoint" />
          </mxGeometry>
        </mxCell>
        <mxCell id="pz5CJEBABPtMnbNcCvbR-407" value="" style="endArrow=none;html=1;rounded=0;labelBackgroundColor=default;strokeColor=default;align=center;verticalAlign=middle;fontFamily=Helvetica;fontSize=11;fontColor=default;shape=connector;jumpStyle=arc;jumpSize=10;entryX=-0.002;entryY=0.041;entryDx=0;entryDy=0;entryPerimeter=0;" parent="1" target="pz5CJEBABPtMnbNcCvbR-140" edge="1">
          <mxGeometry width="50" height="50" relative="1" as="geometry">
            <mxPoint x="-230" y="12" as="sourcePoint" />
            <mxPoint x="-70" y="-50" as="targetPoint" />
          </mxGeometry>
        </mxCell>
        <mxCell id="pz5CJEBABPtMnbNcCvbR-416" style="edgeStyle=orthogonalEdgeStyle;rounded=0;orthogonalLoop=1;jettySize=auto;html=1;startArrow=none;startFill=0;endArrow=none;endFill=0;jumpStyle=arc;jumpSize=10;exitX=1.017;exitY=0.018;exitDx=0;exitDy=0;exitPerimeter=0;entryX=0;entryY=-0.049;entryDx=0;entryDy=0;entryPerimeter=0;" parent="1" source="pz5CJEBABPtMnbNcCvbR-395" target="pz5CJEBABPtMnbNcCvbR-329" edge="1">
          <mxGeometry relative="1" as="geometry">
            <Array as="points">
              <mxPoint x="50" y="1633" />
              <mxPoint x="50" y="1720" />
              <mxPoint x="140" y="1720" />
              <mxPoint x="140" y="2050" />
              <mxPoint x="470" y="2050" />
            </Array>
            <mxPoint x="-140" y="1810" as="sourcePoint" />
            <mxPoint x="333" y="1991" as="targetPoint" />
          </mxGeometry>
        </mxCell>
        <mxCell id="pz5CJEBABPtMnbNcCvbR-430" style="edgeStyle=orthogonalEdgeStyle;rounded=0;orthogonalLoop=1;jettySize=auto;html=1;startArrow=none;startFill=0;endArrow=none;endFill=0;jumpStyle=arc;jumpSize=10;exitX=1;exitY=0.5;exitDx=0;exitDy=0;entryX=0.003;entryY=0.872;entryDx=0;entryDy=0;entryPerimeter=0;" parent="1" source="pz5CJEBABPtMnbNcCvbR-426" target="pz5CJEBABPtMnbNcCvbR-179" edge="1">
          <mxGeometry relative="1" as="geometry">
            <Array as="points">
              <mxPoint x="440" y="1830" />
              <mxPoint x="440" y="610" />
              <mxPoint x="470" y="610" />
            </Array>
            <mxPoint x="-200" y="2290" as="sourcePoint" />
            <mxPoint x="440" y="620" as="targetPoint" />
          </mxGeometry>
        </mxCell>
        <mxCell id="pz5CJEBABPtMnbNcCvbR-441" style="edgeStyle=orthogonalEdgeStyle;rounded=0;orthogonalLoop=1;jettySize=auto;html=1;startArrow=none;startFill=0;endArrow=none;endFill=0;jumpStyle=arc;jumpSize=10;entryX=0;entryY=0.5;entryDx=0;entryDy=0;" parent="1" target="pz5CJEBABPtMnbNcCvbR-231" edge="1">
          <mxGeometry relative="1" as="geometry">
            <Array as="points">
              <mxPoint x="290" y="113" />
              <mxPoint x="290" y="900" />
              <mxPoint x="468" y="900" />
            </Array>
            <mxPoint x="150" y="113" as="sourcePoint" />
            <mxPoint x="692" y="1054" as="targetPoint" />
          </mxGeometry>
        </mxCell>
        <mxCell id="pz5CJEBABPtMnbNcCvbR-450" style="edgeStyle=orthogonalEdgeStyle;rounded=0;orthogonalLoop=1;jettySize=auto;html=1;startArrow=none;startFill=0;endArrow=none;endFill=0;jumpStyle=arc;jumpSize=10;exitX=1;exitY=0.5;exitDx=0;exitDy=0;entryX=0.014;entryY=0.674;entryDx=0;entryDy=0;entryPerimeter=0;" parent="1" source="pz5CJEBABPtMnbNcCvbR-448" target="pz5CJEBABPtMnbNcCvbR-315" edge="1">
          <mxGeometry relative="1" as="geometry">
            <Array as="points" />
            <mxPoint x="-130" y="2020" as="sourcePoint" />
            <mxPoint x="347" y="2436" as="targetPoint" />
          </mxGeometry>
        </mxCell>
        <mxCell id="pz5CJEBABPtMnbNcCvbR-454" value="&amp;lt;&amp;lt;boundary&amp;gt;&amp;gt;&lt;br style=&quot;border-color: var(--border-color); font-weight: 400;&quot;&gt;RegisterPage" style="swimlane;fontStyle=1;align=center;verticalAlign=top;childLayout=stackLayout;horizontal=1;startSize=40;horizontalStack=0;resizeParent=1;resizeParentMax=0;resizeLast=0;collapsible=1;marginBottom=0;whiteSpace=wrap;html=1;" parent="1" vertex="1">
          <mxGeometry x="-425" y="1820" width="190" height="148" as="geometry" />
        </mxCell>
        <mxCell id="pz5CJEBABPtMnbNcCvbR-455" value="    - username: string&lt;br/&gt;    - password: string&lt;br/&gt;    - fname: string&lt;br/&gt;    - lname: string&lt;br/&gt;    - address: string&lt;br/&gt;    - card: boolean" style="text;strokeColor=none;fillColor=none;align=left;verticalAlign=top;spacingLeft=4;spacingRight=4;overflow=hidden;rotatable=0;points=[[0,0.5],[1,0.5]];portConstraint=eastwest;whiteSpace=wrap;html=1;" parent="pz5CJEBABPtMnbNcCvbR-454" vertex="1">
          <mxGeometry y="40" width="190" height="100" as="geometry" />
        </mxCell>
        <mxCell id="pz5CJEBABPtMnbNcCvbR-456" value="" style="line;strokeWidth=1;fillColor=none;align=left;verticalAlign=middle;spacingTop=-1;spacingLeft=3;spacingRight=3;rotatable=0;labelPosition=right;points=[];portConstraint=eastwest;strokeColor=inherit;" parent="pz5CJEBABPtMnbNcCvbR-454" vertex="1">
          <mxGeometry y="140" width="190" height="8" as="geometry" />
        </mxCell>
        <mxCell id="pz5CJEBABPtMnbNcCvbR-429" value="" style="edgeStyle=orthogonalEdgeStyle;shape=connector;rounded=0;jumpStyle=arc;jumpSize=10;orthogonalLoop=1;jettySize=auto;html=1;labelBackgroundColor=default;strokeColor=default;align=center;verticalAlign=middle;fontFamily=Helvetica;fontSize=11;fontColor=default;startArrow=none;startFill=0;endArrow=none;endFill=0;entryX=1.001;entryY=0.208;entryDx=0;entryDy=0;entryPerimeter=0;" parent="1" source="pz5CJEBABPtMnbNcCvbR-426" target="pz5CJEBABPtMnbNcCvbR-455" edge="1">
          <mxGeometry relative="1" as="geometry">
            <mxPoint x="-230" y="1714" as="targetPoint" />
          </mxGeometry>
        </mxCell>
        <mxCell id="pz5CJEBABPtMnbNcCvbR-462" style="edgeStyle=orthogonalEdgeStyle;rounded=0;orthogonalLoop=1;jettySize=auto;html=1;startArrow=none;startFill=0;endArrow=none;endFill=0;jumpStyle=arc;jumpSize=10;exitX=0.996;exitY=0.269;exitDx=0;exitDy=0;exitPerimeter=0;entryX=0.003;entryY=0.334;entryDx=0;entryDy=0;entryPerimeter=0;" parent="1" source="pz5CJEBABPtMnbNcCvbR-458" target="pz5CJEBABPtMnbNcCvbR-258" edge="1">
          <mxGeometry relative="1" as="geometry">
            <Array as="points">
              <mxPoint x="60" y="1102" />
              <mxPoint x="60" y="1281" />
              <mxPoint x="182" y="1281" />
              <mxPoint x="182" y="1341" />
              <mxPoint x="380" y="1341" />
              <mxPoint x="380" y="1480" />
              <mxPoint x="471" y="1480" />
            </Array>
            <mxPoint x="70" y="1160" as="sourcePoint" />
            <mxPoint x="360" y="1480" as="targetPoint" />
          </mxGeometry>
        </mxCell>
        <mxCell id="pz5CJEBABPtMnbNcCvbR-468" style="edgeStyle=orthogonalEdgeStyle;rounded=0;orthogonalLoop=1;jettySize=auto;html=1;startArrow=none;startFill=0;endArrow=none;endFill=0;jumpStyle=arc;jumpSize=10;exitX=0.975;exitY=0.096;exitDx=0;exitDy=0;exitPerimeter=0;entryX=0.012;entryY=0.221;entryDx=0;entryDy=0;entryPerimeter=0;" parent="1" source="pz5CJEBABPtMnbNcCvbR-463" target="pz5CJEBABPtMnbNcCvbR-313" edge="1">
          <mxGeometry relative="1" as="geometry">
            <Array as="points">
              <mxPoint x="360" y="663" />
              <mxPoint x="360" y="1750" />
              <mxPoint x="455" y="1750" />
            </Array>
            <mxPoint x="90" y="710" as="sourcePoint" />
            <mxPoint x="769" y="1639" as="targetPoint" />
          </mxGeometry>
        </mxCell>
        <mxCell id="pz5CJEBABPtMnbNcCvbR-469" value="Service" style="swimlane;whiteSpace=wrap;html=1;" parent="1" vertex="1">
          <mxGeometry x="830" y="-40" width="450" height="2870" as="geometry" />
        </mxCell>
        <mxCell id="pz5CJEBABPtMnbNcCvbR-518" value="AdminService" style="swimlane;fontStyle=1;align=center;verticalAlign=top;childLayout=stackLayout;horizontal=1;startSize=40;horizontalStack=0;resizeParent=1;resizeParentMax=0;resizeLast=0;collapsible=1;marginBottom=0;whiteSpace=wrap;html=1;" parent="pz5CJEBABPtMnbNcCvbR-469" vertex="1">
          <mxGeometry x="80" y="40" width="300" height="530" as="geometry" />
        </mxCell>
        <mxCell id="pz5CJEBABPtMnbNcCvbR-519" value="- userRepository: UserRepository&lt;br style=&quot;border-color: var(--border-color);&quot;&gt;- aircraftRepository: AircraftRepository&lt;br style=&quot;border-color: var(--border-color);&quot;&gt;- crewFlightsRepository: CrewFlightsRepository&lt;br style=&quot;border-color: var(--border-color);&quot;&gt;- flightRepository: FlightRepository&lt;br style=&quot;border-color: var(--border-color);&quot;&gt;- seatRepository: SeatRepository&lt;br style=&quot;border-color: var(--border-color);&quot;&gt;- ticketRepository: TicketRepository" style="text;strokeColor=none;fillColor=none;align=left;verticalAlign=top;spacingLeft=4;spacingRight=4;overflow=hidden;rotatable=0;points=[[0,0.5],[1,0.5]];portConstraint=eastwest;whiteSpace=wrap;html=1;" parent="pz5CJEBABPtMnbNcCvbR-518" vertex="1">
          <mxGeometry y="40" width="300" height="100" as="geometry" />
        </mxCell>
        <mxCell id="pz5CJEBABPtMnbNcCvbR-520" value="" style="line;strokeWidth=1;fillColor=none;align=left;verticalAlign=middle;spacingTop=-1;spacingLeft=3;spacingRight=3;rotatable=0;labelPosition=right;points=[];portConstraint=eastwest;strokeColor=inherit;" parent="pz5CJEBABPtMnbNcCvbR-518" vertex="1">
          <mxGeometry y="140" width="300" height="8" as="geometry" />
        </mxCell>
        <mxCell id="pz5CJEBABPtMnbNcCvbR-521" value="    + allUsers(): List&amp;lt;User&amp;gt;&lt;br/&gt;    + allAircrafts(): List&amp;lt;Aircraft&amp;gt;&lt;br/&gt;    + allUsersByRole(roleID: int): List&amp;lt;User&amp;gt;&lt;br/&gt;    + allUsersByCard(card: boolean): List&amp;lt;User&amp;gt;&lt;br/&gt;    + addAircraft(aircraft: Aircraft): Aircraft&lt;br/&gt;    + deleteAircraft(aircraftID: int): void&lt;br/&gt;    + allCrewFlights(): List&amp;lt;CrewView&amp;gt;&lt;br/&gt;    + addCrewFlights(crewFlights: CrewView): void&lt;br/&gt;    + allCrewFlightsOnFlight(flightID: int): List&amp;lt;CrewView&amp;gt;&lt;br/&gt;    + allCrewFlightsByCode(code: String): List&amp;lt;CrewView&amp;gt;&lt;br/&gt;    + deleteByUserIDAndFlightID(userID: int, flightID: int): void&lt;br/&gt;    + findByFlightID(id: int): Optional&amp;lt;Flight&amp;gt;&lt;br/&gt;    + findByCode(code: String): Optional&amp;lt;Flight&amp;gt;&lt;br/&gt;    + findByDate(date: String): List&amp;lt;Flight&amp;gt;&lt;br/&gt;    + findByCodeAndDate(code: String, date: String): Optional&amp;lt;Flight&amp;gt;&lt;br/&gt;    + findByDateAndOriginAndDestination(date: String, origin: String, destination: String): List&amp;lt;Flight&amp;gt;&lt;br/&gt;    + findByOriginAndDestination(origin: String, destination: String): List&amp;lt;Flight&amp;gt;&lt;br/&gt;    + addFlight(flight: Flight): Flight&lt;br/&gt;    + updateFlight(flight: Flight): void&lt;br/&gt;    + deleteFlight(flightID: int): void&lt;br/&gt;    + allTicketsOnFlight(flightID: int): List&amp;lt;Ticket&amp;gt;" style="text;strokeColor=none;fillColor=none;align=left;verticalAlign=top;spacingLeft=4;spacingRight=4;overflow=hidden;rotatable=0;points=[[0,0.5],[1,0.5]];portConstraint=eastwest;whiteSpace=wrap;html=1;" parent="pz5CJEBABPtMnbNcCvbR-518" vertex="1">
          <mxGeometry y="148" width="300" height="382" as="geometry" />
        </mxCell>
        <mxCell id="pz5CJEBABPtMnbNcCvbR-534" value="UserService" style="swimlane;fontStyle=1;align=center;verticalAlign=top;childLayout=stackLayout;horizontal=1;startSize=40;horizontalStack=0;resizeParent=1;resizeParentMax=0;resizeLast=0;collapsible=1;marginBottom=0;whiteSpace=wrap;html=1;" parent="pz5CJEBABPtMnbNcCvbR-469" vertex="1">
          <mxGeometry x="60" y="2050" width="300" height="160" as="geometry" />
        </mxCell>
        <mxCell id="pz5CJEBABPtMnbNcCvbR-535" value="    - userRepository: UserRepository&lt;br/&gt;    - newsletterSender: NewsletterSender" style="text;strokeColor=none;fillColor=none;align=left;verticalAlign=top;spacingLeft=4;spacingRight=4;overflow=hidden;rotatable=0;points=[[0,0.5],[1,0.5]];portConstraint=eastwest;whiteSpace=wrap;html=1;" parent="pz5CJEBABPtMnbNcCvbR-534" vertex="1">
          <mxGeometry y="40" width="300" height="40" as="geometry" />
        </mxCell>
        <mxCell id="pz5CJEBABPtMnbNcCvbR-536" value="" style="line;strokeWidth=1;fillColor=none;align=left;verticalAlign=middle;spacingTop=-1;spacingLeft=3;spacingRight=3;rotatable=0;labelPosition=right;points=[];portConstraint=eastwest;strokeColor=inherit;" parent="pz5CJEBABPtMnbNcCvbR-534" vertex="1">
          <mxGeometry y="80" width="300" height="8" as="geometry" />
        </mxCell>
        <mxCell id="pz5CJEBABPtMnbNcCvbR-537" value=" + UserService(userRepository: UserRepository, newsletterSender: NewsletterSender)&lt;br/&gt;    + userByID(userID: int): UserView&lt;br/&gt;    + addUser(registerView: RegisterView): User" style="text;strokeColor=none;fillColor=none;align=left;verticalAlign=top;spacingLeft=4;spacingRight=4;overflow=hidden;rotatable=0;points=[[0,0.5],[1,0.5]];portConstraint=eastwest;whiteSpace=wrap;html=1;" parent="pz5CJEBABPtMnbNcCvbR-534" vertex="1">
          <mxGeometry y="88" width="300" height="72" as="geometry" />
        </mxCell>
        <mxCell id="pz5CJEBABPtMnbNcCvbR-548" value="ManifestService" style="swimlane;fontStyle=1;align=center;verticalAlign=top;childLayout=stackLayout;horizontal=1;startSize=40;horizontalStack=0;resizeParent=1;resizeParentMax=0;resizeLast=0;collapsible=1;marginBottom=0;whiteSpace=wrap;html=1;" parent="pz5CJEBABPtMnbNcCvbR-469" vertex="1">
          <mxGeometry x="75" y="1040" width="300" height="242" as="geometry" />
        </mxCell>
        <mxCell id="pz5CJEBABPtMnbNcCvbR-549" value="    - ticketRepository: TicketRepository&lt;br/&gt;    - flightRepository: FlightRepository&lt;br/&gt;    - seatRepository: SeatRepository" style="text;strokeColor=none;fillColor=none;align=left;verticalAlign=top;spacingLeft=4;spacingRight=4;overflow=hidden;rotatable=0;points=[[0,0.5],[1,0.5]];portConstraint=eastwest;whiteSpace=wrap;html=1;" parent="pz5CJEBABPtMnbNcCvbR-548" vertex="1">
          <mxGeometry y="40" width="300" height="50" as="geometry" />
        </mxCell>
        <mxCell id="pz5CJEBABPtMnbNcCvbR-550" value="" style="line;strokeWidth=1;fillColor=none;align=left;verticalAlign=middle;spacingTop=-1;spacingLeft=3;spacingRight=3;rotatable=0;labelPosition=right;points=[];portConstraint=eastwest;strokeColor=inherit;" parent="pz5CJEBABPtMnbNcCvbR-548" vertex="1">
          <mxGeometry y="90" width="300" height="30" as="geometry" />
        </mxCell>
        <mxCell id="pz5CJEBABPtMnbNcCvbR-551" value="+ PaymentService(paymentRepository: PaymentRepository)&lt;br/&gt;    + addPayment(paymentView: PaymentView): Payment&lt;br/&gt;    + getPaymentById(id: int): Optional&amp;lt;Payment&amp;gt;&lt;br/&gt;    + getPaymentByUserID(userID: int): List&amp;lt;PaymentView&amp;gt;&lt;br/&gt;    + deletePayment(id: int): void" style="text;strokeColor=none;fillColor=none;align=left;verticalAlign=top;spacingLeft=4;spacingRight=4;overflow=hidden;rotatable=0;points=[[0,0.5],[1,0.5]];portConstraint=eastwest;whiteSpace=wrap;html=1;" parent="pz5CJEBABPtMnbNcCvbR-548" vertex="1">
          <mxGeometry y="120" width="300" height="122" as="geometry" />
        </mxCell>
        <mxCell id="pz5CJEBABPtMnbNcCvbR-553" value="EmailService" style="swimlane;fontStyle=1;align=center;verticalAlign=top;childLayout=stackLayout;horizontal=1;startSize=40;horizontalStack=0;resizeParent=1;resizeParentMax=0;resizeLast=0;collapsible=1;marginBottom=0;whiteSpace=wrap;html=1;" parent="pz5CJEBABPtMnbNcCvbR-469" vertex="1">
          <mxGeometry x="60" y="1320" width="300" height="340" as="geometry" />
        </mxCell>
        <mxCell id="pz5CJEBABPtMnbNcCvbR-554" value="- emailSender: JavaMailSender&lt;br/&gt;    - userRepository: UserRepository&lt;br/&gt;    - ticketRepository: TicketRepository&lt;br/&gt;    - seatRepository: SeatRepository&lt;br/&gt;    - flightRepository: FlightRepository&lt;br/&gt;    - emailTicket: EmailTicket&lt;br/&gt;    - emailCancel: EmailCancel" style="text;strokeColor=none;fillColor=none;align=left;verticalAlign=top;spacingLeft=4;spacingRight=4;overflow=hidden;rotatable=0;points=[[0,0.5],[1,0.5]];portConstraint=eastwest;whiteSpace=wrap;html=1;" parent="pz5CJEBABPtMnbNcCvbR-553" vertex="1">
          <mxGeometry y="40" width="300" height="110" as="geometry" />
        </mxCell>
        <mxCell id="pz5CJEBABPtMnbNcCvbR-555" value="" style="line;strokeWidth=1;fillColor=none;align=left;verticalAlign=middle;spacingTop=-1;spacingLeft=3;spacingRight=3;rotatable=0;labelPosition=right;points=[];portConstraint=eastwest;strokeColor=inherit;" parent="pz5CJEBABPtMnbNcCvbR-553" vertex="1">
          <mxGeometry y="150" width="300" height="8" as="geometry" />
        </mxCell>
        <mxCell id="pz5CJEBABPtMnbNcCvbR-556" value="+ EmailService(emailSender: JavaMailSender, userRepository: UserRepository, ticketRepository: TicketRepository,&lt;br/&gt;        seatRepository: SeatRepository, flightRepository: FlightRepository, emailTicket: EmailTicket,&lt;br/&gt;        emailCancel: EmailCancel)&lt;br/&gt;    + sendEmail(ticket: Ticket, emailStrategy: EmailStrategy): void&lt;br/&gt;    + ticketEmail(ticket: Ticket): void&lt;br/&gt;    + ticketCancellationEmail(ticket: Ticket): void&lt;br/&gt;    + sendNewsletterEmail(userEmail: String, newsletterContent: String)" style="text;strokeColor=none;fillColor=none;align=left;verticalAlign=top;spacingLeft=4;spacingRight=4;overflow=hidden;rotatable=0;points=[[0,0.5],[1,0.5]];portConstraint=eastwest;whiteSpace=wrap;html=1;" parent="pz5CJEBABPtMnbNcCvbR-553" vertex="1">
          <mxGeometry y="158" width="300" height="182" as="geometry" />
        </mxCell>
        <mxCell id="pz5CJEBABPtMnbNcCvbR-557" value="CrewflightsService" style="swimlane;fontStyle=1;align=center;verticalAlign=top;childLayout=stackLayout;horizontal=1;startSize=40;horizontalStack=0;resizeParent=1;resizeParentMax=0;resizeLast=0;collapsible=1;marginBottom=0;whiteSpace=wrap;html=1;" parent="pz5CJEBABPtMnbNcCvbR-469" vertex="1">
          <mxGeometry x="60" y="2230" width="300" height="210" as="geometry" />
        </mxCell>
        <mxCell id="pz5CJEBABPtMnbNcCvbR-558" value="    - crewFlightsRepository: CrewFlightsRepository&lt;br/&gt;&lt;br/&gt;" style="text;strokeColor=none;fillColor=none;align=left;verticalAlign=top;spacingLeft=4;spacingRight=4;overflow=hidden;rotatable=0;points=[[0,0.5],[1,0.5]];portConstraint=eastwest;whiteSpace=wrap;html=1;" parent="pz5CJEBABPtMnbNcCvbR-557" vertex="1">
          <mxGeometry y="40" width="300" height="40" as="geometry" />
        </mxCell>
        <mxCell id="pz5CJEBABPtMnbNcCvbR-559" value="" style="line;strokeWidth=1;fillColor=none;align=left;verticalAlign=middle;spacingTop=-1;spacingLeft=3;spacingRight=3;rotatable=0;labelPosition=right;points=[];portConstraint=eastwest;strokeColor=inherit;" parent="pz5CJEBABPtMnbNcCvbR-557" vertex="1">
          <mxGeometry y="80" width="300" height="8" as="geometry" />
        </mxCell>
        <mxCell id="pz5CJEBABPtMnbNcCvbR-560" value="+ CrewFlightsService(crewFlightsRepository: CrewFlightsRepository)&lt;br/&gt;    + allCrewFlights(): List&amp;lt;CrewFlights&amp;gt;&lt;br/&gt;    + allCrewFlightsOnCrew(crewID: int): Optional&amp;lt;CrewFlights&amp;gt;&lt;br/&gt;    + allCrewFlightsOnFlight(flightID: int): List&amp;lt;CrewFlights&amp;gt;" style="text;strokeColor=none;fillColor=none;align=left;verticalAlign=top;spacingLeft=4;spacingRight=4;overflow=hidden;rotatable=0;points=[[0,0.5],[1,0.5]];portConstraint=eastwest;whiteSpace=wrap;html=1;" parent="pz5CJEBABPtMnbNcCvbR-557" vertex="1">
          <mxGeometry y="88" width="300" height="122" as="geometry" />
        </mxCell>
        <mxCell id="pz5CJEBABPtMnbNcCvbR-524" style="edgeStyle=orthogonalEdgeStyle;rounded=0;orthogonalLoop=1;jettySize=auto;html=1;startArrow=none;startFill=0;endArrow=none;endFill=0;jumpStyle=arc;jumpSize=10;exitX=1.179;exitY=0.742;exitDx=0;exitDy=0;exitPerimeter=0;" parent="pz5CJEBABPtMnbNcCvbR-469" source="pz5CJEBABPtMnbNcCvbR-101" edge="1">
          <mxGeometry relative="1" as="geometry">
            <Array as="points" />
            <mxPoint x="646" y="260" as="sourcePoint" />
            <mxPoint x="380" y="260" as="targetPoint" />
          </mxGeometry>
        </mxCell>
        <mxCell id="pz5CJEBABPtMnbNcCvbR-562" value="FlightService" style="swimlane;fontStyle=1;align=center;verticalAlign=top;childLayout=stackLayout;horizontal=1;startSize=40;horizontalStack=0;resizeParent=1;resizeParentMax=0;resizeLast=0;collapsible=1;marginBottom=0;whiteSpace=wrap;html=1;" parent="pz5CJEBABPtMnbNcCvbR-469" vertex="1">
          <mxGeometry x="60" y="2460" width="300" height="210" as="geometry" />
        </mxCell>
        <mxCell id="pz5CJEBABPtMnbNcCvbR-563" value="    - flightRepository: FlightRepository&lt;br/&gt;&lt;br/&gt;" style="text;strokeColor=none;fillColor=none;align=left;verticalAlign=top;spacingLeft=4;spacingRight=4;overflow=hidden;rotatable=0;points=[[0,0.5],[1,0.5]];portConstraint=eastwest;whiteSpace=wrap;html=1;" parent="pz5CJEBABPtMnbNcCvbR-562" vertex="1">
          <mxGeometry y="40" width="300" height="40" as="geometry" />
        </mxCell>
        <mxCell id="pz5CJEBABPtMnbNcCvbR-564" value="" style="line;strokeWidth=1;fillColor=none;align=left;verticalAlign=middle;spacingTop=-1;spacingLeft=3;spacingRight=3;rotatable=0;labelPosition=right;points=[];portConstraint=eastwest;strokeColor=inherit;" parent="pz5CJEBABPtMnbNcCvbR-562" vertex="1">
          <mxGeometry y="80" width="300" height="8" as="geometry" />
        </mxCell>
        <mxCell id="pz5CJEBABPtMnbNcCvbR-565" value="+ FlightService(flightRepository: FlightRepository)&lt;br/&gt;    + allFlights(): List&amp;lt;Flight&amp;gt;&lt;br/&gt;    + findByDateAndOriginAndDestination(date: String, origin: String, destination: String): List&amp;lt;Flight&amp;gt;&lt;br/&gt;    + findByOriginAndDestination(origin: String, destination: String): List&amp;lt;Flight&amp;gt;" style="text;strokeColor=none;fillColor=none;align=left;verticalAlign=top;spacingLeft=4;spacingRight=4;overflow=hidden;rotatable=0;points=[[0,0.5],[1,0.5]];portConstraint=eastwest;whiteSpace=wrap;html=1;" parent="pz5CJEBABPtMnbNcCvbR-562" vertex="1">
          <mxGeometry y="88" width="300" height="122" as="geometry" />
        </mxCell>
        <mxCell id="pz5CJEBABPtMnbNcCvbR-567" value="LoginService" style="swimlane;fontStyle=1;align=center;verticalAlign=top;childLayout=stackLayout;horizontal=1;startSize=40;horizontalStack=0;resizeParent=1;resizeParentMax=0;resizeLast=0;collapsible=1;marginBottom=0;whiteSpace=wrap;html=1;" parent="pz5CJEBABPtMnbNcCvbR-469" vertex="1">
          <mxGeometry x="60" y="2700" width="300" height="140" as="geometry" />
        </mxCell>
        <mxCell id="pz5CJEBABPtMnbNcCvbR-568" value="    - userRepository: UserRepository&lt;br/&gt;&lt;br/&gt;" style="text;strokeColor=none;fillColor=none;align=left;verticalAlign=top;spacingLeft=4;spacingRight=4;overflow=hidden;rotatable=0;points=[[0,0.5],[1,0.5]];portConstraint=eastwest;whiteSpace=wrap;html=1;" parent="pz5CJEBABPtMnbNcCvbR-567" vertex="1">
          <mxGeometry y="40" width="300" height="40" as="geometry" />
        </mxCell>
        <mxCell id="pz5CJEBABPtMnbNcCvbR-569" value="" style="line;strokeWidth=1;fillColor=none;align=left;verticalAlign=middle;spacingTop=-1;spacingLeft=3;spacingRight=3;rotatable=0;labelPosition=right;points=[];portConstraint=eastwest;strokeColor=inherit;" parent="pz5CJEBABPtMnbNcCvbR-567" vertex="1">
          <mxGeometry y="80" width="300" height="8" as="geometry" />
        </mxCell>
        <mxCell id="pz5CJEBABPtMnbNcCvbR-570" value="+ LoginService(userRepository: UserRepository)&lt;br/&gt;    + authenticateUser(username: String, password: String): LoginView" style="text;strokeColor=none;fillColor=none;align=left;verticalAlign=top;spacingLeft=4;spacingRight=4;overflow=hidden;rotatable=0;points=[[0,0.5],[1,0.5]];portConstraint=eastwest;whiteSpace=wrap;html=1;" parent="pz5CJEBABPtMnbNcCvbR-567" vertex="1">
          <mxGeometry y="88" width="300" height="52" as="geometry" />
        </mxCell>
        <mxCell id="pz5CJEBABPtMnbNcCvbR-523" style="edgeStyle=orthogonalEdgeStyle;rounded=0;orthogonalLoop=1;jettySize=auto;html=1;startArrow=none;startFill=0;endArrow=none;endFill=0;jumpStyle=arc;jumpSize=10;exitX=1.383;exitY=-0.158;exitDx=0;exitDy=0;exitPerimeter=0;" parent="1" source="pz5CJEBABPtMnbNcCvbR-100" edge="1">
          <mxGeometry relative="1" as="geometry">
            <Array as="points">
              <mxPoint x="1499" y="140" />
            </Array>
            <mxPoint x="1230" y="140" as="sourcePoint" />
            <mxPoint x="1210" y="140" as="targetPoint" />
          </mxGeometry>
        </mxCell>
        <mxCell id="pz5CJEBABPtMnbNcCvbR-525" style="edgeStyle=orthogonalEdgeStyle;rounded=0;orthogonalLoop=1;jettySize=auto;html=1;startArrow=none;startFill=0;endArrow=none;endFill=0;jumpStyle=arc;jumpSize=10;exitX=1.179;exitY=0.742;exitDx=0;exitDy=0;exitPerimeter=0;" parent="1" edge="1">
          <mxGeometry relative="1" as="geometry">
            <Array as="points" />
            <mxPoint x="1500" y="310" as="sourcePoint" />
            <mxPoint x="1210" y="310" as="targetPoint" />
          </mxGeometry>
        </mxCell>
        <mxCell id="pz5CJEBABPtMnbNcCvbR-526" style="edgeStyle=orthogonalEdgeStyle;rounded=0;orthogonalLoop=1;jettySize=auto;html=1;startArrow=none;startFill=0;endArrow=none;endFill=0;jumpStyle=arc;jumpSize=10;exitX=1.179;exitY=0.742;exitDx=0;exitDy=0;exitPerimeter=0;" parent="1" edge="1">
          <mxGeometry relative="1" as="geometry">
            <Array as="points" />
            <mxPoint x="1500" y="300" as="sourcePoint" />
            <mxPoint x="1210" y="300" as="targetPoint" />
          </mxGeometry>
        </mxCell>
        <mxCell id="pz5CJEBABPtMnbNcCvbR-527" style="edgeStyle=orthogonalEdgeStyle;rounded=0;orthogonalLoop=1;jettySize=auto;html=1;startArrow=none;startFill=0;endArrow=none;endFill=0;jumpStyle=arc;jumpSize=10;exitX=1.179;exitY=0.742;exitDx=0;exitDy=0;exitPerimeter=0;" parent="1" edge="1">
          <mxGeometry relative="1" as="geometry">
            <Array as="points" />
            <mxPoint x="1500" y="380" as="sourcePoint" />
            <mxPoint x="1210" y="380" as="targetPoint" />
          </mxGeometry>
        </mxCell>
        <mxCell id="pz5CJEBABPtMnbNcCvbR-528" style="edgeStyle=orthogonalEdgeStyle;rounded=0;orthogonalLoop=1;jettySize=auto;html=1;startArrow=none;startFill=0;endArrow=none;endFill=0;jumpStyle=arc;jumpSize=10;exitX=1.179;exitY=0.742;exitDx=0;exitDy=0;exitPerimeter=0;" parent="1" edge="1">
          <mxGeometry relative="1" as="geometry">
            <Array as="points" />
            <mxPoint x="1500" y="390" as="sourcePoint" />
            <mxPoint x="1210" y="390" as="targetPoint" />
          </mxGeometry>
        </mxCell>
        <mxCell id="pz5CJEBABPtMnbNcCvbR-529" value="SeatService" style="swimlane;fontStyle=1;align=center;verticalAlign=top;childLayout=stackLayout;horizontal=1;startSize=40;horizontalStack=0;resizeParent=1;resizeParentMax=0;resizeLast=0;collapsible=1;marginBottom=0;whiteSpace=wrap;html=1;" parent="1" vertex="1">
          <mxGeometry x="910" y="540" width="300" height="210" as="geometry" />
        </mxCell>
        <mxCell id="pz5CJEBABPtMnbNcCvbR-530" value="    - seatRepository: SeatRepository&lt;br/&gt;    - flightRepository: FlightRepository&lt;br/&gt;    - ticketRepository: TicketRepository" style="text;strokeColor=none;fillColor=none;align=left;verticalAlign=top;spacingLeft=4;spacingRight=4;overflow=hidden;rotatable=0;points=[[0,0.5],[1,0.5]];portConstraint=eastwest;whiteSpace=wrap;html=1;" parent="pz5CJEBABPtMnbNcCvbR-529" vertex="1">
          <mxGeometry y="40" width="300" height="50" as="geometry" />
        </mxCell>
        <mxCell id="pz5CJEBABPtMnbNcCvbR-531" value="" style="line;strokeWidth=1;fillColor=none;align=left;verticalAlign=middle;spacingTop=-1;spacingLeft=3;spacingRight=3;rotatable=0;labelPosition=right;points=[];portConstraint=eastwest;strokeColor=inherit;" parent="pz5CJEBABPtMnbNcCvbR-529" vertex="1">
          <mxGeometry y="90" width="300" height="8" as="geometry" />
        </mxCell>
        <mxCell id="pz5CJEBABPtMnbNcCvbR-532" value="    + SeatService(seatRepository: SeatRepository, flightRepository: FlightRepository, ticketRepository: TicketRepository)&lt;br/&gt;    + allSeats(): List&amp;lt;Seat&amp;gt;&lt;br/&gt;    + seatById(id: int): Seat&lt;br/&gt;    + seatByAircraftId(id: int): List&amp;lt;Seat&amp;gt;&lt;br/&gt;    + seatsOnFlight(flightID: int): List&amp;lt;SeatView&amp;gt;" style="text;strokeColor=none;fillColor=none;align=left;verticalAlign=top;spacingLeft=4;spacingRight=4;overflow=hidden;rotatable=0;points=[[0,0.5],[1,0.5]];portConstraint=eastwest;whiteSpace=wrap;html=1;" parent="pz5CJEBABPtMnbNcCvbR-529" vertex="1">
          <mxGeometry y="98" width="300" height="112" as="geometry" />
        </mxCell>
        <mxCell id="pz5CJEBABPtMnbNcCvbR-533" style="edgeStyle=orthogonalEdgeStyle;rounded=0;orthogonalLoop=1;jettySize=auto;html=1;startArrow=none;startFill=0;endArrow=none;endFill=0;jumpStyle=arc;jumpSize=10;entryX=0;entryY=0.5;entryDx=0;entryDy=0;exitX=1;exitY=0.5;exitDx=0;exitDy=0;" parent="1" source="pz5CJEBABPtMnbNcCvbR-532" target="pz5CJEBABPtMnbNcCvbR-41" edge="1">
          <mxGeometry relative="1" as="geometry">
            <Array as="points">
              <mxPoint x="1250" y="694" />
              <mxPoint x="1250" y="470" />
            </Array>
            <mxPoint x="1240" y="710" as="sourcePoint" />
            <mxPoint x="1941" y="835" as="targetPoint" />
          </mxGeometry>
        </mxCell>
        <mxCell id="pz5CJEBABPtMnbNcCvbR-538" value="" style="endArrow=none;html=1;rounded=0;labelBackgroundColor=default;strokeColor=default;align=center;verticalAlign=middle;fontFamily=Helvetica;fontSize=11;fontColor=default;shape=connector;jumpStyle=arc;jumpSize=10;entryX=0;entryY=0.5;entryDx=0;entryDy=0;" parent="1" target="pz5CJEBABPtMnbNcCvbR-535" edge="1">
          <mxGeometry width="50" height="50" relative="1" as="geometry">
            <mxPoint x="650" y="2070" as="sourcePoint" />
            <mxPoint x="780" y="2050" as="targetPoint" />
          </mxGeometry>
        </mxCell>
        <mxCell id="pz5CJEBABPtMnbNcCvbR-539" value="TicketService" style="swimlane;fontStyle=1;align=center;verticalAlign=top;childLayout=stackLayout;horizontal=1;startSize=40;horizontalStack=0;resizeParent=1;resizeParentMax=0;resizeLast=0;collapsible=1;marginBottom=0;whiteSpace=wrap;html=1;" parent="1" vertex="1">
          <mxGeometry x="890" y="1640" width="300" height="350" as="geometry" />
        </mxCell>
        <mxCell id="pz5CJEBABPtMnbNcCvbR-540" value="- ticketRepository: TicketRepository&lt;br/&gt;    - userRepository: UserRepository&lt;br/&gt;    - seatRepository: SeatRepository&lt;br/&gt;    - flightRepository: FlightRepository&lt;br/&gt;    - emailService: EmailService" style="text;strokeColor=none;fillColor=none;align=left;verticalAlign=top;spacingLeft=4;spacingRight=4;overflow=hidden;rotatable=0;points=[[0,0.5],[1,0.5]];portConstraint=eastwest;whiteSpace=wrap;html=1;" parent="pz5CJEBABPtMnbNcCvbR-539" vertex="1">
          <mxGeometry y="40" width="300" height="80" as="geometry" />
        </mxCell>
        <mxCell id="pz5CJEBABPtMnbNcCvbR-541" value="" style="line;strokeWidth=1;fillColor=none;align=left;verticalAlign=middle;spacingTop=-1;spacingLeft=3;spacingRight=3;rotatable=0;labelPosition=right;points=[];portConstraint=eastwest;strokeColor=inherit;" parent="pz5CJEBABPtMnbNcCvbR-539" vertex="1">
          <mxGeometry y="120" width="300" height="8" as="geometry" />
        </mxCell>
        <mxCell id="pz5CJEBABPtMnbNcCvbR-542" value="+ TicketService(ticketRepository: TicketRepository, userRepository: UserRepository,&lt;br/&gt;                    seatRepository: SeatRepository, flightRepository: FlightRepository,&lt;br/&gt;                    emailService: EmailService)&lt;br/&gt;    + allTickets(): List&amp;lt;Ticket&amp;gt;&lt;br/&gt;    + ticketByID(ticketID: int): Ticket&lt;br/&gt;    + allTicketsOnFlight(flightID: int): List&amp;lt;Ticket&amp;gt;&lt;br/&gt;    + allTicketsOnUser(userID: int): List&amp;lt;BookingView&amp;gt;&lt;br/&gt;    + ticketsOnTicketIDAndName(ticketID: int, name: String): List&amp;lt;BookingView&amp;gt;&lt;br/&gt;    + ticketsOnFlightIDAndUserID(flightID: int, userID: int): List&amp;lt;Ticket&amp;gt;&lt;br/&gt;    + addTicket(ticketView: TicketView): Ticket&lt;br/&gt;    + deleteTicket(ticketID: int): void" style="text;strokeColor=none;fillColor=none;align=left;verticalAlign=top;spacingLeft=4;spacingRight=4;overflow=hidden;rotatable=0;points=[[0,0.5],[1,0.5]];portConstraint=eastwest;whiteSpace=wrap;html=1;" parent="pz5CJEBABPtMnbNcCvbR-539" vertex="1">
          <mxGeometry y="128" width="300" height="222" as="geometry" />
        </mxCell>
        <mxCell id="pz5CJEBABPtMnbNcCvbR-547" value="" style="edgeStyle=orthogonalEdgeStyle;rounded=0;orthogonalLoop=1;jettySize=auto;html=1;startArrow=none;startFill=0;endArrow=none;endFill=0;jumpStyle=arc;jumpSize=10;exitX=1.018;exitY=0.935;exitDx=0;exitDy=0;exitPerimeter=0;entryX=0;entryY=0.385;entryDx=0;entryDy=0;entryPerimeter=0;" parent="1" source="pz5CJEBABPtMnbNcCvbR-301" target="pz5CJEBABPtMnbNcCvbR-556" edge="1">
          <mxGeometry relative="1" as="geometry">
            <Array as="points">
              <mxPoint x="646" y="1630" />
              <mxPoint x="730" y="1630" />
              <mxPoint x="730" y="1510" />
              <mxPoint x="890" y="1510" />
            </Array>
            <mxPoint x="646" y="1628" as="sourcePoint" />
            <mxPoint x="970" y="1260" as="targetPoint" />
          </mxGeometry>
        </mxCell>
        <mxCell id="pz5CJEBABPtMnbNcCvbR-543" value="PaymentService" style="swimlane;fontStyle=1;align=center;verticalAlign=top;childLayout=stackLayout;horizontal=1;startSize=40;horizontalStack=0;resizeParent=1;resizeParentMax=0;resizeLast=0;collapsible=1;marginBottom=0;whiteSpace=wrap;html=1;" parent="1" vertex="1">
          <mxGeometry x="910" y="770" width="300" height="200" as="geometry" />
        </mxCell>
        <mxCell id="pz5CJEBABPtMnbNcCvbR-544" value="    - paymentRepository: PaymentRepository&lt;br/&gt;&lt;br/&gt;" style="text;strokeColor=none;fillColor=none;align=left;verticalAlign=top;spacingLeft=4;spacingRight=4;overflow=hidden;rotatable=0;points=[[0,0.5],[1,0.5]];portConstraint=eastwest;whiteSpace=wrap;html=1;" parent="pz5CJEBABPtMnbNcCvbR-543" vertex="1">
          <mxGeometry y="40" width="300" height="30" as="geometry" />
        </mxCell>
        <mxCell id="pz5CJEBABPtMnbNcCvbR-545" value="" style="line;strokeWidth=1;fillColor=none;align=left;verticalAlign=middle;spacingTop=-1;spacingLeft=3;spacingRight=3;rotatable=0;labelPosition=right;points=[];portConstraint=eastwest;strokeColor=inherit;" parent="pz5CJEBABPtMnbNcCvbR-543" vertex="1">
          <mxGeometry y="70" width="300" height="8" as="geometry" />
        </mxCell>
        <mxCell id="pz5CJEBABPtMnbNcCvbR-546" value="+ PaymentService(paymentRepository: PaymentRepository)&lt;br/&gt;    + addPayment(paymentView: PaymentView): Payment&lt;br/&gt;    + getPaymentById(id: int): Optional&amp;lt;Payment&amp;gt;&lt;br/&gt;    + getPaymentByUserID(userID: int): List&amp;lt;PaymentView&amp;gt;&lt;br/&gt;    + deletePayment(id: int): void" style="text;strokeColor=none;fillColor=none;align=left;verticalAlign=top;spacingLeft=4;spacingRight=4;overflow=hidden;rotatable=0;points=[[0,0.5],[1,0.5]];portConstraint=eastwest;whiteSpace=wrap;html=1;" parent="pz5CJEBABPtMnbNcCvbR-543" vertex="1">
          <mxGeometry y="78" width="300" height="122" as="geometry" />
        </mxCell>
        <mxCell id="pz5CJEBABPtMnbNcCvbR-552" style="edgeStyle=orthogonalEdgeStyle;rounded=0;orthogonalLoop=1;jettySize=auto;html=1;startArrow=none;startFill=0;endArrow=none;endFill=0;jumpStyle=arc;jumpSize=10;entryX=0;entryY=0.25;entryDx=0;entryDy=0;exitX=1.009;exitY=1.216;exitDx=0;exitDy=0;exitPerimeter=0;" parent="1" source="pz5CJEBABPtMnbNcCvbR-549" target="pz5CJEBABPtMnbNcCvbR-41" edge="1">
          <mxGeometry relative="1" as="geometry">
            <Array as="points">
              <mxPoint x="1260" y="1101" />
              <mxPoint x="1260" y="460" />
            </Array>
            <mxPoint x="1210" y="1100" as="sourcePoint" />
            <mxPoint x="1538" y="996" as="targetPoint" />
          </mxGeometry>
        </mxCell>
        <mxCell id="pz5CJEBABPtMnbNcCvbR-561" style="edgeStyle=orthogonalEdgeStyle;rounded=0;orthogonalLoop=1;jettySize=auto;html=1;startArrow=none;startFill=0;endArrow=none;endFill=0;jumpStyle=arc;jumpSize=10;exitX=1.003;exitY=0.181;exitDx=0;exitDy=0;entryX=1;entryY=0.5;entryDx=0;entryDy=0;exitPerimeter=0;" parent="1" source="pz5CJEBABPtMnbNcCvbR-560" target="pz5CJEBABPtMnbNcCvbR-35" edge="1">
          <mxGeometry relative="1" as="geometry">
            <Array as="points">
              <mxPoint x="1191" y="2290" />
              <mxPoint x="1730" y="2290" />
              <mxPoint x="1730" y="210" />
            </Array>
            <mxPoint x="1390" y="2260" as="sourcePoint" />
            <mxPoint x="1699" y="720" as="targetPoint" />
          </mxGeometry>
        </mxCell>
        <mxCell id="pz5CJEBABPtMnbNcCvbR-566" style="edgeStyle=orthogonalEdgeStyle;rounded=0;orthogonalLoop=1;jettySize=auto;html=1;startArrow=none;startFill=0;endArrow=none;endFill=0;jumpStyle=arc;jumpSize=10;exitX=1;exitY=0.5;exitDx=0;exitDy=0;entryX=-0.102;entryY=1.252;entryDx=0;entryDy=0;entryPerimeter=0;" parent="1" source="pz5CJEBABPtMnbNcCvbR-563" target="pz5CJEBABPtMnbNcCvbR-108" edge="1">
          <mxGeometry relative="1" as="geometry">
            <Array as="points">
              <mxPoint x="1720" y="2480" />
              <mxPoint x="1720" y="300" />
              <mxPoint x="1594" y="300" />
            </Array>
            <mxPoint x="1350" y="2680" as="sourcePoint" />
            <mxPoint x="1710" y="300" as="targetPoint" />
          </mxGeometry>
        </mxCell>
        <mxCell id="pz5CJEBABPtMnbNcCvbR-571" style="edgeStyle=orthogonalEdgeStyle;rounded=0;orthogonalLoop=1;jettySize=auto;html=1;startArrow=none;startFill=0;endArrow=none;endFill=0;jumpStyle=arc;jumpSize=10;exitX=1;exitY=0.5;exitDx=0;exitDy=0;entryX=0.001;entryY=1.146;entryDx=0;entryDy=0;entryPerimeter=0;" parent="1" source="pz5CJEBABPtMnbNcCvbR-177" target="pz5CJEBABPtMnbNcCvbR-568" edge="1">
          <mxGeometry relative="1" as="geometry">
            <Array as="points">
              <mxPoint x="704" y="550" />
              <mxPoint x="704" y="2750" />
              <mxPoint x="890" y="2750" />
            </Array>
            <mxPoint x="680" y="552" as="sourcePoint" />
            <mxPoint x="924" y="2650" as="targetPoint" />
          </mxGeometry>
        </mxCell>
        <mxCell id="pz5CJEBABPtMnbNcCvbR-572" style="edgeStyle=orthogonalEdgeStyle;rounded=0;orthogonalLoop=1;jettySize=auto;html=1;startArrow=none;startFill=0;endArrow=none;endFill=0;jumpStyle=arc;jumpSize=10;exitX=1;exitY=0.113;exitDx=0;exitDy=0;exitPerimeter=0;" parent="1" source="pz5CJEBABPtMnbNcCvbR-570" edge="1">
          <mxGeometry relative="1" as="geometry">
            <Array as="points">
              <mxPoint x="1754" y="2754" />
              <mxPoint x="1754" y="540" />
            </Array>
            <mxPoint x="1350" y="2780" as="sourcePoint" />
            <mxPoint x="1600" y="540" as="targetPoint" />
          </mxGeometry>
        </mxCell>
        <mxCell id="wCsDyDGEpFQCggZBVnyr-1" style="edgeStyle=orthogonalEdgeStyle;rounded=0;orthogonalLoop=1;jettySize=auto;html=1;startArrow=none;startFill=0;endArrow=none;endFill=0;jumpStyle=arc;jumpSize=10;exitX=1;exitY=0.5;exitDx=0;exitDy=0;entryX=0;entryY=0.5;entryDx=0;entryDy=0;" parent="1" source="pz5CJEBABPtMnbNcCvbR-176" target="pz5CJEBABPtMnbNcCvbR-570" edge="1">
          <mxGeometry relative="1" as="geometry">
            <Array as="points">
              <mxPoint x="749" y="560" />
              <mxPoint x="749" y="2780" />
              <mxPoint x="890" y="2780" />
            </Array>
            <mxPoint x="690" y="580" as="sourcePoint" />
            <mxPoint x="935" y="2776" as="targetPoint" />
          </mxGeometry>
        </mxCell>
        <mxCell id="wCsDyDGEpFQCggZBVnyr-2" style="edgeStyle=orthogonalEdgeStyle;rounded=0;orthogonalLoop=1;jettySize=auto;html=1;startArrow=none;startFill=0;endArrow=none;endFill=0;jumpStyle=arc;jumpSize=10;" parent="1" edge="1">
          <mxGeometry relative="1" as="geometry">
            <Array as="points">
              <mxPoint x="1940" y="2780" />
              <mxPoint x="1940" y="550" />
            </Array>
            <mxPoint x="1190" y="2780" as="sourcePoint" />
            <mxPoint x="1600" y="550" as="targetPoint" />
          </mxGeometry>
        </mxCell>
        <mxCell id="wCsDyDGEpFQCggZBVnyr-4" style="edgeStyle=orthogonalEdgeStyle;rounded=0;orthogonalLoop=1;jettySize=auto;html=1;startArrow=none;startFill=0;endArrow=none;endFill=0;jumpStyle=arc;jumpSize=10;exitX=0.558;exitY=-0.155;exitDx=0;exitDy=0;exitPerimeter=0;entryX=0.012;entryY=0.868;entryDx=0;entryDy=0;entryPerimeter=0;" parent="1" source="pz5CJEBABPtMnbNcCvbR-40" target="pz5CJEBABPtMnbNcCvbR-370" edge="1">
          <mxGeometry relative="1" as="geometry">
            <Array as="points">
              <mxPoint x="1553" y="500" />
              <mxPoint x="2000" y="500" />
              <mxPoint x="2000" y="1390" />
              <mxPoint x="2258" y="1390" />
            </Array>
            <mxPoint x="1570" y="500" as="sourcePoint" />
            <mxPoint x="2050" y="1390" as="targetPoint" />
          </mxGeometry>
        </mxCell>
        <mxCell id="wCsDyDGEpFQCggZBVnyr-5" value="send user to repo" style="text;html=1;align=center;verticalAlign=middle;resizable=0;points=[];autosize=1;strokeColor=none;fillColor=none;" parent="1" vertex="1">
          <mxGeometry x="1990" y="1358" width="120" height="30" as="geometry" />
        </mxCell>
        <mxCell id="2lmXXK3-9pXa7GUDy6YS-1" value="" style="endArrow=none;html=1;rounded=0;edgeStyle=elbowEdgeStyle;exitX=1;exitY=0.25;exitDx=0;exitDy=0;entryX=1.156;entryY=0.3;entryDx=0;entryDy=0;entryPerimeter=0;" parent="1" source="pz5CJEBABPtMnbNcCvbR-411" target="pz5CJEBABPtMnbNcCvbR-308" edge="1">
          <mxGeometry width="50" height="50" relative="1" as="geometry">
            <mxPoint x="140" y="440" as="sourcePoint" />
            <mxPoint x="619" y="668" as="targetPoint" />
            <Array as="points">
              <mxPoint x="140" y="450" />
            </Array>
          </mxGeometry>
        </mxCell>
      </root>
    </mxGraphModel>
  </diagram>
</mxfile>
